<?xml version="1.0" encoding="UTF-8"?>
<svg xmlns="http://www.w3.org/2000/svg" xmlns:xlink="http://www.w3.org/1999/xlink" version="1.1" viewBox="0 0 240 213">
  <defs>
    <style>
      .cls-1 {
        fill: #3838e5;
      }
    </style>
  </defs>
  <!-- Generator: Adobe Illustrator 28.6.0, SVG Export Plug-In . SVG Version: 1.2.0 Build 709)  -->
  <g>
    <g id="Layer_1">
      <g id="FsJseP.tif">
        <image id="Layer_0" width="493" height="481" transform="translate(281.3 179.3) scale(.3)" xlink:href="aftereffects-1.png"/>
      </g>
      <g id="FsJseP.tif-2" data-name="FsJseP.tif">
        <g>
          <path class="cls-1" d="M229.2,36.4v140.5c-.8,2-.7,4.2-1.2,6.3-4.2,17.2-18.6,29.5-36.3,29.6-47.9.2-95.7,0-143.6,0-1.3,0-2.5,0-3.8-.2-19.6-2.8-33.5-18.9-33.5-38.8,0-44.8,0-89.7,0-134.5,0-3.2.3-6.3,1.1-9.4C16.2,12.1,31.4.2,50,.2c46.2,0,92.3,0,138.5,0,2,0,4,0,6,.3,16.4,1.8,29.5,13.1,33.4,29.2.5,2.2.9,4.5,1.3,6.7ZM116.8,150c2.7,0,5.3,0,8,0,2.8,0,3-.4,2.1-3-2.2-6.3-4.5-12.5-6.7-18.8-8.4-23.6-16.9-47.2-25.3-70.9-.5-1.5-1-2.7-3.1-2.7-7,.1-14,0-21,0-1.6,0-2.3.6-2.3,2.2,0,2.7-.5,5.3-1.4,7.8-1.2,3.3-2.3,6.5-3.4,9.8-8.4,24.2-16.9,48.3-25.3,72.5-1,3-.8,3.4,2.3,3.4,4.7,0,9.5,0,14.2,0,2,0,2.9-.8,3.5-2.6,1.8-6,3.9-11.9,5.7-17.9.5-1.8,1.4-2.3,3.1-2.2,9.7,0,19.4,0,29,0,1.8,0,2.7.5,3.3,2.3,1.9,6,4.1,11.9,6,17.8.5,1.6,1.3,2.3,3,2.2,2.8,0,5.6,0,8.4,0ZM169.3,152.5c6.8-.2,13.6-.8,20.1-3.3,1.4-.5,2.3-1.2,2.2-2.9,0-4.2,0-8.4,0-12.6,0-1.5-.5-1.8-1.9-1.3-2.4.9-5,1.4-7.5,1.8-6.8,1.1-13.5,1.5-20.1-1.1-5.3-2.1-8.2-6.1-9.5-11.4-.4-1.6,0-2.3,1.8-2.2,8.9,0,17.7,0,26.6.1,4.6.1,9.1.4,13.7,0,1.8-.2,2.6-.9,2.7-2.7.3-3.2.5-6.5.4-9.7-.7-13.8-8-28.2-26.7-30.1-15.7-1.6-28.4,3.9-35.8,19.8-4.8,10.4-5.2,21.3-1.8,32.2,3.6,11.7,11.5,19.2,23.4,22.2,4,1,8.2,1.2,12.4,1.3Z"/>
          <path class="cls-1" d="M81.2,72.6c.5.3.6.9.7,1.3,3,10.9,6.6,21.7,10.1,32.5.9,2.7.8,2.8-2,2.8-5.9,0-11.8,0-17.7,0-1.8,0-2.1-.5-1.6-2.3,3.5-11.3,7.3-22.4,10.1-33.9,0-.2.2-.3.4-.5Z"/>
          <path class="cls-1" d="M164.8,105.9c-3.6,0-7.2,0-10.9,0-1.1,0-1.7-.3-1.4-1.5,1.1-5.2,3.7-9.2,8.8-11,5.1-1.8,10.7-.5,14.1,3.3,1.4,1.5,2.3,3.3,2.7,5.2.8,3.4.3,4-3.1,4-3.4,0-6.8,0-10.2,0h0Z"/>
        </g>
      </g>
    </g>
  </g>
</svg>