<?xml version="1.0" encoding="UTF-8"?>
<svg xmlns="http://www.w3.org/2000/svg" version="1.1" viewBox="0 0 240 213">
  <defs>
    <style>
      .cls-1 {
        fill: #e0dfdc;
      }

      .cls-2 {
        fill: #0f0f0f;
      }
    </style>
  </defs>
  <!-- Generator: Adobe Illustrator 28.6.0, SVG Export Plug-In . SVG Version: 1.2.0 Build 709)  -->
  <g>
    <g id="Layer_1">
      <rect class="cls-2" x="-2.8" y="-2.5" width="245.6" height="217.9"/>
      <g id="Pf1uKJ">
        <g>
          <path class="cls-1" d="M119.2,186.6c7.4-2.8,8.9-8.8,9-15.3.1-19.2,0-38.3,0-57.5,0-3.9-.9-7.6-3.2-10.9-1-1.4-2.2-2.6-3.9-3.3-.7-.3-1.9-.2-1.7-1.4.2-1,1.2-.9,2-1,5.3-.4,10.7-.8,16-1.3,1.8-.1,3.6-.2,5.4-.5,2.5-.4,3.9.4,3.7,3.2,0,1,0,2,0,3,0,22.7,0,45.4,0,68.1,0,3.5,0,6.9,1.6,10.1,1.2,2.7,2.8,4.9,5.7,6,.5.2,1.4.2,1.2,1-.1.8-.9.6-1.5.7-.7,0-1.4,0-2.1,0-9.5,0-19.1,0-28.6,0-1.1,0-2.4.4-3.8-1Z"/>
          <path class="cls-1" d="M160.8,186.6c8.3-3.6,8.7-10.9,8.7-18.5,0-17.9,0-35.9,0-53.8,0-3.8-.7-7.4-2.6-10.8-1.1-1.8-2.4-3.2-4.4-4-.7-.3-1.9-.2-1.7-1.4.2-.9,1.2-.9,2-1,5.8-.4,11.5-.9,17.3-1.3.8,0,1.6,0,2.4,0,6.4-1.3,5.5.6,5.5,5,0,23.1,0,46.2,0,69.3,0,3.9.3,7.7,2.3,11.2,1.2,1.9,2.5,3.7,4.8,4.5.6.2,1.7.2,1.4,1.2-.2.9-1.2.6-1.8.6-5.2,0-10.3,0-15.5,0-5.5,0-10.9,0-16.4,0-.7,0-1.5.2-1.9-.9Z"/>
          <path class="cls-1" d="M104.8,133.2c0,12.5,0,24.9,0,37.4,0,3.7.8,7.2,2.6,10.5,1.1,2,2.6,3.5,4.8,4.5.6.3,1.9.2,1.6,1.3-.3,1-1.4.6-2.1.6-3.6,0-7.3,0-10.9,0-7.3,0-14.6,0-21.9,0-.8,0-2.1.4-2.3-.8-.1-1,1.2-.9,1.9-1.2,5.3-2.7,7-7.8,7-13,0-14.3,1.6-28.6.2-42.8-.1-1.4-.4-2.8-.7-4.2-.9-3.4-2.6-4.2-5.9-3.1-.9.3-2,1.4-2.7.2-.6-.9.6-1.6,1.2-2.2,7.7-9,15.5-17.9,23.3-26.9.8-.9,1.5-2.7,3-2.1,1.7.6,1,2.5,1,3.8,0,12.7,0,25.3,0,38Z"/>
          <path class="cls-1" d="M235.9,187c-.8,1.1-1.9.6-2.8.6-10.2,0-20.5,0-30.7,0-.8,0-1.9.5-2.2-.5-.4-1.2.9-1,1.6-1.3,4.2-1.7,6.1-5.4,6.4-9.3,1.2-13,1.6-26.1-.3-39.1-.9-6.2-3.2-8.3-9.3-9.5-.6-.1-1.7,0-1.6-.9,0-.9,1-1,1.7-1,7.6-.3,15,.1,21.8,4,5.7,3.3,7.1,8.9,7.2,14.9.1,9.3.2,18.7,0,28-.1,6.2,1.8,10.9,7.8,13.4.2,0,.3.5.5.7Z"/>
          <path class="cls-1" d="M35.6,188c-8.1,0-16.2,0-24.3,0-.8,0-1.6,0-2.4,0-1,0-2.2,0-2.3-1.5,0-1.4,1.1-1.5,2.1-1.7,3.8-.4,7.3-1.7,10.7-3.4,13.1-6.5,23.8-16,32.4-27.9.4-.5.7-1,1-1.5.3-.5.7-1.1,1.4-.7.5.3.4.9.3,1.4-.3,1.3-.7,2.5-1,3.8-1.4,5-2.7,10-2.8,15.2-.1,7.1,2.4,10.4,9.3,12.3,1.3.4,2.6.6,3.8.9.8.2,1.2.8,1.2,1.6,0,.8-.6,1.3-1.4,1.3-.9,0-1.8.1-2.7.1-8.4,0-16.8,0-25.2,0Z"/>
        </g>
      </g>
    </g>
  </g>
</svg>