<?xml version="1.0" encoding="UTF-8"?>
<svg xmlns="http://www.w3.org/2000/svg" xmlns:xlink="http://www.w3.org/1999/xlink" version="1.1" viewBox="0 0 240 213">
  <defs>
    <style>
      .cls-1 {
        fill: #fff;
      }

      .cls-2 {
        fill: #ea7600;
      }
    </style>
  </defs>
  <!-- Generator: Adobe Illustrator 28.6.0, SVG Export Plug-In . SVG Version: 1.2.0 Build 709)  -->
  <g>
    <g id="Layer_1">
      <g id="FsJseP.tif">
        <image id="Layer_0" width="493" height="481" transform="translate(281.3 179.3) scale(.3)" xlink:href="blender-1.png"/>
      </g>
      <g id="FEbXCm.tif">
        <g>
          <path class="cls-2" d="M125.1,9.7h2.3c.5,0,1,.1,1.5.2,2.6.4,4.9,1.3,7,2.9,14.5,11.2,29,22.3,43.5,33.5,10.5,8.1,21.1,16.2,31.6,24.4,9.6,7.5,16.9,16.9,22,28,3.3,7.4,5.4,15.1,5.9,23.2,0,.2,0,.3.2.4v8.2c-.1,1.6-.2,3.2-.4,4.8-.7,6.5-2.3,12.7-4.8,18.7-5.6,13.6-14.7,24.6-26.6,33.1-14.1,10.1-29.9,15.3-47.2,16-.3,0-.7,0-1,.2h-5.6c-.3-.2-.6-.1-.9-.1-6.1-.2-12.1-1.1-18.1-2.6-16.3-4.1-30.4-12.1-41.8-24.6-9.4-10.3-15.6-22.2-17.9-36-.4-2.7-.8-5.3-.7-8,0-1.7.3-3.3.4-4.9,0-.2.1-.4,0-.7-.4.3-.7.6-1,.8-15,12.3-29.9,24.5-44.9,36.8-1.1.9-2.2,1.8-3.5,2.5-4.2,2.4-8.7,3.5-13.6,2.6-4-.8-7.1-2.9-9-6.6-1.7-3.2-1.7-6.6-.8-10,1.3-4.6,4-8.2,7.7-11,16.3-12.4,32.5-24.9,48.8-37.3,12-9.2,24-18.4,36-27.6.3-.2.6-.3.7-.7-.4-.1-.8,0-1.1,0-14.7,0-29.5,0-44.2,0-1,0-1.9,0-2.9,0-2.6-.1-5.1-.7-7.3-2.2-3.5-2.4-4.9-6.2-3.9-10.3.7-2.7,2.3-4.9,4.4-6.6,3.6-3,7.7-4.6,12.4-4.6,13.2,0,26.4,0,39.6,0,17.9,0,35.7,0,53.6,0,.3,0,.7.1,1.1-.2-.3-.2-.5-.4-.7-.6-9.8-7.9-19.5-15.9-29.3-23.8-.8-.7-1.6-1.3-2.2-2.2-1.5-1.9-2-4-1.6-6.3.3-1.8,1.2-3.3,2.5-4.6,2.1-2.2,4.8-3.5,7.8-4.1.7-.1,1.4-.1,2-.4ZM155.9,167.2c5.3,0,9.9-.6,14.5-1.7,11.2-3,20.6-8.7,27.6-18,8.4-11,11.1-23.4,7.7-36.8-2.3-9.3-7.6-16.9-14.9-23-8.3-6.9-17.9-10.7-28.6-11.8-7-.7-13.8-.1-20.5,1.8-10.6,3.1-19.6,8.6-26.3,17.5-9.4,12.4-11.8,26-6.6,40.8,3.1,8.8,8.7,15.7,16.2,21.2,9.4,6.9,20,10,31,10.1Z"/>
          <path class="cls-1" d="M156.6,148.5c-8.5-.1-16.3-2.8-22.7-8.7-4.6-4.2-7.6-9.2-8.8-15.3-1.7-8.6.5-16.3,6.1-23,4.7-5.6,10.9-9.1,18-10.6,8.3-1.8,16.3-.8,23.8,3.2,6.5,3.4,11.4,8.4,14,15.3,3.8,10.1,2,19.4-4.8,27.7-4.8,5.8-11.1,9.2-18.4,10.7-2.3.5-4.7.7-7.2.7Z"/>
        </g>
      </g>
    </g>
  </g>
</svg>