<?xml version="1.0" encoding="UTF-8"?>
<svg xmlns="http://www.w3.org/2000/svg" xmlns:xlink="http://www.w3.org/1999/xlink" version="1.1" viewBox="0 0 240 213">
  <defs>
    <style>
      .cls-1 {
        fill: #f5ac3d;
      }

      .cls-2 {
        fill: #fbfdfd;
      }
    </style>
  </defs>
  <!-- Generator: Adobe Illustrator 28.6.0, SVG Export Plug-In . SVG Version: 1.2.0 Build 709)  -->
  <g>
    <g id="Layer_1">
      <g id="UKmDZ9">
        <image id="UKmDZ9-2" data-name="UKmDZ9" width="300" height="300" transform="translate(390 390)" xlink:href="bsi-1.png"/>
      </g>
      <g id="ZGlgeM">
        <g>
          <path class="cls-2" d="M62.2,125.7c11,3.5,18.7,9.3,18.9,21.5.2,13.2-5.8,22.5-17.5,28.3-6,2.9-12.3,4.3-18.9,4.3-13.4,0-26.9,0-40.3,0-3.2,0-4.4-.7-4.4-4.2.1-32.3,0-64.6,0-96.9,0-2.1-.2-4,2.9-3.9,16.5.5,33.1-1.3,49.5,1.2,11.6,1.8,21.8,6.2,25.2,19.1,3.6,13.3-.4,21.2-15.5,30.6ZM24.4,148c0,3.4,0,6.9,0,10.3,0,1.9.4,3.1,2.7,3,6.2-.1,12.3.2,18.4-.3,7.7-.7,11.7-5.9,11.5-13.8-.2-7.1-3.8-10.7-11.7-11.5-2.7-.3-5.4-.2-8.1-.2q-12.8,0-12.8,12.5ZM24.4,106c0,3.1.2,6.2,0,9.2-.2,2.8.7,3.9,3.6,3.8,4.7-.2,9.4,0,14.1-.4,8.5-.7,12.3-4.9,12.2-12.8-.1-8.3-4-12-13-12.5-1.4,0-2.9,0-4.3,0q-12.5,0-12.5,12.7Z"/>
          <path class="cls-2" d="M124.6,181c-12.7-.3-23.7-4-33.6-11.2-2.3-1.7-3-3.1-1.2-5.7,6.8-9.9,6.8-16.2,21.6-6.2,5.3,3.6,11.5,4.4,17.8,3.3,5.2-1,8.5-3.8,9.3-9.2.8-5.4-1.4-9.2-6.1-11.6-7-3.6-14.9-4.6-22.1-7.6-18.2-7.7-24.2-29.5-12.4-45.3,4.5-6.1,10.5-10.1,17.7-11.9,14.2-3.6,27.7-1.6,40.3,6.1,3.3,2,4.5,3.8,2.2,7.7-5.4,8.9-5.1,14.9-19.2,6.3-4.8-2.9-10.4-3.1-15.9-1.9-4.5,1-7.3,3.9-8.1,8.5-.7,4.4,1.6,7.3,5.2,9.3,2.7,1.4,5.6,2.5,8.5,3.6,3.2,1.2,6.6,2.1,9.8,3.2,17.8,6.4,24.5,15.9,22.8,32.2-1.6,15.9-13.2,27.6-29.8,30-2.5.4-5.1.4-7,.6Z"/>
          <path class="cls-2" d="M175.5,126.3c0-16.3,0-32.6,0-48.9,0-3.9.7-5.1,4.8-3.9,12.2,3.4,20.4,12.9,20.5,25.6.2,25.7,0,51.5.1,77.2,0,3.1-.9,4.2-4,4.1-5.6-.2-11.3-.3-16.9,0-4.1.3-4.7-1.6-4.6-5.1.1-16.3,0-32.6,0-48.9Z"/>
          <path class="cls-1" d="M203.7,32c10.1,8.3,20.8,10.2,33.2,5.3-4.9,11.5-4.2,21.4,2.3,30.8.7.9,1.1,1.9.5,3-.4.7-1.1.4-1.9.3-9.7-1.3-17.2,2.8-23.5,9.6-.6.7-1.1,1.4-1.7,2.1-.4.5-.9,1-1.7,1.9-3.1-12.3-10.5-19.9-22.9-23.4,11.1-6.8,16.1-16.4,15.7-29.5Z"/>
        </g>
      </g>
    </g>
  </g>
</svg>