<?xml version="1.0" encoding="UTF-8"?>
<svg xmlns="http://www.w3.org/2000/svg" version="1.1" viewBox="0 0 240 213">
  <defs>
    <style>
      .cls-1 {
        fill: #acb4fe;
      }

      .cls-2 {
        fill: #c0c0c1;
      }

      .cls-3 {
        fill: #030518;
      }

      .cls-4 {
        fill: #545776;
      }

      .cls-5 {
        fill: #dcdee5;
      }

      .cls-6 {
        fill: #a9aab5;
      }

      .cls-7 {
        fill: #4754bd;
      }

      .cls-8 {
        fill: #303250;
      }

      .cls-9 {
        fill: #5968cf;
      }

      .cls-10 {
        fill: #878cb1;
      }

      .cls-11 {
        fill: #707ef9;
      }

      .cls-12 {
        fill: #74768f;
      }

      .cls-13 {
        fill: #f3f5f9;
      }

      .cls-14 {
        fill: #cdced1;
      }

      .cls-15 {
        fill: #3744ac;
      }
    </style>
  </defs>
  <!-- Generator: Adobe Illustrator 28.6.0, SVG Export Plug-In . SVG Version: 1.2.0 Build 709)  -->
  <g>
    <g id="Layer_1">
      <g id="NXUWK4.tif">
        <g>
          <path class="cls-13" d="M15.9,99c.5,0,.4-.4.5-.8.3-6.3,1.5-12.5,3.1-18.5,1.8-7.1,4.5-13.9,7.8-20.4,3.4-6.7,7.5-13,12.3-18.8,3.2-3.9,6.6-7.5,10.2-10.8,5.7-5.2,11.9-9.8,18.6-13.6,5.2-2.9,10.5-5.4,16.1-7.5,4.1-1.5,8.4-2.7,12.7-3.7,3-.7,6-1.2,9.1-1.7,1.8-.3,3.6-.4,5.5-.5,4-.4,8-.3,12-.2,3.8,0,7.5.5,11.2,1,5.4.7,10.6,2,15.8,3.5,2.8.8,5.5,1.9,8.2,2.9,1,.4,1.4,1.6,1.9,2.5.3.4.4,1,.6,1.5.8,2.5,1.1,4.9.2,7.4-.2.5.1.6.5.8,5,2,9.7,4.7,14,8,4.3,3.2,8.3,6.8,11.7,11-.3.2-.5.6-.9,0-.6-1-1.6-1.5-2.5-2-.7-.4-1.6-1.2-2-1-.9.4-1.1.1-1.5-.5,0,0,0-.2-.2-.2-.7,0-1.4,0-1.7-.1-1.3-.8-2.4-1.9-3.8-2.1-.9-.1-1.1-.9-1.9-1.1-1.6-.5-3-1.5-4.4-2.3-.1,0-.2-.2-.3-.3-.4-.7-.6-1-1-1.2-.8-.3-1.3-1.2-2.1-1.3-.5,0-1.1-.1-1.6-.2-1.4-.2-2.6-.8-3.7-1.7-.4-.8.3-1.3.5-2,.2-.7.6-1.4.3-2.4-1.2,1.9-2.7,3.3-4.4,4.5-3.5,2.4-7.5,3.8-11.5,5-7.7,2.4-15.7,3.9-23.6,5.5-6.4,1.4-12.9,2.2-19.2,3.9-4.8,1.3-9.5,3-14.2,4.9-1.1.4-2.3.6-3.1,1.6-.5,0-.9.2-1.3.4-2.8,1.4-5.7,2.7-8.5,4.2-6,3.3-11.6,7.2-16.6,11.9-1.3,1.2-2.6,2.5-3.9,3.7-4.5,4-8.4,8.5-11.7,13.5-3.1,4.8-5.7,9.9-7.6,15.2-1.1,3.2-2.4,6.3-2.5,9.7-.3,0-.4.2-.4.5,0,.3,0,.6,0,.9-.2.1-.2.3-.2.5,0,.6-.3,1.2,0,1.8-.4,0-.4.4-.4.7,0,.3,0,.6,0,.9-.3.3-.2.6-.2.9,0,.2,0,.3,0,.5-.3.2-.2.4-.2.7,0,.6,0,1.2,0,1.8-.4.5-.2,1.1-.2,1.6v2.3c-.4,1.8-.4,3.7,0,5.5,0,.4,0,.8,0,1.1-.1,3,.5,5.9.9,8.8.7,4.5,1.8,8.9,3.4,13.1,1.7,4.6,3.8,9,6.4,13.1,2.5,4.1,5.3,7.9,8.6,11.4,0,0,.1.2.2.2,0,0,.2.2.2.2,0,0,.1.1.2.2.2.2.4.3.7.5,0,.4.3.7.6.9,1.1,1.1,2.2,2.1,3.3,3.1,3.9,3.6,8.2,6.6,12.7,9.5,1,.7,1.2,1.2.4,2.2-.5.7-1.4,1-1.8,1.8-.4.8-1.1,1-1.9.7-.8-.4-1.5,0-2.3.2-.5.1-.3.4-.2.7-1.5-.4-2.6-1.5-3.8-2.4-3.7-2.7-7.1-5.6-10.4-8.8-4.3-4.1-8.2-8.6-11.8-13.3-3.7-4.8-6.8-10-9.5-15.3-2.2-4.2-4-8.6-5.5-13.1-1.2-3.7-2.3-7.4-3.2-11.2-.7-3.2-1.3-6.4-1.6-9.7-.1-1.6-.5-3.1-.4-4.7,0-.3-.1-.5-.5-.5v-15.2Z"/>
          <path class="cls-14" d="M136.9,208.9c-1.6.5-3.3.5-5,.7-5.8.9-11.7.9-17.6.7-3.4-.1-6.7-.5-10.1-1-2.3-.3-4.5-.9-6.7-1.2-.2,0-.4-.2-.6-.2,0-.6,0-1.3.4-1.5,1.2-.4,1.3-2,2.6-2.1.1,0,.3-.2.3-.3.7-1.3,2.1-1.9,3.2-2.8.3-.2.7-.3.7-.7.2-1.5,1.4-2.1,2.4-2.8.2-.2.4-.3.4-.6,1.4.2,2.8,0,4.1,0,.1.2.3.3.5,0,2,0,4-.6,6-.9,3.5-.4,6.8-1.3,10.1-2.3,5.3-1.6,10.3-3.8,15-6.6,5.8-3.4,11.3-7.3,15.7-12.6,2.8-3.3,5.6-6.7,8.1-10.2,3.1-4.2,6-8.7,8.4-13.3,3.1-5.9,5.6-12,7.7-18.3,1.1-3.1,1.8-6.3,2.7-9.5.2-.3.6-.5.2-.9,0-.2,0-.5,0-.7.3-.2.4-.4.4-.7,0-.2,0-.5,0-.7.2-.4.6-.7.2-1.1,0-.1,0-.3,0-.4.4-.1.6-.3.2-.7v-.4c.7-1.1,1.6-1.7,2.7-2.4.7-.5,1.7-1,2.3-2.2.5-1.1,2.1-1.6,3-2.8.8-1.1,2.1-1.9,2.7-3.3.2-.4.6-1.2,1.2-.9.8.5.7-.1.9-.5.3-.6.3-1.4,1-1.9,1.3-.9,2.5-2,4-2.6.5-.2.9-.6.8-1.2-.1-.6.2-.8.7-.9,1.1-.3,1.7-.8,1.3-2.2.8.6,1.1.5,1.3-.2.2-.8.6-1.6,1.7-1.6.3,0,.7-.3.8-.6.3-1.4,1.3-1.9,2.7-2.3-1.3-.5-.7-.9-.2-1.2.5-.3,1.1-.7,1.6-.9.9-.3.7-1.1,1.1-1.5.8-.8,1.5-1.7,2.6-2,.1,0,.3-.2.3-.3-.1-1.3,1.3-1.5,1.7-2.4.9,1.9,1,4,1.3,6,.8,4.6,1.1,9.2,1.2,13.9.1,4.8-.3,9.6-.7,14.3-.2,2.8-.7,5.6-1.2,8.3,0,.2,0,.4-.2.5-.4,0-1-.1-1,.3-.1,1.3-1.9,1.3-2,2.6-2.1.5-2.3,3.3-4.5,3.8-.1,0-.2.2-.2.4,0,.5-.4.9-.8,1.2-1.5,1.3-3,2.6-4.4,4.1-2,2.3-4.4,4.2-6.8,6-1,.8-2,1.8-2.4,2.8-.5,1.5-1.8,2-2.7,2.8-.6.6-1.3,1.1-1.8,1.8-.4.7-.7,1.2-1.7,1.2-.7,0-.4,1.3-1.2,1.6-1.1.4-1.9,1.3-2.8,2.1-.6.6-.9,1.3-1.5,1.9-1.1,1.2-2.5,2-3.4,3.3-.3.4-.6.7-1,.9-.9.4-1.5,1.1-2,1.9-.6,1.1-1.6,1.9-2.7,2.6-.8.5-1.6,1-1.9,1.9-.3.8-.9,1.3-1.4,1.7-1.3,1.1-3,1.9-3.7,3.6,0,.1-.2.3-.3.3-1.6.4-2,2.2-3.4,2.9,0,0-.1.2-.1.3,0,.8-.5,1.1-1.2,1.1-1.1.1-1.2,1.5-2.2,1.8,0,0,0,.3,0,.4,0,.2.1.4-.1.5-1.4.2-1.7,1.9-3.1,2.2-.6,0-1.5.9-1.5,1.3.2,1.5-1.2,1.4-1.8,2-.2.3-.5.5-.7.9-.4.6-.7,1.5-1.3,1.7-.8.3-1.2.9-1.6,1.5-.3.4-.7.7-1,1-.6.5-1.8.3-2,1.3-.1.6-.4.9-.8,1.1-1.5,1-2.3,2.7-4,3.6-.4.2-.5.6-.6,1.1,0,.6-.4,1-1.1,1.2-1.1.3-2.2,1.2-2.5,2.1-.3.8-.7,1.2-1.3,1.4-.7.3-1.1.9-1.6,1.5-.2.3-.6.6-.8.9-.5.7-1.7.5-1.7,1.7Z"/>
          <path class="cls-2" d="M136.9,208.9c0-1.2,1.2-1,1.7-1.7.2-.3.6-.5.8-.9.4-.6.8-1.1,1.6-1.5.6-.3,1-.6,1.3-1.4.3-.9,1.4-1.8,2.5-2.1.7-.2,1-.6,1.1-1.2,0-.5.2-.9.6-1.1,1.7-.8,2.4-2.6,4-3.6.4-.2.7-.6.8-1.1.2-.9,1.4-.7,2-1.3.4-.3.8-.5,1-1,.4-.6.7-1.2,1.6-1.5.6-.2.9-1.1,1.3-1.7.2-.3.5-.6.7-.9.6-.7,2-.5,1.8-2,0-.4.9-1.2,1.5-1.3,1.4-.2,1.7-1.9,3.1-2.2.2,0,.2-.3.1-.5,0-.1,0-.4,0-.4,1-.3,1.1-1.7,2.2-1.8.6,0,1.2-.3,1.2-1.1,0-.1,0-.3.1-.3,1.3-.7,1.8-2.5,3.4-2.9.1,0,.3-.2.3-.3.7-1.7,2.3-2.5,3.7-3.6.5-.4,1.1-.9,1.4-1.7.3-.8,1-1.4,1.9-1.9,1-.6,2-1.5,2.7-2.6.5-.9,1.1-1.5,2-1.9.4-.2.7-.5,1-.9.9-1.3,2.4-2.1,3.4-3.3.5-.6.9-1.4,1.5-1.9.9-.8,1.7-1.7,2.8-2.1.9-.3.5-1.6,1.2-1.6,1,0,1.2-.6,1.7-1.2.4-.7,1.2-1.2,1.8-1.8.9-.9,2.1-1.4,2.7-2.8.4-.9,1.4-2,2.4-2.8,2.4-1.9,4.8-3.8,6.8-6,1.3-1.5,2.8-2.8,4.4-4.1.4-.3.7-.7.8-1.2,0-.1.1-.4.2-.4,2.2-.5,2.4-3.3,4.5-3.8,0-1.3,1.9-1.2,2-2.6,0-.4.6-.3,1-.3-.2.4-.1.8,0,1.1-.5.1-.6.3-.2.7-.3,2-.9,3.9-1.5,5.8-.9,2.8-1.9,5.6-2.7,8.5-.7,2.5-1.8,4.9-2.9,7.2-3.2,7-7.2,13.5-11.8,19.6-3.5,4.6-7.3,8.8-11.5,12.7-7.1,6.6-15,12.1-23.6,16.6-4.3,2.3-8.9,3.9-13.5,5.6-4.3,1.6-8.6,2.8-13.1,3.7-1.2.2-2.3.4-3.5.6Z"/>
          <path class="cls-5" d="M220.9,83.8c-.4.9-1.8,1.1-1.7,2.4,0,0-.2.3-.3.3-1.2.3-1.8,1.2-2.6,2-.5.4-.3,1.2-1.1,1.5-.5.2-1.1.5-1.6.9-.5.4-1.1.7.2,1.2-1.4.4-2.4.9-2.7,2.3,0,.3-.5.6-.8.6-1.1,0-1.5.8-1.7,1.6-.2.8-.5.9-1.3.2.3,1.4-.2,2-1.3,2.2-.4,0-.8.3-.7.9.1.6-.3,1-.8,1.2-1.5.6-2.7,1.7-4,2.6-.7.5-.6,1.3-1,1.9-.2.3,0,1-.9.5-.6-.4-1,.4-1.2.9-.6,1.4-1.9,2.2-2.7,3.3-.9,1.2-2.5,1.7-3,2.8-.5,1.2-1.5,1.7-2.3,2.2-1,.7-2,1.3-2.7,2.4.2-1.5.4-3.1.7-4.6.5-3.4,1-6.8,1.5-10.1.4-2.6.8-5.1,1.2-7.7,0-.2.2-.5,0-.5-1.6-.4-.7-1.5-.7-2.3,0-.6.3-1.3-.4-1.8-.1-.7.2-1.3.3-1.9,1.1-5.7,2.4-11.4,4.2-16.9.7-2,1.7-3.9,2.5-5.9.7-.7,1.1-1.6,1.7-2.3.7-.7,1.6-1.1,2.1-2,.4.2.7,0,1-.2,1-.4,2.1-.5,3.2-.6,2.1,0,4.3-.4,6.4-.2.8.2,1.4,1,2.4.9.3,0,.9.6,1.1,1.2,1.9,4.2,3.7,8.4,4.9,12.8.5,1.7,1.1,3.3,1.5,5,.2,1.1.7,2.2.6,3.4Z"/>
          <path class="cls-3" d="M210.3,60.6c-2.1-.2-4.3.2-6.4.2-1.1,0-2.2.1-3.2.6-.3.1-.6.4-1,.2-1.1-3.5-2.6-6.9-4.6-10.1-.3-.6-.6-1.2-1-1.8-1.8-2.9-3.6-5.7-6-8.2,0-.2,0-.3-.3-.3h0c-3.4-4.2-7.4-7.8-11.7-11.1-4.3-3.2-9-6-14-8-.4-.2-.7-.3-.5-.8,1-2.5.6-5-.2-7.4,5.8,1.8,11.3,4.4,16.5,7.5,10,6.1,18.1,14,24.6,23.8,3.2,4.8,5.8,9.9,7.7,15.4Z"/>
          <path class="cls-5" d="M107,197c0,.3-.2.5-.4.6-1,.7-2.2,1.3-2.4,2.8,0,.3-.4.5-.7.7-1.1.8-2.5,1.5-3.2,2.8,0,.1-.2.3-.3.3-1.3.2-1.4,1.8-2.6,2.1-.4.1-.5.9-.4,1.5-2.6-.4-5.2-1.2-7.7-2-5.6-1.9-11.2-3.9-16.4-6.8-1-.5-2-1-3.1-1.5-.2-.5-.7-.6-1.2-.7,0,0-.1,0-.2,0-.3-.7-1-.9-1.6-1.1,0,0-.2,0-.2,0-.1-.3-.4-.5-.7-.5-.3-.3-.7-.6-1.1-.7-.1-.3-.4-.5-.7-.5,0,0,0,0,0,0-.1-.3-.4-.5-.7-.5,0,0,0,0,0,0-.1-.3-.4-.5-.7-.5,0,0,0,0,0,0,0-.3-.4-.6.2-.7.8-.1,1.5-.5,2.3-.2.8.4,1.5.1,1.9-.7.4-.8,1.3-1.1,1.8-1.8.8-.9.6-1.5-.4-2.2-4.4-2.9-8.7-5.9-12.7-9.5-1.1-1-2.2-2.1-3.3-3.1-.3-.3-.6-.5-.6-.9.6-.4.6-1.4,1.4-1.6,1.7,1.5,3.3,3.1,5,4.6,1.8,1.6,3.7,3.2,5.8,4.4,3.6,2.9,7.7,5,11.7,7,2.4,1.2,4.9,2.3,7.6,3,2.7.7,5.3,1.6,8.1,2,.1.2.3.2.5.2.4,0,.8,0,1.1,0,0,.1,0,.3,0,.4,0,0,0,0,0,.1,0,0,0,0,.1,0h0s0,0,0,0c.3,1.3,1.6,2.2,3.1,2.3,1.6,0,3.2.3,4.7.4,2,.2,4,.6,6,.3Z"/>
          <path class="cls-13" d="M66.7,195.6c.6.3,1.3.4,1.6,1.1-.6-.2-1.4-.3-1.6-1.1Z"/>
          <path class="cls-13" d="M68.6,196.8c.5,0,.9.2,1.2.7-.5,0-1,0-1.2-.7Z"/>
          <path class="cls-14" d="M221.1,128.7c-.4-.4-.3-.6.2-.7,0,.3,0,.5-.2.7Z"/>
          <path class="cls-13" d="M65.8,195.2c.3,0,.6.2.7.5-.3,0-.7,0-.7-.5Z"/>
          <path class="cls-13" d="M63.3,193.6c.3,0,.6.2.7.5-.3,0-.7,0-.7-.5Z"/>
          <path class="cls-13" d="M62.6,193.1c.3,0,.6.2.7.5-.3,0-.7,0-.7-.5Z"/>
          <path class="cls-13" d="M64,194c.3,0,.6.2.7.5-.3,0-.7,0-.7-.5Z"/>
          <path class="cls-5" d="M188.2,41.5c2.3,2.5,4.2,5.3,6,8.2.4.6.7,1.2,1,1.8-.2.9-.7.2-1,.1-.3-.1-.6-.6-.9-.7-1-.4-1.7-1.5-3-1.1-.2-1.1-1.4-.5-2-1.3-.6-.8-1.7-1.1-2.6-1.7-1.1-.6-2.4-.8-3.3-1.8,0,0-.1-.1-.3-.1-1-.1-1.8-.7-2.4-1.3-.2-.3,0,.4-.4.4,0-.2,0-.5-.2-1,0,.5-.1.8-.2,1.1-.3-.8-.5-1.4-1.6-1.5-.7,0-1.7-.3-2.2-.8-.7-.7-1.6-1.1-2.4-1.6-.4-.3-.8-.6-1.2-.8-1.7-.6-2.6-1.1-3-1.9-.3.7-.7.4-1.1.1-.7-.3-1-1.2-2-1-.5.1-.8-.3-1-.6-.6-1.2-1.9-1.3-2.9-1.7-1.6-.6-3.1-1.5-4.7-2.1.2-.5.4-.9.8-1.2,0,0,.1-.2.2-.3h0c.2,0,.2-.2.2-.3h0c.2-.1.2-.3.2-.4v-.3c.5,0,.5-.3.4-.6.1-.3.2-.6.3-.9.3,0,.4-.4.6-.6.3,0,.5-.1.5-.5h0c1.1.9,2.3,1.5,3.7,1.7.5,0,1.1.1,1.6.2.9,0,1.3,1,2.1,1.3.4.1.6.5,1,1.2,0,.1.2.3.3.3,1.5.8,2.8,1.9,4.4,2.3.8.2,1.1,1,1.9,1.1,1.5.2,2.6,1.3,3.8,2.1.3.2,1,.2,1.7.1.2,0,.1.1.2.2.3.6.6.9,1.5.5.4-.2,1.4.6,2,1,.9.5,1.9,1.1,2.5,2,.4.6.6.2.9,0,0,0,0,0,0,0-.2.3-.4.7,0,.8.3,0,.1-.3.2-.5Z"/>
          <path class="cls-2" d="M32.9,106.6c.2-3.4,1.4-6.6,2.5-9.7,1.9-5.4,4.5-10.5,7.6-15.2,3.3-5,7.2-9.6,11.7-13.5,1.3-1.2,2.6-2.5,3.9-3.7,5-4.7,10.6-8.6,16.6-11.9,2.8-1.5,5.7-2.8,8.5-4.2.4-.2.8-.4,1.3-.4.3.1.6-.3.8,0,.2.3-.1.5-.2.8,0,.1,0,.3-.1.4-.8-.7-.9,0-1.3.5.4.2.7-.1,1.1,0-.3.4-.7.4-1.1.6-6.7,3-12.9,6.7-18.7,11.2,0,0-.2.1-.3.2-.3.2-.6.5-.8.7-.4,0-.6.3-.8.5-4.9,4-9.4,8.4-13.5,13.2-8.2,9.8-13.1,21-15.5,33.4-.2.1-.2.3-.1.5-.2.6-.3,1.2-.3,1.8-.2.1-.3.3-.1.5,0,.5,0,.9-.1,1.4-.5,1.5-.4,3-.5,4.6-.1,0-.3.1-.4.2,0,.1-.2.3-.3.4,0,0,0,0,0,0,0,.2,0,.3,0,.5h0c0,.2.2.3.3.3.2.2.1.5,0,.7-.5,0-.4.5-.4.8,0,0,0,0,0,0,0,.5,0,1.1,0,1.6h0c0,.6,0,1.2,0,1.8h0c-1,.1-1.4.6-1.3,1.7,0,.6-.3,0-.4,0,0-.4,0-.8,0-1.1.4-1.8.4-3.7,0-5.5,0-.8,0-1.5,0-2.3.7-.5.5-1,.2-1.6,0-.6,0-1.2,0-1.8.5-.1.5-.4.2-.7,0-.2,0-.3,0-.5.6-.2.5-.5.2-.9,0-.3,0-.6,0-.9.5,0,.4-.4.4-.7-.2-.6,0-1.2,0-1.8.3,0,.5-.1.2-.5,0-.3,0-.6,0-.9.3,0,.4-.2.4-.5ZM32.8,116.8c0,0,0-.1,0-.2,0,0,0-.1,0-.2,0,0,0,.1,0,.2,0,0,0,.1,0,.2Z"/>
          <path class="cls-14" d="M85.6,49.1c0-.1,0-.3.1-.4,0-.3.4-.5.2-.8-.2-.3-.5.1-.8,0,.8-.9,2-1.1,3.1-1.6,4.6-1.9,9.3-3.5,14.2-4.9,6.3-1.7,12.8-2.5,19.2-3.9,7.9-1.7,15.8-3.1,23.6-5.5,4-1.2,8-2.6,11.5-5,1.7-1.1,3.2-2.5,4.4-4.5.4,1-.1,1.7-.3,2.4-.1.7-.9,1.2-.5,2,0,0,0,0,0,0-.3,0-.4.2-.5.5-.2.2-.3.5-.6.6-.1,0-.3,0-.4,0-2.8,2.6-6.2,3.8-9.7,5-9.1,3.2-18.6,5-28.1,6.7-7.5,1.4-14.9,2.9-22.2,5.2-3.4,1.1-6.8,2.2-10.2,3.3-.4-.4-.5,0-.7.3-.2.2-.4.4-.8.3-.5-.2-1,.2-1.5.2h0Z"/>
          <path class="cls-14" d="M31.1,126.4c.2,0,.5.6.4,0-.2-1.1.3-1.5,1.3-1.6,0,0,.1.1.2.2.2.6-.5,1.5.4,1.9.2.8.2,1.5.2,2.3-.2.4-.4.8.2,1.1,0,.2,0,.3,0,.5,0,0,0,0,0,0,0,0,0,.1,0,.2,0,.2,0,.3,0,.5-.3.3-.3.5.1.7,0,.2,0,.3,0,.5-.3.4-.3.7.2.9,0,.2,0,.3,0,.5-.4.5-.1,1,.3,1.4,0,.3,0,.6,0,.8,0,.8,0,1.7.6,2.4,0,.3,0,.5,0,.8,0,.9.1,1.7.7,2.4,0,.2,0,.3,0,.5,0,.6,0,1.2.5,1.6,0,.2,0,.4,0,.6,0,.3,0,.6.4.8,0,.2,0,.4,0,.6,0,0,.1.2.2.3,0,.1,0,.3,0,.4,0,0,.1.2.2.3,0,0,0,.1,0,.2,0,0,.1.2.2.3,0,.2,0,.4,0,.6,0,0,.1.2.2.3,0,0,0,.1,0,.2,0,0,.1.2.2.3,0,.1,0,.3,0,.4,0,0,.1.2.2.3,1.1,2.8,2.5,5.5,3.9,8.2,1.7,3,3.5,6,5.8,8.6,0,.3.2.5.4.8,1.5,1.8,3.1,3.6,4.6,5.4-.8.3-.7,1.2-1.4,1.6-.2-.2-.4-.3-.7-.5,0,0-.1-.1-.2-.2,0,0-.2-.2-.2-.2,0,0-.1-.2-.2-.2-3.2-3.5-6.1-7.3-8.6-11.4-2.6-4.2-4.7-8.6-6.4-13.1-1.6-4.2-2.7-8.6-3.4-13.1-.4-2.9-1-5.9-.9-8.8Z"/>
          <path class="cls-14" d="M31.1,119.7c.4,1.8.4,3.7,0,5.5-.4-1.8-.4-3.7,0-5.5Z"/>
          <path class="cls-14" d="M31.3,115.8c.3.6.5,1.2-.2,1.6,0-.5-.2-1.1.2-1.6Z"/>
          <path class="cls-14" d="M31.8,111.9c.3.4.4.7-.2.9,0-.3-.1-.7.2-.9Z"/>
          <path class="cls-14" d="M32.2,110.3c0,.3,0,.7-.4.7,0-.3,0-.6.4-.7Z"/>
          <path class="cls-14" d="M31.6,113.3c.4.3.3.6-.2.7,0-.3,0-.5.2-.7Z"/>
          <path class="cls-14" d="M32.5,108c.3.3,0,.4-.2.5,0-.2,0-.4.2-.5Z"/>
          <path class="cls-14" d="M32.9,106.6c0,.3,0,.5-.4.5,0-.3.1-.5.4-.5Z"/>
          <path class="cls-5" d="M50.4,172.9c0,0,.1.2.2.2,0,0-.1-.2-.2-.2Z"/>
          <path class="cls-5" d="M50.9,173.3c0,0,.1.1.2.2,0,0-.1-.1-.2-.2Z"/>
          <path class="cls-13" d="M107,197c-2,.3-4-.1-6-.3-1.6-.1-3.2-.3-4.7-.4-1.4,0-2.8-1-3.1-2.3.5-.2,1.1.1,1.6,0,.2.6.5.5.9.2.5,0,1.1,0,1.6,0,.2.5.6.5.9.2.7.2,1.3.2,2,.2,3.2,0,6.4.1,9.6,0,2.7-.1,5.4-.6,8.1-.9.2.2.3.2.5,0,4-.8,7.9-1.8,11.7-3.2,4.8-1.8,9.4-4,13.7-6.8,3.1-2,6.1-4,8.7-6.7.5,0,.7-.5,1.1-.8,3.8-3.6,7-7.7,10.2-11.9,1.1-1.5,2.4-2.8,3.2-4.6.6-.3.8-1,1.3-1.4.3,0,.3-.2.3-.5,0-.3.2-.5.4-.6.3,0,.3-.2.3-.5.2-.6.6-1.2,1-1.8.4,0,.4-.3.3-.6.2-.5.4-1,.8-1.5.8-.6,1.2-1.5,1.2-2.5h0c.5-.4.7-.8.6-1.4.1-.3.2-.5.4-.8.4,0,.4-.3.3-.6,0,0,0-.2.1-.3.7-.3.7-1.1.8-1.7v-.4c.7-.3.9-.9.8-1.6l.3-.5c.5-.2.6-.6.4-1.1,0-.2.2-.3.2-.5.6-.4.7-1.1.7-1.8,0-.1,0-.2.1-.3.3,0,.5-.1.2-.5,0-.3,0-.5.3-.7,1.4-2.4,2.4-5.1,2.9-7.8,0-.2,0-.3.1-.5.4-.5.8-.9.6-1.6,0-.2,0-.3.1-.5.4-.1.4-.4.2-.6,0-.2.1-.5.2-.7.3,0,.5-.2.2-.5v-.5c.6-.6.9-1.3.7-2.1,0-.2,0-.3.1-.5.4-.1.4-.5.4-.8.4-1.6.8-3.3,1-4.9.1-.9.7-1.7.3-2.6,0-.2,0-.3,0-.5.6-.3.4-.7.2-1.1,0-.2,0-.5.1-.7.3-.5.7-1,.3-1.6,0-.3,0-.6,0-.9.5-.3.3-.7.2-1.1,0-.2,0-.5,0-.7.5-.5.7-1.1.3-1.8,0-.3,0-.6,0-.9.8-1.1.8-2.4.6-3.7,0-.3,0-.6.1-.9.4-.1.5-.4.5-.8,0-1.4.5-2.8.6-4.3,0-.8.6-1.7.2-2.5,0-.2,0-.3,0-.5.5-.7.7-1.4.4-2.2h0c.7.4.4,1.1.4,1.7,0,.9-.9,2,.7,2.3.2,0,0,.3,0,.5-.4,2.6-.9,5.1-1.2,7.7-.5,3.4-1,6.8-1.5,10.1-.2,1.5-.4,3.1-.7,4.6,0,.1,0,.3,0,.4-.3.2-.3.4-.2.7,0,.1,0,.3,0,.4-.2.4-.6.7-.2,1.1,0,.2,0,.5,0,.7-.5,0-.5.4-.4.7,0,.2,0,.5,0,.7-.2.3-.6.5-.2.9-.9,3.2-1.7,6.4-2.7,9.5-2.2,6.3-4.6,12.4-7.7,18.3-2.5,4.7-5.3,9.1-8.4,13.3-2.6,3.5-5.3,6.8-8.1,10.2-4.4,5.2-9.9,9.1-15.7,12.6-4.7,2.8-9.7,5-15,6.6-3.3,1-6.6,1.9-10.1,2.3-2,.2-3.9.9-6,.9-.1-.2-.3-.2-.5,0-1.4.1-2.8.2-4.1,0Z"/>
          <path class="cls-5" d="M186.1,120.4c-.4-.5,0-.8.2-1.1.3.5,0,.8-.2,1.1Z"/>
          <path class="cls-5" d="M185.5,123.4c-.4-.4,0-.7.2-.9.4.4,0,.6-.2.9Z"/>
          <path class="cls-5" d="M186.4,118.8c0-.3,0-.5.2-.7.3.4.2.6-.2.7Z"/>
          <path class="cls-5" d="M185.7,121.8c0-.3,0-.7.4-.7,0,.3-.1.6-.4.7Z"/>
          <path class="cls-5" d="M111.1,197c.2-.2.3-.2.5,0-.2.2-.3.2-.5,0Z"/>
          <path class="cls-3" d="M176.1,143.2c0,.2-.2.3-.3.5-.3.5-.6,1-.7,1.6v.4c-.6.5-.7,1.1-.9,1.7,0,0,0,.2-.1.3-.1.2-.2.4-.3.6-.1.3-.2.5-.4.8-.3.4-.5.8-.6,1.3,0,0,0,0,0,0-.5.8-1,1.6-1.2,2.5-.4.4-.6.9-.8,1.5-.2.1-.3.4-.3.6-.4.5-.8,1.1-1,1.8-.2,0-.3.3-.3.5-.2.2-.4.4-.4.6-.2,0-.3.3-.3.5-.4.5-.7,1.1-1.3,1.4-.2,0-.4,0-.5,0-6,2.4-12.2,3.9-18.5,4.9-.3,0-.5,0-.7.1-.5,0-1.1,0-1.6.2-.2-.1-.3-.1-.5,0-.6,0-1.2,0-1.8.1-.3-.1-.6-.1-.9,0-4.7.1-9.4,0-14-.4-1.5-.3-3-.6-4.6-.8-3.2-.5-6.3-1.5-9.4-2.2-.2-.2-.4-.3-.7-.3-.2,0-.3,0-.5-.1-2.9-1.1-5.7-2.2-8.5-3.5,0,0-.1,0-.2,0-.1,0-.3-.1-.4-.2-.2-.2-.4-.3-.6-.4-3.8-1.9-7.5-4.1-11-6.6-4.7-3.5-9-7.4-12.9-11.8-3-3.3-5.6-7-8-10.7,0-.1,0-.2,0-.3-2.5-4.3-4.8-8.7-6.5-13.5-.8-2.4-1.6-4.8-2.2-7.3,0-.2,0-.4-.2-.5,0-.3-.1-.6-.2-.9-.2-2.3-.9-4.5-1.1-6.8-.3-2.8-.7-5.5-.8-8.3-.2-4.3,0-8.6.6-12.9.5-3.4,1.1-6.7,1.9-10,.4-1.7,1.3-3.3,1.3-5.1.3-.2.6-.5.8-.7.2,0,.3,0,.3-.2,5.8-4.5,12-8.2,18.7-11.2.4-.2.8-.2,1.1-.6,0,0,0,0,0,0,.6-.1,1.2-.3,1.7-.7.3,0,.5-.1.8-.3.3,0,.5,0,.7-.3,3.4-1.1,6.8-2.3,10.2-3.3,7.3-2.3,14.7-3.9,22.2-5.2,9.5-1.8,19-3.5,28.1-6.7,3.5-1.2,6.9-2.5,9.7-5,0,0,.3,0,.4,0-.1.3-.2.6-.3.9-.2.2-.3.4-.3.6,0,.1,0,.2-.1.3-.2,0-.2.2-.2.4,0,0,0,0,0,0,0,.1-.1.2-.2.4,0,0,0,0,0,0-.1,0-.2.1-.2.3-.3.4-.6.8-.8,1.2-1.8,2.4-3.9,4.5-6.1,6.5-.2,0-.3,0-.3.2h0c-2.9,2-5.8,4-8.9,5.6-.1,0-.2,0-.3.2,0,0-.1,0-.2,0-.1,0-.2,0-.3.1-.3.2-.6.3-.9.5-.1,0-.2.1-.3.2,0,0-.1,0-.1,0,0,0-.2.1-.3.2,0,0-.1,0-.2,0-.1,0-.2,0-.3.2,0,0-.2.1-.2.2-.5.1-1,.3-1.4.7h0s0,0,0,0c-2.8,1.4-5.6,2.8-8.5,4.2-.1,0-.2.1-.3.2,0,0,0,0-.1,0-.1,0-.2.1-.4.2-.3.1-.5.2-.8.3-.2,0-.4,0-.4.2h0c-.1,0-.2.1-.3.2-.2,0-.4.2-.6.3-.1,0-.2.1-.3.2-.2,0-.4.2-.6.2-.1,0-.2.1-.3.2-.1,0-.2,0-.3,0-.1,0-.2.1-.3.2l-.4.2c-.4,0-.7.1-1,.5h0c-1.3.4-2.6,1.1-3.8,1.7-.2,0-.4,0-.5.2h0c-.1,0-.2.1-.3.2,0,0,0,0-.1,0-.3,0-.6.1-.8.4,0,0,0,0-.1,0-.1,0-.2.2-.4.2,0,0,0,0-.1,0-.3,0-.6,0-.7.4h0c-.7,0-1.2.4-1.8.8-2.5,1.5-5,3-7.4,4.7-4.8,3.3-9.2,7-12.7,11.7-1.2,1.7-2.5,3.4-3.2,5.4,0,.1,0,.2,0,.3h0c-.3.1-.5.3-.7.6-1.3,2.8-2.3,5.7-3,8.8h0c0,0,0,.1,0,.1,0,.2,0,.4-.1.5-.2.1-.2.3-.1.4-.2.3-.2.6-.1.9-.4.3-.3.7-.3,1.1h0c-.2.2-.1.3,0,.5,0,.2,0,.3,0,.5-.4.4-.4.8-.2,1.3-.1.2-.2.5,0,.7,0,.3,0,.5,0,.8-.5,1.4-.4,2.9,0,4.3,0,.5-.2,1,0,1.5-.2.5-.3,1.1.2,1.5,0,.2,0,.4,0,.6,0,0,0,0,0,0,0,0,0,.1,0,.2h0c0,.6-.2,1.2.4,1.7,0,.3,0,.5,0,.8,0,.9.1,1.7.6,2.4v.6c0,.7.3,1.4.7,1.9,0,.1,0,.2,0,.4-.2.4,0,.6.3.9,0,0,0,.2,0,.3,0,.2,0,.3.2.4h0c0,.3,0,.5.2.7h0c0,.2,0,.4.2.5,0,.1.1.2.2.3,0,.1.1.2.2.3,0,.1,0,.2,0,.3,0,0,0,0,0,0,0,0,0,0,.1.1h0c0,.2,0,.4.2.5.1.3.3.5.4.8,0,.2,0,.5.3.6,0,.2.2.3.3.5,0,.3.1.6.4.7v.2c.1.5.4.8.7,1.1h0c0,.1.1.2.2.3,1.4,2.4,3.1,4.6,5.1,6.6,8.7,8.8,19.1,13.6,31.6,13.3,5.4-.1,10.6-1.1,15.6-3.5,2.8-1.3,5.5-2.7,7.9-4.7.4,0,.7-.3,1-.6,3.8-2.9,6.6-6.8,9.4-10.6.2,0,.3-.1.3-.3.2-.3.4-.5.6-.8.3,0,.3-.3.3-.5,0-.1.1-.3.2-.4.2,0,.3-.1.3-.3v-.4c1.3-1.3,2-2.9,2.8-4.4,2.6-4.8,4.6-9.9,6.5-15,1.2-3.1,2.3-6.3,3.5-9.5,0,0,0,0,0-.1,0-.1.2-.2.2-.4,0,0,0,0,0-.1.2-.2.4-.5.4-.8,0-.1,0-.2,0-.3,0-.1.1-.2.2-.4,0,0,0,0,0-.1.2-.2.4-.5.4-.8.6-1.3,1.2-2.6,1.8-3.9.4-.9.8-1.8,1.4-2.6,1.7-2.6,3.4-5.3,5.4-7.7,2.6-2.7,5.5-5.1,8.8-6.9-.8,2-1.8,3.8-2.5,5.9-1.9,5.5-3.1,11.2-4.2,16.9-.1.6-.4,1.2-.3,1.9,0,0,0,0,0,0-.2.7-.5,1.4-.4,2.2,0,.2,0,.3,0,.5-.6,2.5-1,5-1.3,7.6,0,.3,0,.6-.1.9-.4,1.2-.5,2.4-.6,3.7,0,.3,0,.6,0,.9-.3.6-.4,1.2-.3,1.8,0,.2,0,.5,0,.7-.3.3-.3.7-.2,1.1,0,.3,0,.6,0,.9-.3.5-.4,1-.3,1.6,0,.2,0,.5-.1.7-.2.3-.3.7-.2,1.1,0,.2,0,.3,0,.5-.6,2.8-1.1,5.5-1.7,8.3,0,.2,0,.3-.1.5-.4.6-.5,1.4-.6,2.1v.5c-.2.1-.3.3-.3.5,0,.2-.1.5-.2.7-.2.2-.3.4-.2.6,0,.2,0,.3-.1.5-.4.5-.5,1-.6,1.6,0,.2,0,.3-.1.5-1,2.6-2,5.2-2.9,7.8-.2.2-.3.4-.3.7-.2.1-.3.2-.2.5,0,.1,0,.2-.1.3-.4.5-.6,1.1-.7,1.8,0,.2-.2.3-.2.5-.2.3-.5.7-.4,1.1Z"/>
          <path class="cls-11" d="M140.1,45.5c.3-.2.6-.3.9-.5,0,0,.2,0,.3-.1,0,0,.1,0,.2,0,0,0,.2-.1.3-.2,3.1-1.7,6-3.7,8.9-5.6.2.3,1.4.8,1.8,1,.5.2.8,1,1.1,1.1,1.1.3,2.2.7,3.2,1.2.6.3.8,1,1.4,1.1,2.5.6,4.4,2.2,6.7,3.1,1,.4,1.7,1.6,2.6,1.7,1.3.2,2.1,1,3.2,1.5,1.3.6,2.5,1.3,3.7,2,.5.3,1.2.3,1.5.9.7-.6,1.1,0,1.4.4.3.3.6.6,1,.8,1.4.7,2.9,1,4.2,2.1,1.4,1.1,3.2,1.6,4.7,2.5.5.3,1.1.9,1.4.9.9,0,1.7.5,2.1.8.9.7,2.1,1,3,1.7,1,.7,2.1,1.3,3.4,1.4.3,0,.4.2.4.5-.6.7-1,1.7-1.7,2.3-3.3,1.8-6.2,4.2-8.8,6.9-.6,0-.9-.4-1.2-.8-.8-1-2.2-.9-2.9-2.1-1,.3-1.5-.8-2.4-.8-.5,0-1-.6-1.4-.6-1.1.1-1.6-.5-2.1-1.3-.3-.5-.6-.9-1.3-1.1-.6-.2-1.1-.8-1.9-.7-.3,0-.8-1-1.7-1.1-.4,0-.7-1.5-1.4-.2,0,0-.1,0-.2,0-.2-1.5-1.8-.8-2.6-1.6-.8-.8-2.3-1.2-3.4-1.8-.8-.5-1.9-.7-2.6-1.6-.2-.2-1-1.3-1.8-.4-.1.1-.1,0-.2,0-.8-1-2.1-1.1-3-1.8-.5-.4-1-.9-1.7-.7,0,0-.2,0-.2,0-.6-1.1-1.7-1.6-2.7-2.2-.4-.3-.9-.4-1.4-.6,0,.1,0,.2,0,.3,0-.2,0-.5-.2-1,0,.5-.1.8-.2,1-.3-.3,0-1-.7-1.1-1.1-.1-1.8-1.1-2.8-1.3-.6-.1-.9-.8-1.9-.8-1,0-1.5-1.9-3-1.5-.8-1.3-2.2-1.7-3.4-2.4-.1,0-.1-.3-.2-.4,0,0,.2-.1.2-.2,0,0,.2-.1.3-.2,0,0,.1,0,.2,0,0,0,.2-.1.3-.2,0,0,0,0,.1,0,.1,0,.2-.1.3-.2Z"/>
          <path class="cls-1" d="M197.7,63.6c0-.2-.1-.4-.4-.5-1.3,0-2.4-.6-3.4-1.4-.9-.7-2.1-1-3-1.7-.4-.3-1.2-.9-2.1-.8-.3,0-.9-.6-1.4-.9-1.5-.9-3.3-1.4-4.7-2.5-1.3-1-2.8-1.4-4.2-2.1-.4-.2-.7-.5-1-.8-.4-.4-.8-1-1.4-.4-.3-.6-1-.6-1.5-.9-1.2-.7-2.5-1.4-3.7-2-1-.5-1.9-1.3-3.2-1.5-.9-.1-1.6-1.3-2.6-1.7-2.3-.9-4.2-2.6-6.7-3.1-.6-.1-.8-.8-1.4-1.1-1.1-.5-2.1-.9-3.2-1.2-.3,0-.6-.9-1.1-1.1-.4-.2-1.6-.7-1.8-1,0,0,0,0,0,0,.2,0,.3,0,.3-.2,2.3-2,4.4-4.1,6.1-6.5,1.6.7,3.1,1.5,4.7,2.1,1,.4,2.3.5,2.9,1.7.2.3.5.7,1,.6.9-.2,1.3.7,2,1,.5.2.8.6,1.1-.1.4.8,1.3,1.3,3,1.9.4.1.8.5,1.2.8.8.5,1.7.9,2.4,1.6.5.5,1.5.8,2.2.8,1.1.1,1.3.7,1.6,1.5,0-.3,0-.6.2-1.1,0,.5.1.8.2,1,.3,0,.1-.6.4-.4.5.6,1.3,1.1,2.4,1.3.1,0,.2,0,.3.1.9,1,2.2,1.2,3.3,1.8.9.5,2,.8,2.6,1.7.5.8,1.8.2,2,1.3,1.3-.4,2,.7,3,1.1.3.1.6.6.9.7.3,0,.8.8,1-.1,2,3.2,3.5,6.5,4.6,10.1-.4.9-1.4,1.3-2.1,2Z"/>
          <path class="cls-13" d="M188.2,41.5c0,.2,0,.6-.2.5-.4-.2-.3-.5,0-.8.2,0,.2.2.3.3Z"/>
          <path class="cls-6" d="M143.4,165.2c.6-.2,1.2-.2,1.8-.1.2.3.3.2.5,0,.5-.2,1.1-.2,1.6-.2.3.3.5.3.7-.1,6.4-.9,12.6-2.5,18.5-4.9.2,0,.4,0,.5,0-.8,1.7-2.1,3.1-3.2,4.6-3.1,4.2-6.3,8.3-10.2,11.9-.3.3-.6.7-1.1.8-.5-.6-.9-1.9-2.1-.8,0,0-.3,0-.4,0-.9,0-1.7.2-2.5.6-.6.3-1.2.5-1.9.5-1.6,0-3.4.2-4.7,1-1.1.7-2.2.9-3.4,1.2-.3,0-.5.2-.6.5-.3.5-.5.7-1.2.4-1-.4-2.1.2-2.9.6-.5.3-1.1.6-1.6.5-.9-.2-1.5.6-2.3.5-.8,0-1.7-.3-1.9.9,0,0-.1,0-.2,0-1.5-.3-2.5.9-3.7,1.3-.3.1-.1.7-.7.6-1.3-.2-2.5.5-3.6.9-.9.4-2,0-2.7.9,0,0-.4,0-.6,0-.3,0-.6,0-.8.3-1,.9-2.1,1.2-3.4.9-.3,0-.6,0-.8.1-.6.7-1.5.7-2.3.7-.3,0-.8-.1-1,0-1.4,1.2-3.4.9-4.8,2-.2.2-.5.2-.8.2-1,0-1.9,0-2.9.1-1.3.1-2.5.8-3.9.6-.5,0-1.4.2-1.3.8.2.8-.5.4-.6.7-.4,0-.8,0-1.1,0,0-.3-.1-.6-.5-.2-2.8-.4-5.4-1.4-8.1-2-2.7-.7-5.2-1.8-7.6-3-4.1-2-8.2-4-11.7-7,.5,0,.7-.7,1-.7.9,0,1.2-1.1,1.9-1.1.8,0,.9,1.2,1.6,1.6.1-.2.3-.6.4-.6,1.2.1,1.5-2.1,3-1.2,0,0,.2,0,.3-.1,1.4-.8,2.5-.5,3.3,1,.3-.9.7-1.1,1.4-.3.3.3.6.5,1.2.4.6-.1,1.2.4,1.4-.6,0,0,.2.1.2.1.7-.2.6.6,1,.8.4-.3.6-1.1,1.4-.5,1.7,1.4,3.7.6,5.5.7.4,0,1-.2,1.4,0,.4.1.8.2,1.2,0,.7-.2,1.3-.2,2,0,1.8.3,2.2,0,2.5-1.8,0,.6,0,1,.1,1.4,0,0,0,0,.1,0,0-.3,0-.6,0-1.2.3.7.8.8,1.3.9,2,.2,3.7-.9,5.7-.8.3,0,.6-.1.8-.4,0-.1,0-.3.3-.3.7.2,1.5-.2,2.2.7,0-.4,0-.5,0-.7-.1-1.3.2-1.5,1.4-1.2.2,0,.5.3.6-.2,0-.2.1-.5.2,0,.2.7.8.6,1.1.4.9-.5,2.5.2,2.7-1.5,0,0,0,0,0,0,.9,0,1.6-.9,2.7-.7,1.4.2,3-.9,3.2-2,.3.2,0,.5.3.8.1-.3,0-1.1.7-.4.3-.4,1.1-.2,1.2-.9,0-.1.1-.3.2-.3.6,0,1-.2,1.5-.6.4-.4.9-.9,1.6-.8.4,0,.7-.2.8-.5.4-1.1,1.4-1.6,2.3-2,1.3-.6,2.5-1.2,3.1-2.6.2-.4.2-.4-.2-.6-.3-.1-.3-.4-.3-.7,4.7.5,9.3.5,14,.4.3.3.7.4.9,0ZM129.8,166.2s0,0,0,0h0c0-.1.1-.4-.2-.3,0,0,.1.2.2.2Z"/>
          <path class="cls-10" d="M128.4,164.8c0,.3,0,.5.3.7.4.2.3.2.2.6-.6,1.4-1.7,2-3.1,2.6-.9.4-1.9.9-2.3,2-.1.3-.3.6-.8.5-.7-.1-1.2.4-1.6.8-.4.4-.9.6-1.5.6,0,0-.2.2-.2.3-.1.7-.9.5-1.2.9-.7-.7-.6,0-.7.4-.3-.2,0-.6-.3-.8-.2,1.1-1.9,2.3-3.2,2-1.1-.2-1.7.7-2.7.7,0,0,0,0,0,0-.3,1.7-1.8,1-2.7,1.5-.3.2-.9.3-1.1-.4-.1-.4-.2-.1-.2,0,0,.5-.4.3-.6.2-1.2-.3-1.5,0-1.4,1.2,0,.1,0,.3,0,.7-.7-.8-1.5-.5-2.2-.7-.3,0-.3.1-.3.3-.1.3-.5.5-.8.4-1.9-.2-3.7,1-5.7.8-.5,0-.9-.1-1.3-.9,0,.6,0,.9,0,1.2,0,0,0,0-.1,0,0-.4,0-.8-.1-1.4-.3,1.9-.7,2.2-2.5,1.8-.7-.1-1.3-.2-2,0-.4.1-.8,0-1.2,0-.5-.1-1,0-1.4,0-1.8,0-3.8.7-5.5-.7-.7-.6-1,.2-1.4.5-.4-.2-.3-1-1-.8,0,0-.2-.2-.2-.1-.2,1-.9.5-1.4.6-.6.1-1-.1-1.2-.4-.7-.8-1.1-.6-1.4.3-.8-1.4-1.9-1.7-3.3-1,0,0-.2.2-.3.1-1.5-1-1.8,1.3-3,1.2-.1,0-.3.4-.4.6-.7-.4-.8-1.7-1.6-1.6-.6,0-1,1.1-1.9,1.1-.2,0-.5.6-1,.7-2.1-1.3-4-2.8-5.8-4.4-1.7-1.5-3.3-3-5-4.6-1.5-1.8-3.1-3.6-4.6-5.4-.2-.2-.4-.4-.4-.8,0-.3.6-.5.1-.8-1.2-.8-1.1-1.5,0-2.2.2-.1.2-.5.3-.7.2-.3.5-.9.9,0,.2.5.8.5,1.2,0,.1-.2.2-.6.5-.4.8.6,1.7.5,2.7.7.9.2,1.9.4,2.6,1.2.2.2.4.4.7.2.5-.5.9-.2,1.3.2.7.8,1.6.9,2.5.3.4-.3,1,0,1.2-.6,0,.8,1.4.7,1.2,1.7.2-.3.3-.6.4-.9.4-.9,1.2-1.2,2-1.1,1.6.2,1.7.2,2-1.5,0-.5.2-.4.6-.3,1.2.5,2.1,1.2,2.4,2.5,0,.1,0,.3,0,.5,1.2-.7.6.8,1.1.9,0,.2,0,.3,0,.5,0,0,0,0,0,0,0-.2,0-.3-.2-.4-.2-.9.5-1,1.1-1.1.7-.2,1.5-.3,1.9-1,0,0,0,0,0,0,0,.4.3.6.5.9,0,.2,0,.5.2.7.1.2.2.5.5.4.3,0,.2-.4.2-.6,0-.3,0-.6-.4-.7,0,0,0-.2,0-.2.7-.4,1.1,0,1.6.6.3.3.5.7,1.1.8,1.8.3,2.4.6,3.6,1.6,0,0,.5,0,.6,0,.7-.2.7-.2.8.5.2-.3,0-.8.5-1,.5.3.2.8.5,1.3,0-.3.1-.6.2-.9.3.7.3.7.8.2,0,0,0-.1.2,0,.9.5.9.4,2.1,0,.3,0,1,0,1.1,0,.4.6.7,1,1.6.4.5-.3,1.1.6,1.7,1,0,0,0,0,0,0,.9-.5,2.3.3,3-1,0,0,.3,0,.3,0,.3.5.5.2.8,0,.1-.2.3-.2.4,0,.5.8,1.4.4,2,.3,1.4-.1,2.8-.6,3.9-1.5.5-.4,1.3,0,1.5-.4.5-.9,1.3-.6,1.7-.3.5.4.3,0,.3-.1.3-1.1,1.7-.8,2.3-1.7,0,0,.3,0,.4,0,1.6.3,3-.3,3.6-1.9.2-.4.5-.5.7-.8.2,0,.3,0,.5.1.1.4.4.3.7.3,3.1.8,6.2,1.7,9.4,2.2,1.5.3,3.1.5,4.6.8ZM71.8,167.3c0,0,.1-.3-.2-.2,0,0,.1.2.2.2,0,.2,0,.3,0,.5,0,0,0,0,.1,0,0-.2,0-.3,0-.5,0,0,.3-.1,0-.3,0,0,0,.2,0,.3,0,0-.2,0-.2,0ZM105.1,177.4c0,0,0,.1-.1.2,0,0,0,.1,0,.2,0,0,0-.1,0-.2,0,0,0-.1,0-.2ZM108.5,176.5s0,0,0,0c0,0,0,0,0,0,0,0,0,0,.1,0,0,0,0,0,0,0Z"/>
          <path class="cls-2" d="M93,193.6c.1-.3.8,0,.6-.7-.1-.6.8-.9,1.3-.8,1.4.1,2.6-.5,3.9-.6,1,0,1.9-.1,2.9-.1.3,0,.6,0,.8-.2,1.4-1.1,3.4-.8,4.8-2,.2-.2.7,0,1,0,.8,0,1.7,0,2.3-.7.2-.2.5-.2.8-.1,1.3.3,2.4,0,3.4-.9.2-.2.5-.3.8-.3.2,0,.5,0,.6,0,.7-.9,1.8-.5,2.7-.9,1.2-.5,2.3-1.2,3.6-.9.6.1.4-.5.7-.6,1.2-.5,2.2-1.6,3.7-1.3,0,0,.2,0,.2,0,.2-1.2,1.1-.9,1.9-.9.8,0,1.4-.7,2.3-.5.5.1,1-.2,1.6-.5.7-.5,1.9-1.1,2.9-.6.7.3.9.1,1.2-.4.1-.3.4-.4.6-.5,1.1-.3,2.3-.5,3.4-1.2,1.3-.8,3.1-1,4.7-1,.7,0,1.3-.3,1.9-.5.8-.4,1.6-.6,2.5-.6.2,0,.4,0,.4,0,1.2-1.2,1.5.1,2.1.8-2.6,2.7-5.6,4.7-8.7,6.7-4.3,2.8-8.9,5-13.7,6.8-3.8,1.4-7.7,2.5-11.7,3.2-.2-.2-.3-.2-.5,0-2.7.3-5.4.7-8.1.9-3.2.2-6.4,0-9.6,0-.7,0-1.4,0-2-.2-.3-.4-.6-.2-.9-.2-.5,0-1.1,0-1.6,0-.3-.3-.6-.2-.9-.2-.5,0-1.1-.2-1.6,0,0,0,0,0,0,0h0s0,0,0,0v-.4Z"/>
          <path class="cls-2" d="M91.4,193.3c.3-.3.4,0,.5.2-.2,0-.4,0-.5-.2Z"/>
          <path class="cls-13" d="M93,194s0,0-.1,0c0,0,0,0,0-.1,0,0,0,0,0,0Z"/>
          <path class="cls-13" d="M159.9,27.5c0-.3.2-.5.5-.5,0,.3-.2.5-.5.5Z"/>
          <path class="cls-14" d="M158.6,29.6c0-.3.1-.5.3-.6,0,.3,0,.6-.3.6Z"/>
          <path class="cls-14" d="M158.2,30.2c0-.2,0-.3.2-.4,0,.2,0,.3-.2.4Z"/>
          <path class="cls-14" d="M158,30.7c0-.1.1-.2.2-.4,0,.2,0,.3-.2.4Z"/>
          <path class="cls-14" d="M157.8,30.9c0-.1,0-.2.2-.3,0,0-.1.2-.2.3Z"/>
          <path class="cls-4" d="M62.4,105.4c0,.3.1.6.2.9-.4.3,0,.4.2.5.6,2.5,1.4,4.9,2.2,7.3,1.6,4.7,4,9.1,6.5,13.5,0,0,0,.2,0,.3-.6,0-.3.7-.6,1-.3-.1,0-.6-.4-.7,0,.4,0,.7,0,1,0,.3,0,.7-.3.8-.4.1-.3-.5-.6-.5-.2.7.7,1.8-.7,2,0,0-.1.1-.1.2-.1,1-1.3,1.4-1.2,2.5-.6-.4-.3-.9-.6-1.3-.3,1.5-1.4,2.8-1.3,4.4-.3.2-.2.6-.2.9,0,.2,0,.3,0,.5-.3-.1-.3-.9-.7-.6-.7.5-.7-.3-1-.5-.4.7-.6,1.3-.6,2.1-.3-.5-1.2.2-1.3-.7,0-.4.3-1.3-.4-1.1-.5.1-1.5-.8-1.6.6,0,.4-.4.2-.6,0,0,0,.3-.1,0-.3,0,.1,0,.2,0,.3-.5,0-.6-.5-1.1-.5-.2,1.3-.8.6-1.3.3-.7-.5-1.2-.6-2.1-.2-.2,0-.1,0-.2-.2-.3-.4-.5-.1-.6.2-.2.7-.6.8-1.2.5-.5-.2-1,.5-1.6,0-.5-.5-1.1-.4-1.6-.3-.9.1-1.8.1-2.6.5-.8.4-2,.4-2.5,1.8,0-.6,0-.9-.6-.8-1.5.3-3,.3-4.5,0-.5,0-1,0-1.4.5-.6.5-.9,1.5-2,1.1-.3-.7-.3-1.6-.8-2.2,0-.3,0-.5,0-.8-.2-.8,0-1.7-.6-2.4,0-.3,0-.6,0-.8,0-.5,0-1-.3-1.4,0-.2,0-.3,0-.5,0-.3.2-.7-.2-.9,0-.2,0-.3,0-.5,0-.3,0-.5-.1-.7,0-.2,0-.3,0-.5,0,0,0-.1,0-.2,0-.2,0-.3,0-.5.1-.4,0-.8-.2-1.1,0-.8,0-1.6-.2-2.3,0-.6,0-1.2,0-1.8.3-.9.5-1.7-.1-2.5-.2-.4.1-1.1-.5-1.3,0,0,0,0,0,0,.3,0,.4-.2.5-.4.6-.8.4-1.7.1-2.6,0-1.5,0-3.1.5-4.6.3,0,.1.5.5.6.3-.7.2-2,1.7-1.5,0,0,.1,0,.2-.1.7-1.1,1.9-1,2.9-1.2,1.6-.4,3.4-.3,4.7-1.5.1-.1.2-.2.3,0,.4.6.6.1.9,0,.5-.3.9-.6,1.5-.7,1.4-.1,2.7-1,4.1-1.1,1.1,0,2.1-.7,3.3-.2.3.1.6,0,.9-.2,1.5-.5,2.9-1.7,4.6-1.5.3,0,.7-.2.9-.4.5-.8,1.2-.7,1.9-.5Z"/>
          <path class="cls-8" d="M62.4,105.4c-.7-.2-1.4-.3-1.9.5-.2.2-.6.5-.9.4-1.8-.2-3.1,1-4.6,1.5-.3,0-.6.3-.9.2-1.1-.6-2.2,0-3.3.2-1.5.1-2.7.9-4.1,1.1-.6,0-1.1.3-1.5.7-.3.2-.5.7-.9,0-.1-.2-.2-.1-.3,0-1.4,1.2-3.1,1.1-4.7,1.5-1,.2-2.2,0-2.9,1.2,0,0-.1.1-.2.1-1.5-.5-1.4.8-1.7,1.5-.4,0-.3-.5-.5-.6,0-.5,0-.9.1-1.4.2-.1.4-.2.1-.5,0-.6.1-1.2.3-1.8.3-.1.4-.2.1-.5,2.4-12.4,7.3-23.7,15.5-33.4,4.1-4.9,8.6-9.2,13.5-13.2.3-.2.5-.5.8-.5,0,1.8-.9,3.4-1.3,5.1-.8,3.3-1.5,6.7-1.9,10-.6,4.3-.8,8.6-.6,12.9,0,2.8.5,5.5.8,8.3.2,2.3.9,4.5,1.1,6.8Z"/>
          <path class="cls-12" d="M33.3,122.5c.6.8.4,1.7.1,2.5-.1,0-.2,0-.4-.1,0,0-.1-.1-.2-.2,0,0,0,0,0,0,.5-.6.5-1.2,0-1.9,0,0,0,0,0,0,.2-.1.4-.2.5-.4Z"/>
          <path class="cls-12" d="M33.4,118.3c.3.9.5,1.7-.1,2.6,0-.2,0-.3-.1-.5,0-.2,0-.5,0-.7-.1-.1-.2-.2-.3-.3,0,0,0,0,0,0,.3-.2.3-.3,0-.5,0,0,0,0,0,0,.2,0,.3-.2.3-.4.1,0,.3-.1.4-.2Z"/>
          <path class="cls-14" d="M85.4,49.7s0,0,0,0c-.3-.2-.7.1-1.1,0,.4-.4.5-1.2,1.3-.5,0,0,0,0,0,0,0,.2-.1.4-.2.6Z"/>
          <path class="cls-14" d="M33.3,122.5c-.2.1-.4.2-.5.4,0-.5,0-1.1,0-1.6.7.2.3.9.5,1.3Z"/>
          <path class="cls-14" d="M32.7,122.8c.5.6.5,1.2,0,1.9,0-.6,0-1.2,0-1.9Z"/>
          <path class="cls-14" d="M33.1,120.4c0,.2,0,.3.1.5-.1.2-.2.4-.5.4,0-.3-.1-.8.4-.8Z"/>
          <path class="cls-4" d="M34.2,111.9c.3.3,0,.4-.1.5-.1-.2-.1-.4.1-.5Z"/>
          <path class="cls-4" d="M34.6,109.6c.3.3.1.4-.1.5,0-.2,0-.4.1-.5Z"/>
          <path class="cls-14" d="M32.8,116.8c0,0,0-.1,0-.2,0,0,0-.1,0-.2,0,0,0,.1,0,.2,0,0,0,.1,0,.2Z"/>
          <path class="cls-14" d="M32.7,119.4c.1.1.2.2.3.3-.2,0-.3-.2-.3-.3Z"/>
          <path class="cls-14" d="M32.7,118.9c.3.2.3.3,0,.5,0-.2,0-.3,0-.5Z"/>
          <path class="cls-8" d="M65.6,61.5c0,.2-.1.2-.3.2,0,0,.2-.1.3-.2Z"/>
          <path class="cls-14" d="M33,118.5c0,.2,0,.3-.3.4,0-.1.2-.3.3-.4Z"/>
          <path class="cls-2" d="M85.4,49.7c0-.2.1-.4.2-.6.5,0,1-.4,1.5-.2-.5.4-1.1.6-1.7.7Z"/>
          <path class="cls-2" d="M88.6,48.4c-.2.3-.4.3-.7.3.2-.3.3-.7.7-.3Z"/>
          <path class="cls-12" d="M36.1,141.6c1.1.3,1.4-.7,2-1.1.5-.4.9-.5,1.4-.5,1.5.2,3,.2,4.5,0,.6-.1.6.2.6.8.4-1.4,1.6-1.4,2.5-1.8.8-.3,1.7-.3,2.6-.5.6,0,1.1-.2,1.6.3.5.5,1-.3,1.6,0,.6.2,1,.1,1.2-.5,0-.3.3-.6.6-.2,0,0,0,.2.2.2.9-.4,1.3-.3,2.1.2.5.3,1.1,1,1.3-.3.5,0,.6.6,1.1.5h0c.2.2.6.4.6,0,0-1.4,1.1-.5,1.6-.6.8-.2.4.7.4,1.1,0,.9.9.3,1.3.7,0-.8.3-1.5.6-2.1.3.2.3,1,1,.5.4-.3.4.5.7.6,0,0,.2,0,.2,0,0,0,0,.1,0,.2.3.3.4.7.2,1.1-.4.7-.3,1.3.3,1.8.4.3.5.7.4,1.3-.1.8-.2,2.2.2,2.5.9.6.3,1.3.5,1.8.3.9.1,2.1,1.1,2.7.6.4,1,.8,1.1,1.6,0,.3,0,1,.6,1,.6,0,.5.4.5.7,0,1.1,1.2.5,1.5,1.1.3-.1,0-.6.4-.7,0,.6,0,.6.2.6.5.1,1.2.2.8,1-.2.4.2.8,0,1.2,0,0,.2.3.3.3.2,0,.2-.1.2-.3,0-.2,0-.5.1-.5.9,1,1.7,2,2.6,3,0,0,.3-.2.3.2,0,.4,0,.8-.4,1.1-.5.4-.8.1-.9-.2-.4-1-1.6,0-2.1-.8,0,0-.3.1-.3.2.3.7-.8,1.3-.2,2.1.5,0,0-.8.6-.6.4.1.3.7.2.8-.3.8.3,1.3.5,1.9-.5.6-1.2.8-1.9,1-.6.1-1.2.2-1.1,1.1h0c-.5-.2,0-1.6-1.1-.9,0-.2,0-.3,0-.5-.3-1.3-1.3-2-2.4-2.5-.4-.2-.5-.2-.6.3-.3,1.7-.3,1.7-2,1.5-.8,0-1.6.2-2,1.1-.1.3-.2.6-.4.9.2-1-1.1-.9-1.2-1.7-.1.7-.8.3-1.2.6-.9.6-1.8.5-2.5-.3-.4-.4-.8-.6-1.3-.2-.3.2-.5,0-.7-.2-.7-.8-1.6-1-2.6-1.2-.9-.2-1.8-.1-2.7-.7-.2-.2-.3.3-.5.4-.4.4-.9.5-1.2,0-.4-.9-.6-.2-.9,0-.2.2-.2.6-.3.7-1.2.7-1.3,1.4,0,2.2.4.3-.2.5-.1.8-2.3-2.7-4.1-5.6-5.8-8.6-1.4-2.6-2.8-5.4-3.9-8.2,0,0-.1-.2-.2-.3,0-.1,0-.3,0-.4,0,0-.1-.2-.2-.3,0,0,0-.1,0-.2,0,0-.1-.2-.2-.3,0-.2,0-.4,0-.6,0,0-.1-.2-.2-.3,0,0,0-.1,0-.2,0,0-.1-.2-.2-.3,0-.1,0-.3,0-.4,0,0-.1-.2-.2-.3,0-.2,0-.4,0-.6,0-.3,0-.6-.4-.8,0-.2,0-.4,0-.6,0-.6-.1-1.1-.5-1.6,0-.2,0-.3,0-.5,0,0,0-.1.1-.2ZM62.5,140.4s0,0,0,0c0,0,0,0,.1,0,0,0,0,0,0,0,0,0,0,0,0,0Z"/>
          <path class="cls-2" d="M36.1,141.6c0,0,0,.1-.1.2-.6-.7-.7-1.5-.7-2.4.6.6.5,1.5.8,2.2Z"/>
          <path class="cls-2" d="M34.6,136.2c.6.7.4,1.6.6,2.4-.6-.7-.6-1.5-.6-2.4Z"/>
          <path class="cls-2" d="M33,124.9c.1,0,.2,0,.4.1,0,.6,0,1.2,0,1.8-.9-.5-.2-1.3-.4-1.9Z"/>
          <path class="cls-2" d="M36.1,142.3c.4.5.4,1,.5,1.6-.5-.4-.5-1-.5-1.6Z"/>
          <path class="cls-2" d="M34.3,134c.3.4.3.9.3,1.4-.4-.4-.7-.8-.3-1.4Z"/>
          <path class="cls-2" d="M33.6,129.2c.3.4.3.7.2,1.1-.6-.3-.4-.7-.2-1.1Z"/>
          <path class="cls-2" d="M34.1,132.6c.3.3.2.6.2.9-.5-.2-.4-.6-.2-.9Z"/>
          <path class="cls-2" d="M33.9,131.5c.2.2.2.4.1.7-.4-.2-.5-.4-.1-.7Z"/>
          <path class="cls-2" d="M36.7,144.5c.3.2.4.4.4.8-.3-.2-.4-.4-.4-.8Z"/>
          <path class="cls-2" d="M37.1,145.9c0,0,.1.2.2.3,0,0-.1-.2-.2-.3Z"/>
          <path class="cls-2" d="M37.3,146.6c0,0,.1.2.2.3,0,0-.1-.2-.2-.3Z"/>
          <path class="cls-2" d="M37.6,147.1c0,0,.1.2.2.3,0,0-.1-.2-.2-.3Z"/>
          <path class="cls-2" d="M37.8,148c0,0,.1.2.2.3,0,0-.1-.2-.2-.3Z"/>
          <path class="cls-2" d="M38,148.4c0,0,.1.2.2.3,0,0-.1-.2-.2-.3Z"/>
          <path class="cls-2" d="M38.3,149.1c0,0,.1.2.2.3,0,0-.1-.2-.2-.3Z"/>
          <path class="cls-2" d="M33.8,130.8c0,0,0,.1,0,.2,0,0,0,0,0-.2,0,0,0,0,0,0Z"/>
          <path class="cls-5" d="M183.3,123.2c.6-2.8,1.1-5.5,1.7-8.3.4.9-.1,1.8-.3,2.6-.3,1.6-.7,3.3-1,4.9,0,.3,0,.6-.4.8Z"/>
          <path class="cls-5" d="M187.2,100.9c.3-2.6.6-5.1,1.3-7.6.4.9,0,1.7-.2,2.5-.2,1.4-.6,2.8-.6,4.3,0,.4-.1.7-.5.8Z"/>
          <path class="cls-5" d="M178.1,138.4c1-2.6,2-5.2,2.9-7.8-.6,2.8-1.5,5.4-2.9,7.8Z"/>
          <path class="cls-5" d="M186.5,105.5c.1-1.2.2-2.5.6-3.7.2,1.3.1,2.5-.6,3.7Z"/>
          <path class="cls-5" d="M171.5,152.9c.3-.9.7-1.7,1.2-2.5,0,1-.5,1.8-1.2,2.5Z"/>
          <path class="cls-5" d="M188.6,92.8c0-.8.1-1.5.4-2.2.3.8.1,1.5-.4,2.2Z"/>
          <path class="cls-5" d="M182.6,125.7c.1-.7.2-1.4.6-2.1.2.8,0,1.5-.6,2.1Z"/>
          <path class="cls-5" d="M186.1,108.2c0-.6,0-1.3.3-1.8.4.7.2,1.3-.3,1.8Z"/>
          <path class="cls-5" d="M185.4,112.6c0-.6,0-1.1.3-1.6.4.6,0,1.1-.3,1.6Z"/>
          <path class="cls-5" d="M174.2,147.3c.2-.6.4-1.2.8-1.7-.1.6,0,1.4-.8,1.7Z"/>
          <path class="cls-5" d="M181.2,130.1c0-.6.2-1.1.6-1.6.2.7-.1,1.2-.6,1.6Z"/>
          <path class="cls-5" d="M176.8,141.6c.1-.6.3-1.2.7-1.8,0,.7-.1,1.3-.7,1.8Z"/>
          <path class="cls-5" d="M175.2,145.3c.1-.6.4-1.1.7-1.6.1.7,0,1.2-.7,1.6Z"/>
          <path class="cls-5" d="M185.1,114.4c0-.4,0-.8.2-1.1.2.4.4.9-.2,1.1Z"/>
          <path class="cls-5" d="M172.8,150.3c.1-.5.3-.9.6-1.3,0,.6-.1,1-.6,1.3Z"/>
          <path class="cls-5" d="M176.1,143.2c0-.4.2-.8.4-1.1.2.5,0,.9-.4,1.1Z"/>
          <path class="cls-5" d="M185.8,110.1c0-.4,0-.8.2-1.1,0,.4.3.8-.2,1.1Z"/>
          <path class="cls-5" d="M97.3,194.3c.3,0,.7-.2.9.2-.4.3-.7.3-.9-.2Z"/>
          <path class="cls-5" d="M94.8,194.1c.3,0,.7-.1.9.2-.4.3-.7.4-.9-.2Z"/>
          <path class="cls-5" d="M177.7,139.5c0-.2,0-.4.2-.5.3.3,0,.4-.2.5Z"/>
          <path class="cls-5" d="M173.8,148.3c.1-.2.2-.4.3-.6.1.3,0,.6-.3.6Z"/>
          <path class="cls-5" d="M181.9,128c0-.3,0-.5.2-.6.1.3.1.5-.2.6Z"/>
          <path class="cls-5" d="M170.3,154.9c0-.2.1-.5.3-.6,0,.3,0,.5-.3.6Z"/>
          <path class="cls-5" d="M118,193.8c.1-.2.3-.3.5,0-.1.2-.3.3-.5,0Z"/>
          <path class="cls-5" d="M182.3,126.6c0-.2,0-.3.2-.5.3.3.1.4-.2.5Z"/>
          <path class="cls-5" d="M169,157.2c0-.2,0-.4.3-.5,0,.2,0,.4-.3.5Z"/>
          <path class="cls-5" d="M168.3,158.3c0-.2.1-.4.3-.5,0,.2,0,.5-.3.5Z"/>
          <path class="cls-15" d="M177.2,90.1c-1.2,3.2-2.3,6.3-3.5,9.5-1.9,5.1-3.9,10.2-6.5,15-.8,1.5-1.5,3.1-2.6,4.4,0-.4.4-.7.2-1.2-.4.4-.9.6-1,1.1,0,.3-.3.5-.6.3-.8-.6-1.9-.7-2.5-1.6-.3-.5-.6-.6-1.1-.6-.8,0-2,0-2.1-.4-.5-1-1.3-.9-1.9-1.4-1.1-.7-2.1-1.5-3.3-2.1-1.4-.7-2.8-1.5-4.2-2.4-1.5-1-3.3-1.6-4.9-2.4-2.3-1.1-4.6-2.2-6.6-3.6-1.3-.9-2.7-1.2-4-2-1-.6-2.1-1-3.2-1.5-1.7-.7-3.1-1.8-4.7-2.6-.9-.5-1.7-1-2.7-1.3-.7-.2-1.7-.4-2-.9-1.2-1.9-3.5-2-5.1-3.1-1.7-1.1-3.7-2-5.7-2.7-1.3-.5-2-1.6-3.2-2.1-1.7-.7-3.3-1.4-5-2.3-1.1-.6-2.1-1.3-3.4-1.8-1.7-.7-3.2-1.7-4.7-2.6-.7-.4-1.8-.5-2-1.7,0,0,0,0,0,0,.2,0,.2-.2,0-.3.7-2,1.9-3.7,3.2-5.4,3.4-4.7,7.9-8.4,12.7-11.7,2.4-1.7,4.9-3.2,7.4-4.7.5-.3,1.1-.7,1.8-.7,0,0,0,.2.2,0,0,0,0,0-.1-.1,0-.4.4-.4.7-.4,0,.6.4.8.9,1,1.5.6,3.1,1.3,4,2.8,0,.1.3.2.5.2,2-.2,3.4,1.3,5,2.2,1,.5,2.3.7,3.2,1.6.5.5,1.3.5,2,.8.6.3,1.4.7,1.5,1.2.3,1.3,1,1.4,2.1,1.2.3,0,.8-.1,1,0,1,1,2.4,1.5,3.6,2.3,1.3.8,2.7,1.6,4.1,2.1,1.1.4,2,.9,2.9,1.4,1.1.7,2.4,1.2,3.3,2.3,0,.1.4.1.5.1.9-.2,1.9.2,2.3.6,1.5,1.4,3.8,1.4,5.1,3.1.2.2.5.3.7.2.4-.2.6.2.9.2,1.8.3,2.5,2.3,4.4,2.7,1.7.4,3.1,1.7,4.9,2.2.5.1,1.1.3,1.3.7.8,1.5,2.3,1.3,3.6,1.9,1.1.5,2.6.6,2.6,2.3,0,0,.3.1.4.2Z"/>
          <path class="cls-7" d="M90.6,80.3c.2,1.1,1.3,1.2,2,1.7,1.5.9,3.1,1.9,4.7,2.6,1.2.5,2.2,1.2,3.4,1.8,1.6.8,3.3,1.6,5,2.3,1.2.5,2,1.7,3.2,2.1,2,.7,4,1.6,5.7,2.7,1.7,1.1,3.9,1.2,5.1,3.1.3.5,1.3.7,2,.9,1,.3,1.8.8,2.7,1.3,1.6.8,3.1,1.9,4.7,2.6,1,.5,2.2.9,3.2,1.5,1.3.8,2.7,1.1,4,2,2.1,1.4,4.3,2.6,6.6,3.6,1.7.8,3.5,1.4,4.9,2.4,1.4.9,2.8,1.7,4.2,2.4,1.2.6,2.2,1.3,3.3,2.1.7.4,1.5.4,1.9,1.4.2.4,1.4.3,2.1.4.5,0,.8.1,1.1.6.6.9,1.7,1,2.5,1.6.3.2.5,0,.6-.3.1-.6.6-.8,1-1.1.2.5-.2.8-.2,1.2,0,.1,0,.2-.1.4-.2,0-.3.1-.3.3,0,.1-.1.3-.2.4-.3,0-.3.3-.3.5-.2.3-.4.5-.6.8-.2,0-.3.1-.3.3-2.8,3.9-5.6,7.7-9.4,10.6-.3.2-.6.5-1,.6.1-1.5-1.4-1.3-2-1.5-1.4-.5-2.7-1-3.7-2-.3-.3-.6-.2-1-.2-1.5-.1-2.7-1-3.5-2.1-.7-.9-1.2-1.3-2.3-1.2-.6,0-1.2,0-1.6-.6-.1-.3-.5-.5-.8-.4-.8,0-1.3-.4-1.9-.7-1.3-.6-1.9-1.9-3.6-2.1-1.3-.1-2.1-1.9-3.7-1.9-.2,0-.3-.3-.4-.5-.4-.8-.9-1.3-1.9-.8-.2.1-.5,0-.6-.2-.7-.8-2.2-.5-2.6-1.7,0,0-.2-.1-.3-.1-1.5-.1-2.7-.9-3.9-1.8-.7-.5-1.1-1.3-1.8-1.6-1-.3-2-.4-3-.9-.9-.5-1.9-.7-2.3-1.7,0-.2-.3-.4-.5-.3-1,.4-1.5-1-2.6-.8-.1,0-.9.3-1.2-.4-.2-.5-.7-1.7-1.7-.8,0,0-.2,0-.3-.1-1.4-1.8-3.7-2.4-5.6-3.5-.9-.5-1.6-1.2-2.8-1.5-1.1-.2-2.4-.7-2.9-1.8-.4-.9-1-1-1.9-1.1-.5,0-1.2.3-1.6-.4-.3-.7-.7-.8-1.4-.5-.3.1-.6,0-.9-.2-1.5-.4-1.9-1.5-1.7-2.9,0-.2,0-.5-.3-.5-.1-.2,0-.5,0-.7.5-.3.2-.8.2-1.3,0-.2,0-.3,0-.5,0-.2,0-.3,0-.5,0,0,0,0,0,0,.3-.3.6-.6.3-1.1,0-.3,0-.6.1-.9.2-.1.3-.2.1-.4,0-.2,0-.4.1-.5,0,0,0,0,0-.1.7-3,1.7-5.9,3-8.8.1-.3.3-.5.7-.6Z"/>
          <path class="cls-9" d="M86,95.8c.3,0,.3.3.3.5-.1,1.4.2,2.5,1.7,2.9.3,0,.6.3.9.2.6-.3,1.1-.1,1.4.5.3.7,1.1.3,1.6.4.9.1,1.5.3,1.9,1.1.6,1.2,1.9,1.6,2.9,1.8,1.1.2,1.9,1,2.8,1.5,1.9,1.1,4.1,1.7,5.6,3.5,0,0,.3.2.3.1,1.1-.9,1.5.3,1.7.8.3.7,1.1.4,1.2.4,1-.2,1.5,1.2,2.6.8.3-.1.4,0,.5.3.5,1,1.4,1.3,2.3,1.7,1,.5,2,.6,3,.9.7.3,1.1,1.1,1.8,1.6,1.2.9,2.4,1.7,3.9,1.8.1,0,.3,0,.3.1.5,1.2,1.9.9,2.6,1.7.2.2.4.3.6.2,1-.5,1.5,0,1.9.8.1.2.3.5.4.5,1.6,0,2.4,1.8,3.7,1.9,1.7.1,2.4,1.5,3.6,2.1.6.3,1.1.8,1.9.7.3,0,.6.1.8.4.3.7,1,.6,1.6.6,1,0,1.6.3,2.3,1.2.8,1.1,2,1.9,3.5,2.1.3,0,.7,0,1,.2,1.1,1,2.3,1.5,3.7,2,.6.2,2.2,0,2,1.5-2.4,2-5.1,3.4-7.9,4.7-5,2.4-10.2,3.4-15.6,3.5-12.5.3-22.9-4.5-31.6-13.3-2-2-3.7-4.2-5.1-6.6,0,0-.1-.2-.2-.3,0,0,0,0,0,0,0-.5-.1-.9-.6-1.1,0,0,0-.1-.1-.2,0-.3-.1-.5-.4-.7,0-.2-.2-.3-.3-.5,0-.3,0-.5-.3-.6-.1-.3-.3-.5-.4-.8,0-.1-.1-.3-.2-.4,0,0,0,0,0,0,0,0,0-.1,0-.2,0-.1,0-.2,0-.3,0-.2,0-.3-.2-.3,0-.1-.1-.2-.2-.3,0-.1-.1-.3-.2-.4,0,0,0,0,0,0,0-.2,0-.5-.2-.6,0,0,0,0,0,0,0-.1-.1-.3-.2-.4,0,0,0-.2,0-.3,0-.3,0-.7-.3-.9,0-.1,0-.2,0-.4,0-.7-.2-1.4-.6-1.9,0-.2,0-.4,0-.6,0-.8,0-1.7-.6-2.4,0-.3,0-.5,0-.8.2-.6,0-1.2-.4-1.7,0,0,0,0,0,0,0,0,0-.2,0-.3,0-.2,0-.4,0-.6,0-.5.3-1.1-.2-1.5-.2-.5,0-1,0-1.5.1-1.4.1-2.9,0-4.3,0-.3,0-.5,0-.8Z"/>
          <path class="cls-9" d="M138.7,46.3c0,.1,0,.3.2.4,1.2.7,2.6,1.2,3.4,2.4,1.5-.4,2,1.6,3,1.5,1,0,1.2.6,1.9.8,1,.3,1.7,1.2,2.8,1.3.7,0,.4.7.7,1.1,0-.3,0-.5.2-1,0,.5.1.8.2,1,0-.1,0-.2,0-.3.5.2,1,.3,1.4.6,1,.6,2.1,1.1,2.7,2.2,0,0,.1,0,.2,0,.7-.2,1.2.3,1.7.7,1,.7,2.3.8,3,1.8,0,.1.1.1.2,0,.8-.9,1.6.2,1.8.4.7.9,1.7,1.1,2.6,1.6,1.1.6,2.6,1.1,3.4,1.8.8.8,2.4.1,2.6,1.6,0,.1.1.1.2,0,.7-1.2.9.2,1.4.2.8,0,1.3,1.1,1.7,1.1.9,0,1.3.5,1.9.7.7.2,1,.6,1.3,1.1.5.7,1,1.4,2.1,1.3.4,0,.8.6,1.4.6.9,0,1.4,1.1,2.4.8.6,1.1,2.1,1.1,2.9,2.1.3.4.6.9,1.2.8-2,2.4-3.7,5-5.4,7.7-.5.8-.9,1.8-1.4,2.6-.1,0-.3,0-.3-.1,0-1.1-.6-1-1.4-1.2-.3,0-1,0-1.1-.7,0-.4-.4-.3-.6-.2-.9.1-1.3-.3-1.4-1.1-.4.2-.4.6-.9.6.3-1.2-.7-1.1-1.4-1.4-.4-.2-.7.2-1.1-.2-.9-.7-1.9-1.3-2.6-2.2-.3-.3-.7-.6-1.1-.6-1.4.2-2.4-.5-3.2-1.4-.2-.3-.3-.4-.8-.2-.7.4-2.5-.2-2.7-.8-.4-.9-1.1-1.2-1.9-1.4-1.7-.5-3.1-1.6-4.6-2.5-.8-.5-1.4-1.4-2.3-1.7-.9-.3-1.6-1-2.7-1.1-.7,0-1.7-.3-2.2-.9-.5-.5-.9-.6-1.5-.8-.3,0-.6,0-.7-.2-.6-1-1.7-1.3-2.6-1.5-2-.5-3.4-2.2-5.4-2.7-.2,0-.4-.3-.5-.6-.2-.6-.4-1.5-1.4-.7,0,0-.3,0-.3,0-.5-.7-1.6-.4-2-1.3-.2-.5-.8-.9-1.3-1.1-1.5-.5-2.8-1.4-4-2.3-.6-.4-1.7-.3-1.6-1.4-.5.4-.6,1-.8,1.7-.1-.5-.1-.7-.2-1.1,0,.3-.1.5-.2.6-.4-.8-1.9,0-2-1.2.1,0,.3-.1.4-.2.1,0,.2-.1.3-.2.1,0,.2,0,.3,0,.2,0,.3,0,.3-.2.2,0,.4-.2.6-.2.1,0,.2-.1.3-.2.2,0,.4-.2.6-.3.1,0,.2-.1.3-.2,0,0,0,0,0,0,.2,0,.3,0,.4-.2.3-.1.5-.2.8-.3.1,0,.2-.1.4-.2,0,0,0,0,.1,0,.1,0,.2-.1.3-.2,2.8-1.4,5.6-2.8,8.5-4.2,0,.2,0,.4.3.4,0,0,0,0,0,0,0-.3-.2-.2-.4-.3.4-.4.9-.6,1.4-.7Z"/>
          <path class="cls-7" d="M65.8,138.8c0,0-.2,0-.2,0,0-.2,0-.3,0-.5.2,0,.3-.1.5-.2,0,0,0,.2.1.3,0-.2,0-.3,0-.5.1-.4-.3-.3-.5-.4,0-1.6.9-2.9,1.3-4.4.2.4,0,.9.6,1.3,0-1.1,1.1-1.5,1.2-2.5,0,0,0-.2.1-.2,1.4-.2.6-1.3.7-2,.3,0,.2.7.6.5.3-.1.3-.5.3-.8,0-.3,0-.7,0-1,.4,0,0,.5.4.7.2-.3,0-.9.6-1,2.4,3.8,5,7.4,8,10.7,3.9,4.4,8.2,8.4,12.9,11.8,3.5,2.5,7.1,4.7,11,6.6.2.1.4.3.6.4-.7-.3-1.2.8-1.9.3-.3.6-.7.9-1.4.9-.8,0-1.4.9-2,1.1-1.1.3-2.1.5-3.2.7-.5,0-.7,0-.9-.4-.5-1-1.2-.9-1.9-.3-.4.3-.7.3-.9,0-.2-.4-.6-.3-.9-.4-.3-.1-.7.1-.9-.1-.3-.4-.6-.5-1.2-.5-.4,0-1.2.4-1.5-.5-.3.1-.7,0-.8.5-.1-.5-.3-.9-.3-1-1.4,0-2.5-.4-2.9-1.8-.2.2,0,.5-.2.7-.5-1.3-.9-.3-1.4,0-.5-.5-1.1-1-1.3-1.8-.4.3-.8,1.4-1.2,0-1.3,0-1.4-1.3-2.1-1.9-.2-.1-.3-.5-.5-.1-.5.8-.8.3-1.1,0-.5-.6-1.2-.3-1.7-.5-.3,0,0,.7-.2,1.1,0,0,0,0-.2,0,0-.4,0-.8,0-1.3-.3.6,0,1.2-.6,1.5-.3.1-.1.6-.4.7-.3-.6-1.5,0-1.5-1.1,0-.3,0-.6-.5-.7-.5,0-.5-.7-.6-1,0-.8-.5-1.2-1.1-1.6-1-.6-.8-1.8-1.1-2.7-.2-.6.3-1.2-.5-1.8-.5-.3-.4-1.6-.2-2.5,0-.6,0-1-.4-1.3-.7-.5-.7-1.1-.3-1.8.2-.4,0-.8-.2-1.1.2,0,.1-.2,0-.2ZM78,153.3s0,0,0,0c0,0,0,0,0,0,0,0,0,0,0,0,0,0,0,0,0,0Z"/>
          <path class="cls-7" d="M123.5,53.7c.2,1.2,1.6.4,2,1.2,0-.1,0-.3.2-.6,0,.4.1.6.2,1.1.1-.8.2-1.3.8-1.7,0,1.2,1.1,1.1,1.6,1.4,1.2.9,2.5,1.8,4,2.3.5.2,1.1.6,1.3,1.1.4.9,1.5.6,2,1.3,0,0,.3,0,.3,0,1-.7,1.1,0,1.4.7.1.3.3.5.5.6,2,.5,3.4,2.2,5.4,2.7.9.2,2,.5,2.6,1.5,0,.2.5.1.7.2.6.2,1,.3,1.5.8.5.6,1.5.9,2.2.9,1.1,0,1.8.8,2.7,1.1.8.3,1.4,1.3,2.3,1.7,1.5.9,2.9,2,4.6,2.5.8.2,1.5.5,1.9,1.4.2.6,2,1.1,2.7.8.4-.2.5-.1.8.2.8,1,1.8,1.6,3.2,1.4.3,0,.8.3,1.1.6.8.9,1.8,1.4,2.6,2.2.4.3.7,0,1.1.2.7.3,1.7.2,1.4,1.4.5,0,.6-.5.9-.6.1.8.6,1.2,1.4,1.1.2,0,.6-.2.6.2,0,.6.7.6,1.1.7.7.1,1.5.1,1.4,1.2,0,0,.2,0,.3.1-.6,1.3-1.2,2.6-1.8,3.9-.5,0-.5.4-.4.8,0,0,0,0,0,.1-.2,0-.2.2-.2.4,0,.1,0,.2,0,.3-.5,0-.5.4-.4.8,0,0,0,0,0,.1-.2,0-.2.2-.2.4,0,0,0,0,0,.1-.1,0-.4-.1-.4-.2,0-1.7-1.5-1.9-2.6-2.3-1.2-.5-2.8-.4-3.6-1.9-.2-.4-.8-.5-1.3-.7-1.7-.5-3.2-1.8-4.9-2.2-1.8-.5-2.6-2.4-4.4-2.7-.3,0-.5-.4-.9-.2-.2.1-.6,0-.7-.2-1.3-1.7-3.6-1.7-5.1-3.1-.4-.4-1.4-.8-2.3-.6-.2,0-.5,0-.5-.1-.9-1.1-2.1-1.6-3.3-2.3-.9-.6-1.9-1-2.9-1.4-1.4-.5-2.8-1.3-4.1-2.1-1.2-.7-2.6-1.2-3.6-2.3-.2-.2-.7-.1-1,0-1.1.2-1.8.1-2.1-1.2-.1-.5-.9-.9-1.5-1.2-.6-.3-1.5-.4-2-.8-.9-.9-2.1-1.1-3.2-1.6-1.6-.8-2.9-2.3-5-2.2-.2,0-.4,0-.5-.2-1-1.5-2.5-2.1-4-2.8-.5-.2-.9-.4-.9-1,0,0,0,0,.1,0,.2,0,.3,0,.4-.2,0,0,0,0,.1,0,.4.1.7,0,.8-.4,0,0,0,0,.1,0,.2,0,.3,0,.3-.2,0,0,0,0,0,0,.2,0,.4,0,.5-.2,1.2-.6,2.5-1.3,3.8-1.6,0,0,.2.1.3.2,0,0,0,0,0-.1-.1,0-.2,0-.3-.1.2-.3.6-.5,1-.5Z"/>
          <path class="cls-9" d="M72.8,154c.7-.3.3-1,.6-1.5,0,.5,0,.9,0,1.3,0,0,.2,0,.2,0,.1-.4-.1-1.2.2-1.1.6.1,1.3-.2,1.7.5.3.4.6.9,1.1,0,.2-.3.3,0,.5.1.7.6.8,1.9,2.1,1.9.3,1.4.7.3,1.2,0,.2.8.8,1.2,1.3,1.8.4-.3.8-1.4,1.4,0,.3-.1,0-.5.2-.7.4,1.4,1.5,1.8,2.9,1.8,0,.1.2.5.3,1,.1-.5.5-.4.8-.5.3.8,1.1.5,1.5.5.6,0,.9,0,1.2.5.2.3.6,0,.9.1.3.1.7,0,.9.4.2.4.5.4.9,0,.7-.6,1.4-.7,1.9.3.2.4.5.4.9.4,1.1-.1,2.2-.4,3.2-.7.7-.2,1.2-1,2-1.1.6,0,1.1-.3,1.4-.9.7.5,1.2-.5,1.9-.3.1,0,.3.1.4.2,0,0,.1,0,.2,0,2.8,1.3,5.7,2.4,8.5,3.5-.2.3-.6.3-.7.8-.6,1.6-2,2.2-3.6,1.9-.1,0-.4,0-.4,0-.6.8-1.9.6-2.3,1.7,0,0,.1.5-.3.1-.4-.3-1.2-.6-1.7.3-.2.4-1,0-1.5.4-1.1.9-2.5,1.3-3.9,1.5-.6,0-1.4.5-2-.3-.2-.3-.3-.2-.4,0-.2.3-.5.6-.8,0,0,0-.3,0-.3,0-.7,1.3-2.1.5-3,1,0,0,0,0,0,0-.6-.4-1.2-1.3-1.7-1-.9.7-1.1.3-1.6-.4,0,0-.8,0-1.1,0-1.2.4-1.2.5-2.1,0-.1,0-.1,0-.2,0-.5.5-.5.5-.8-.2,0,.3-.1.6-.2.9-.2-.5,0-1-.5-1.3-.4.2-.2.7-.5,1-.2-.8-.1-.7-.8-.5-.1,0-.5,0-.6,0-1.2-1-1.8-1.3-3.6-1.6-.5,0-.8-.5-1.1-.8-.5-.5-.9-.9-1.6-.6-.3-.2-.6-.3-.9-.5,0,0,0,0,0,0-.2-.6-.9-1.1-.5-1.9,0,0,.2-.6-.2-.8-.5-.2-.2.6-.6.6-.6-.7.5-1.4.2-2.1,0,0,.3-.2.3-.2.5.8,1.7-.2,2.1.8.1.3.5.5.9.2.4-.3.5-.7.4-1.1,0-.4-.3-.1-.3-.2-.9-1-1.7-2-2.6-3-.2,0-.2.3-.1.5,0,.2,0,.3-.2.3-.1,0-.3-.2-.3-.3.2-.4-.2-.8,0-1.2.4-.8-.3-.8-.8-1-.2,0-.2,0-.2-.6Z"/>
          <path class="cls-15" d="M86,96.6c.1,1.4.1,2.9,0,4.3-.4-1.4-.5-2.9,0-4.3Z"/>
          <path class="cls-15" d="M86.7,107.3c.6.7.5,1.6.6,2.4-.5-.7-.7-1.5-.6-2.4Z"/>
          <path class="cls-15" d="M87.4,110.3c.4.6.6,1.2.6,1.9-.4-.6-.6-1.2-.6-1.9Z"/>
          <path class="cls-15" d="M86,102.4c.5.4.3,1,.2,1.5-.5-.4-.4-1-.2-1.5Z"/>
          <path class="cls-15" d="M86.3,104.8c.4.5.6,1.1.4,1.7-.5-.5-.4-1.1-.4-1.7Z"/>
          <path class="cls-15" d="M86.2,93.8c0,.4.3.9-.2,1.3-.2-.5-.2-.9.2-1.3Z"/>
          <path class="cls-15" d="M86.6,91.7c.4.5,0,.8-.3,1.1,0-.4-.1-.8.3-1.1Z"/>
          <path class="cls-15" d="M91.2,119.7c.5.2.6.6.6,1.1-.3-.3-.6-.6-.6-1.1Z"/>
          <path class="cls-10" d="M143.4,165.2c-.3.5-.6.4-.9,0,.3-.2.6-.2.9,0Z"/>
          <path class="cls-15" d="M88.1,112.6c.4.2.3.6.3.9-.2-.2-.5-.5-.3-.9Z"/>
          <path class="cls-10" d="M148,164.7c-.2.4-.4.4-.7.1.2-.2.4-.2.7-.1Z"/>
          <path class="cls-15" d="M177.4,89.5c0-.4-.1-.7.4-.8,0,.3-.2.6-.4.8Z"/>
          <path class="cls-15" d="M178.1,87.9c0-.4-.1-.7.4-.8,0,.3-.2.6-.4.8Z"/>
          <path class="cls-15" d="M117.8,56.2c-.1.4-.4.5-.8.4.2-.3.5-.4.8-.4Z"/>
          <path class="cls-15" d="M90.7,118.8c.3.1.4.4.4.7-.3-.1-.4-.4-.4-.7Z"/>
          <path class="cls-9" d="M114.4,161.8c-.3,0-.6.1-.7-.3.3,0,.5.1.7.3Z"/>
          <path class="cls-10" d="M145.7,165c-.1.3-.3.4-.5,0,.1-.1.3-.2.5,0Z"/>
          <path class="cls-15" d="M86.8,90.3c.2.2.1.3-.1.4,0-.2-.1-.3.1-.4Z"/>
          <path class="cls-8" d="M62.8,106.9c-.3,0-.6-.1-.2-.5.2.1.2.3.2.5Z"/>
          <path class="cls-15" d="M90.2,117.7c.3.1.3.4.3.6-.2-.1-.3-.4-.3-.6Z"/>
          <path class="cls-15" d="M88.7,114.2c.2.2.2.4.2.6-.3-.1-.2-.4-.2-.6Z"/>
          <path class="cls-15" d="M163.5,120.5c0-.2,0-.5.3-.5,0,.2,0,.5-.3.5Z"/>
          <path class="cls-15" d="M162.7,121.7c0-.2.1-.3.3-.3,0,.2-.1.3-.3.3Z"/>
          <path class="cls-7" d="M127.2,51.9c0,.2-.3.2-.4.2,0-.2.3-.2.4-.2Z"/>
          <path class="cls-15" d="M88.4,113.7c0,.1.1.3.2.4-.2,0-.2-.2-.2-.4Z"/>
          <path class="cls-15" d="M86.3,92.8c0,.2,0,.3,0,.5-.1-.2-.2-.3,0-.5Z"/>
          <path class="cls-15" d="M88.9,114.9c0,.1.1.3.2.4-.2,0-.2-.2-.2-.4Z"/>
          <path class="cls-15" d="M118.7,55.8c-.1.2-.3.2-.5.2.1-.2.3-.2.5-.2Z"/>
          <path class="cls-15" d="M164.1,119.6c0-.2.1-.3.3-.3,0,.2-.2.3-.3.3Z"/>
          <path class="cls-15" d="M89.6,116.5c0,.1.1.3.2.4-.2,0-.2-.2-.2-.4Z"/>
          <path class="cls-15" d="M91.9,120.9c0,0,.1.2.2.3,0,0-.1-.2-.2-.3Z"/>
          <path class="cls-7" d="M104.7,157.9c0,0-.1,0-.2,0,0,0,.1,0,.2,0Z"/>
          <path class="cls-11" d="M150.9,38.7c0,.2-.1.3-.3.2,0-.2.1-.2.3-.2Z"/>
          <path class="cls-15" d="M89.5,116.3c0,0,0,.1,0,.2,0,0,0,0-.1-.1,0,0,0,0,0,0Z"/>
          <path class="cls-15" d="M89.2,115.6c.2,0,.2.2.2.3,0-.1-.1-.2-.2-.3Z"/>
          <path class="cls-15" d="M86.3,104.5c0,0,0,.2,0,.3,0,0,0-.1,0-.2,0,0,0,0,0,0Z"/>
          <path class="cls-15" d="M177.2,89.9c0-.2,0-.3.2-.4,0,.1-.2.2-.2.4Z"/>
          <path class="cls-15" d="M87,89.6c0,0,0,.1,0,.1,0,0,0,0,0,0h0Z"/>
          <path class="cls-15" d="M177.9,88.3c0-.2,0-.3.2-.4,0,.1-.1.2-.2.4Z"/>
          <path class="cls-9" d="M141.7,44.6c0,0-.2.1-.3.2,0-.1.1-.2.3-.2Z"/>
          <path class="cls-9" d="M141.3,44.8c0,0-.2,0-.3.1,0-.1.1-.2.3-.1Z"/>
          <path class="cls-7" d="M90.6,79.9c.2.1.1.2,0,.3,0-.1,0-.2,0-.3Z"/>
          <path class="cls-9" d="M140.1,45.5c-.1,0-.2.1-.3.2.1,0,.2-.1.3-.2Z"/>
          <path class="cls-9" d="M139.7,45.7c0,0-.2.1-.3.2,0,0,.2-.1.3-.2Z"/>
          <path class="cls-9" d="M139.2,45.9c0,0-.2.1-.3.2,0-.1.1-.2.3-.2Z"/>
          <path class="cls-15" d="M116.9,56.6c0,.2-.2.2-.4.2.1,0,.2-.2.4-.2Z"/>
          <path class="cls-15" d="M118.3,56c0,.2-.2.2-.3.2.1,0,.2-.1.3-.2Z"/>
          <path class="cls-7" d="M124.3,53.3c-.1,0-.2.1-.3.2.1,0,.2-.1.3-.2Z"/>
          <path class="cls-7" d="M124.9,53c0,.2-.2.2-.3.2.1,0,.2-.1.3-.2Z"/>
          <path class="cls-7" d="M125.9,52.6c-.1,0-.2.1-.3.2.1,0,.2-.1.3-.2Z"/>
          <path class="cls-7" d="M126.8,52.1c-.1,0-.2.1-.3.2.1,0,.2-.1.3-.2Z"/>
          <path class="cls-7" d="M128.4,51.4c-.1,0-.2.1-.4.2.1,0,.2-.1.4-.2Z"/>
          <path class="cls-7" d="M128.9,51.2c-.1,0-.2.1-.3.2.1,0,.2-.1.3-.2Z"/>
          <path class="cls-10" d="M129.8,166.2c0,0-.1-.2-.2-.2.3,0,.1.2.2.2h0Z"/>
          <path class="cls-10" d="M129.8,166.2h0s0,0,0,0c0,0,0,0,0,0Z"/>
          <path class="cls-9" d="M75.5,165.5c-.3-.2-.2-.4-.2-.7.2,0,.4,0,.5-.2.4,0,.5.3.4.7-.2,0-.5,0-.7.2Z"/>
          <path class="cls-12" d="M75.7,164.6c0,.2-.3.2-.5.2-.1-.3-.5-.5-.5-.9.3.2.6.3.9.5,0,0,0,.2,0,.2Z"/>
          <path class="cls-12" d="M75.5,165.5c.2-.3.4-.2.7-.2,0,.2,0,.5-.2.6-.3,0-.4-.2-.5-.4Z"/>
          <path class="cls-6" d="M105.1,177.4c0,0,0,.1,0,.2,0,0,0,.1,0,.2,0,0,0-.1,0-.2,0,0,0-.1.1-.2Z"/>
          <path class="cls-12" d="M72,167.3c0,.2,0,.3,0,.5,0,0,0,0-.1,0,0-.2,0-.3,0-.5h0c0,0,.2,0,.2,0h0Z"/>
          <path class="cls-12" d="M71.8,166c.2.1.2.2.2.4,0,0,0,0,0,0,0-.2,0-.3,0-.5,0,0,0,0,0,0Z"/>
          <path class="cls-6" d="M108.5,176.5s0,0,0,0c0,0,0,0-.1,0,0,0,0,0,0,0,0,0,0,0,0,0Z"/>
          <path class="cls-12" d="M72,167.3c0,0,0-.2,0-.3.2.2,0,.2,0,.3,0,0,0,0,0,0Z"/>
          <path class="cls-12" d="M71.8,167.3c0,0-.1-.2-.2-.2.3,0,.1.2.2.2,0,0,0,0,0,0Z"/>
          <path class="cls-12" d="M66.1,138.1c-.2,0-.3.1-.5.2,0-.3-.1-.7.2-.9.1.2.6,0,.5.4,0,0-.2.2-.2.2Z"/>
          <path class="cls-12" d="M59.4,138.6c0-.1,0-.2,0-.3.2.2,0,.2,0,.3,0,0,0,0,0,0Z"/>
          <path class="cls-4" d="M62.5,140.4s0,0,0,0c0,0,0,0,0,0,0,0,0,0-.1,0,0,0,0,0,0,0Z"/>
          <path class="cls-4" d="M65.8,138.8c.2,0,.2.1,0,.2,0,0,0-.1,0-.2Z"/>
          <path class="cls-7" d="M115.7,57.3s.1.1.1.1c-.1.1-.1,0-.2,0,0,0,0,0,0,0Z"/>
          <path class="cls-11" d="M137.3,47c.1,0,.4,0,.4.3,0,0,0,0,0,0-.3,0-.2-.2-.3-.4,0,0,0,0,0,0h0Z"/>
          <path class="cls-4" d="M66.1,138.1c0,0,.2-.2.2-.2,0,.2,0,.3,0,.5,0,0,0-.2-.1-.3Z"/>
          <path class="cls-9" d="M78,153.3s0,0,0,0c0,0,0,0,0,0,0,0,0,0,0,0,0,0,0,0,0,0Z"/>
          <path class="cls-9" d="M122.6,54.1c.1,0,.2,0,.3.1,0,0,0,.1,0,.1,0,0-.2-.1-.3-.2,0,0,0,0,0,0Z"/>
        </g>
      </g>
    </g>
  </g>
</svg>