<?xml version="1.0" encoding="UTF-8"?>
<svg xmlns="http://www.w3.org/2000/svg" version="1.1" viewBox="0 0 240 213">
  <defs>
    <style>
      .cls-1 {
        fill: #fff;
      }
    </style>
  </defs>
  <!-- Generator: Adobe Illustrator 28.6.0, SVG Export Plug-In . SVG Version: 1.2.0 Build 709)  -->
  <g>
    <g id="Layer_1">
      <g id="yeql4I.tif">
        <g>
          <path class="cls-1" d="M156.9,169.4c.1-.7-.3-1.1-.9-1.1-7.5-.7-16.7-4.1-23.1-8.6-11.3-7.9-18.6-18.6-22.5-31.7-.3-1.2-1.3-2-1.3-3.5,0-3.4-.2-3.5,3.1-3.5,7.2,0,14.4,0,21.5,0,2.8,0,3.1.5,3.8,3.4,2.8,11.2,7.1,21.6,16.4,29.2,3.9,3.2,11.9,6.5,17.1,6.6,2.4,0,4.4,1.5,6.9,1.2,5-.6,10.2-.8,14.8-2.7,5.3-2.2,10.1-5.2,14.3-9.3,7.2-6.9,11.2-15.4,14.3-24.5.4-1,1.3-1.7,1.3-2.9,0-1.5,1.2-1,2-1.1,1.4-.1,1.4.8,1.3,1.8-.3,3.4-1.8,6.4-2.9,9.5-1,2.8-2.2,5.5-3.6,8.1-1.4,2.6-3,5.2-4.8,7.6-5,6.3-10.6,12.1-17.9,15.8-4.6,2.3-9.3,4.3-14.5,4.7-.2,0-.3.6-.4.9h-24.9Z"/>
          <path class="cls-1" d="M.5,100.9c1.5-1.3,3.3-1.2,5.1-1.1,1.4,0,2.9,1.4,2.5,1.9-.8.9-1.6,2.3-3.1.8-.5-.5-.9-.4-1.1.1-.1.5-.2,1.2.4,1.4.5.2,1.1.1,1.6.1.9,0,1.4.3,1.3,1.3,0,1.1-.8,1-1.6,1-.6,0-1.6-.3-1.6.7,0,.6.9.4,1.4.4.4,0,.7,0,1.1,0s.8-.1,1.1,0c.6.2.8.7.6,1.3,0,.3-.4.9-.5.8-2.5,0-5.1.7-7.4-1.1v-7.9Z"/>
          <path class="cls-1" d="M109.4,85.3c1.3-3.2,2.4-7.4,4.6-10.8,3.8-5.9,7.6-11.9,13.1-16.6,4.9-4.2,16.5-10.2,23.8-12.4,9.2-2.7,18.3-1.5,27.5-2,4,1.5,8.2,1.8,12.3,3.2,10.8,3.6,18.1,11.3,25.4,19,3.4,3.5,5,8.4,7.3,12.7.7,1.3-.5.7-.8,1.1-1.7,2.2-4.8,0-6.5,2.2-4.9,1.3-10,2.1-14.6,4.4-1.5.7-3.8-1.2-3.6-3.4.2-3.7-1.2-6.9-2.3-10.3-2.9-8.8-6.6-15.2-13.5-20.2-5.1-3.7-11.7-6-17.6-3.2-6.2,0-10.2,4.4-15.1,7.1-.8,3.4-4.6,4.5-5.7,7.8-1,2.9-2.8,5.6-3.6,8.6-.9,3.8-2.7,7.4-2.4,11.4,0,.9-.2,1.7-.7,2.5-.7,1.1-.8,2-2.6,2-7.6-.1-15.1,0-22.7,0-2.4,0-2.6-.2-2.3-3.2Z"/>
          <path class="cls-1" d="M55.7,167.2H21.2c-1.1,0-2.3,0-3.4,0-1.7-.2-2.8-1.8-2.5-3.5.1-.9,1.2-1.2,1.2-2.3-.1-11.3,1.9-22.5,1.1-33.8,0-.2,0-.4,0-.6-.8-1.8-2.2-4-.7-5.4,1.1-1,3.6-.4,5.4-.4,6.2,0,12.5,0,18.7,0,3.1,0,3.8.7,3.8,3.9,0,11.8,0,23.6,0,35.4,0,1.5.2,2.3,2.1,2.3,5.5-.1,11.1.7,16.4-.2,6.5-1.1,13.4-.1,19.6-3.2,6,0,11.4-2.1,16.9-4.4,1.3-.5,2.3.3,1.8,1.7-1.3,3.2-2.6,6.4-4.8,9.3-1.1,1.5-2.5,1.3-4,1.3-10,0-20,0-30,0h-6.8Z"/>
          <path class="cls-1" d="M57.1,47h36.8c1.1,0,2.3-.1,3.4,0,.9.2,1,1.1.6,1.7-2.7,3.7-6,7.1-8,11.3-.4.8-1.2.6-1.9,0-5.7-4.5-12.5-6.2-19.5-7.6-3.8-.8-7.7-.3-11.4-1.2-3.5-.8-6.9-.8-10.3-1-1.9-.1-2.1.8-2,2.3,0,10.8,0,21.7,0,32.5,0,3.4,0,3.4-3.1,3.4-7,0-14,0-20.9,0-3.1,0-3.1,0-3.1-3.4,0-4.3-.3-8.6,0-12.9.6-6.9-1.9-13.5-1.2-20.3,0-.5-.2-1-.4-1.5-1.2-3.4-1.1-3.5,2.6-3.5,12.8,0,25.7,0,38.5,0Z"/>
          <path class="cls-1" d="M161.5,104.9c-.2,1.2.5,2.6-.4,3.7-.3.4-.8,1.1-1.2,1.1-.5,0-.7-.6-.7-1.2,0-.6,0-1.1,0-1.7,0-.6,0-1.3-.5-1.4-.5,0-.5.8-.7,1.3-.3.6-.8,1.2-1.4,1.7-.8.6-1.7.7-2-.6,0-.5,0-1-.7-1.1-.1,0-.4.6-.4.9,0,.5.1,1.2,0,1.7-.2.6-.8.8-1.3.6-.3,0-.8-.4-.8-.6,0-3-.1-6,0-8.9,0-.7,1.1-.9,1.8-.4,1.5,1.1,1.8,3,2.7,4.5.2.3.4.6.5.9.2-.3.5-.5.6-.8,0-.5-.2-1.2,0-1.7.6-1.3,1.8-2.9,2.9-2.8,1.6.2,1.8,2.1,1.6,3.7,0,.4,0,.7,0,1.1Z"/>
          <path class="cls-1" d="M17.5,105.6c0-1.3-.1-2.6,0-3.9.1-.6.8-1.3,1.4-1.6.8-.4,1,.7,1.6,1,.2,0,.4.3.4.4-.1,1.6,1.5,2.4,1.6,3.8.6-1.2,1.2-2.4,1.8-3.6.2-.3.4-.6.6-.9.4-.4,1-1,1.1-1,.6.4,1.5.9,1.6,1.5.2,1.6.2,3.3,0,5-.1,1.1.9,3.1-.8,3.3-2.7.3-1-2.1-1.4-3.3-.2-.5,0-1.1-.8-.9-.2,0-.3.6-.3.9-.2.8.5,2-1,2.1-1.3,0-1.8-1-2.4-1.9-.3-.4-.4-1-.6-1.4-.2.5-.5.9-.5,1.4,0,.7,0,1.5,0,2.2,0,.6-.5.9-1.2.8-.7,0-1-.3-1.1-1,0-1.1,0-2.2,0-3.4Z"/>
          <path class="cls-1" d="M53.8,105.8c0-.9,0-1.9,0-2.8.1-2.7,2.6-4.4,5-3.2,1.1.6,2.1,1.6,2.8,2.7.5.8.5,2.1-.4,3-1.2,1.1,0,1.8.6,2.7.3.3.3,1.2-.3,1.4-.4.2-1.1.3-1.5,0-.6-.4-1-1.1-1.6-1.5-1.1-.8-2-1-2.2.7-.1,1.1-.9,1.1-1.6,1-.6-.1-.7-.7-.7-1.3,0-.9,0-1.9,0-2.8ZM58.1,103.2c-1.4-.2-2.2,0-2,1.3,0,.6.4.9,1.1.9,1.1,0,1.8-.9,2-1.6.3-1-.9-.6-1.1-.6Z"/>
          <path class="cls-1" d="M170.5,105.2c0-.9-.1-1.9,0-2.8.2-1.6,1-2.7,2.8-2.6.9,0,1.9,0,2.8,0,1.1.1,2.2.9,1.9,1.9-.2.8-1.2,1.9-2.6,1.3-.5-.2-.8-1.4-1.6-.4-.2.3-.6.5-.8.8-.5.8.3.7.7.9,1.2.5,3.5-1.2,3.4,1.3,0,1.9-2.1.7-3.2.9-.5.1-1.1,0-1,.7,0,.1.6.3.9.4,1.5.5,4.5-1.1,4.3,1.3-.1,2-3.1.5-4.8.9-.2,0-.4,0-.6,0-2.2.5-2.6-.7-2.3-2.5,0-.7,0-1.5,0-2.2Z"/>
          <path class="cls-1" d="M116.1,104.6c0-2.5,2.5-5,4.7-4.8,1.7.1,5.2,3.5,5.5,5.3.2,1.6-3.9,4.9-6,4.8-2.6-.1-4.3-2.3-4.2-5.3ZM122.9,105.3c.4-2.1-.7-2.4-2.2-2.2-1,.1-2.4-.5-2.3,1.4,0,2.1,1.4,3.4,3.4,3.1,1.8-.2.8-1.6,1.1-2.3Z"/>
          <path class="cls-1" d="M41.1,109.9c-.6,0-1.1,0-1.7,0-1.3.1-1.5-.6-1.5-1.7,0-2.2,0-4.5,0-6.7,0-1,0-1.8,1.4-1.7,1.1,0,2.3-.2,3.4,0,.8.2,1.5,1,1.9,1.7.3.5-2.2,1.6-3,1.2-.6-.3-1.1-1.2-1.4.2-.1.6.1,1.1.7,1.3.3.1.7,0,1.1,0,.7,0,1.5,0,1.6,1,0,1.4-.9,1.3-1.9,1.3-.6,0-1.3,0-1.4.5,0,.5.7.6,1.2.6.7,0,1.5,0,2.2,0,.6,0,.9.4.9,1.1,0,.7-.3,1.1-.9,1.1-.9,0-1.9,0-2.8,0Z"/>
          <path class="cls-1" d="M137.8,109.9c-1.1,0-2.2,0-3-1-.5-.6-.9-1.2-.5-1.9.5-.7,1.2-.7,1.9-.1.4.3.6,1,1.4.8.3,0,.6-.3,1-.4-.1-.3-.2-.6-.5-.8-.5-.5-.9-1-1.8-1.1-1.1-.2-2.2-1-2-2.1.3-1.6,1.7-2.8,3.2-3.4,1-.4,2.1,0,2.9,1,.5.6.9,1.2.4,1.9-.5.7-1.3.7-1.9,0-.6-.6-1.1-1.1-1.3.2-.1.6.2,1,.7,1.3.2,0,.4,0,.6,0,1.8-.3,2.9.6,3.2,2.2.2,1.3-2.6,3.4-4.3,3.4Z"/>
          <path class="cls-1" d="M236.1,107.2c-.1-.2-.2-.5-.5-.7-.5-.5-.9-1-1.8-1.1-1.1-.2-2.2-1.1-2.1-2.1.3-1.6,1.7-2.8,3.2-3.4,1-.4,2.1,0,2.9,1,.5.6.9,1.2.4,1.9-.5.7-1.2.6-1.9,0-.3-.2-.6-1.2-1.1-.3-.4.7-.3,1.4.5,1.8.3.1.8,0,1.1,0,2.2-.5,1.4,1.6,2.2,2.4,1,1-.6,1.4-1.1,1.9-1.8,1.8-4,1.9-5.7.3-.6-.5-.9-1.2-.5-1.9.5-.7,1.1-.5,1.9-.2,2.2,1,2.2.9,2.3.4Z"/>
          <path class="cls-1" d="M214.7,104.8c-.2-2.1,1-2.9,2.5-4.2,2.2-1.9,3.3.5,4.9.3.1,0,.6.9.5,1.4-.1,1-1.1,1.1-1.7.7-.8-.5-1-.6-2.1-.3-2,.6-2.4,1.9-1.8,3.1.5,1,1.6,3,3.4,1.1.6-.6,1.4-.8,1.9,0,.7,1,0,1.6-.7,2.3-1.2,1.4-3.2,1.1-4.1.5-1.6-1-3.5-2.4-2.9-4.8Z"/>
          <path class="cls-1" d="M107.1,107.4c0,1.3-1,2.1-1.6,2.2-1.8.4-3.5.5-5-1.2-1.5-1.6-1.7-3.3-1-5,.7-1.7,2.1-3.2,3.9-3.6,1-.2,2.3.7,3.3,1.2.6.3.5,1,.3,1.5-.2.6-1,.7-1.4.5-.9-.6-1.4-.4-2.5-.2-2.2.4-1.8,1.7-1.6,2.8.2,1.4,1.8,2,3.3,1.4.5-.2,1-.6,1.4-.6.6,0,1,.4.9.9Z"/>
          <path class="cls-1" d="M71.5,99.9c.3.3.5.5.8.8q2.2,2,4.4-.6c.4-.5,1-.4,1.5-.2.6.2.7,1,.5,1.4-1.4,2.6-3.4,5-3.5,8.1,0,.2-.6.4-.9.4-.3,0-1-.2-.9-.3.6-3.3-2.4-5.5-2.5-8.5,0-.5,0-1,.7-1.1Z"/>
          <path class="cls-1" d="M190.5,99.8c.8.2,1.8-.4,2.5.4.4.4,1,.7,1.1,1.2.1.6-.6.6-1.1.7-1.9.6-2.4,1.7-1,3.4.2.2,0,.7,0,1.1.4,1.5-.5,2.9-1.6,3.1-1,.1-2-1.2-1.8-2.7.1-1.1,0-2.2,0-3.3,0-.5-.1-1-.5-1.5-1.1-1.5-.9-2.1.5-2.3.6,0,1.1,0,1.8,0Z"/>
          <path class="cls-1" d="M203.4,104.3c0-.9,0-1.9,0-2.8,0-.6-.4-1.7.7-1.5.6,0,1.4,1,1.5,1.5.2,2.6,0,5.2,0,7.8,0,.2-.5.5-.9.5-.6.1-1.3,0-1.3-.6-.1-1.7,0-3.3,0-5Z"/>
        </g>
      </g>
    </g>
  </g>
</svg>