<?xml version="1.0" encoding="UTF-8"?>
<svg xmlns="http://www.w3.org/2000/svg" version="1.1" viewBox="0 0 240 213">
  <defs>
    <style>
      .cls-1 {
        fill: #1dbf73;
      }
    </style>
  </defs>
  <!-- Generator: Adobe Illustrator 28.6.0, SVG Export Plug-In . SVG Version: 1.2.0 Build 709)  -->
  <g>
    <g id="Layer_1">
      <g id="Caxb97.tif">
        <path class="cls-1" d="M123.4,212.4h-6.4c-.8-.3-1.7,0-2.6-.2-.6-.2-1.3-.1-2-.2-3.4-.2-6.7-.6-10-1.2-7.3-1.2-14.4-3.2-21.3-5.9-7.6-3-14.7-6.8-21.4-11.5-7.1-4.9-13.5-10.6-19.1-17.1-4.9-5.6-9.2-11.6-12.8-18-3.1-5.6-5.8-11.4-7.8-17.5-1.7-4.9-3-9.8-3.9-14.9-.9-5.1-1.6-10.3-1.7-15.5,0-.2,0-.5-.2-.7,0-2.3,0-4.6.1-6.9.2-2.8.3-5.5.6-8.3.6-5.3,1.6-10.6,3-15.8,2.3-8.7,5.8-17,10.3-24.8,4.4-7.7,9.8-14.8,16-21.2,2.7-2.8,5.7-5.5,8.7-8,7.5-6.1,15.6-11.1,24.5-15,7.6-3.4,15.6-5.8,23.8-7.3,5-.9,10.1-1.4,15.3-1.6,4.2-.1,8.4,0,12.6.3,3.6.3,7.1.8,10.6,1.4,6.1,1.1,12,2.8,17.7,5,6.4,2.4,12.4,5.4,18.2,9,6.7,4.1,12.8,9,18.4,14.4,2.1,2,4,4.1,5.9,6.3,5.3,6.1,9.9,12.8,13.7,20,3,5.6,5.4,11.5,7.3,17.6,2.8,9.1,4.6,18.3,4.7,27.9,0,.2,0,.5.1.6v6.4c-.3.8,0,1.7-.1,2.6-.1,1.1-.1,2.2-.2,3.4-.4,4.6-1.1,9.1-2,13.5-2.3,10.6-6.2,20.6-11.6,30-5.1,8.9-11.4,16.9-18.8,24-2.6,2.4-5.2,4.8-8,6.9-6.6,5.2-13.8,9.5-21.5,13-6.2,2.8-12.7,5-19.3,6.5-5,1.2-10.1,2-15.3,2.4-1.1,0-2.2.1-3.2.3-.8,0-1.6-.2-2.4.1ZM84.3,131.7c0,9.9,0,19.9,0,29.8,0,1,0,1,1,1,0,0,.2,0,.3,0,8.4,0,16.7,0,25.1,0,1.5,0,1.3.1,1.3-1.3,0-19.6,0-39.2,0-58.8,0-.3,0-.5,0-.8,0-.5.1-.8.7-.7.2,0,.4,0,.6,0,7.9,0,15.9,0,23.8,0,1.4,0,1.3-.2,1.3,1.3,0,19.7,0,39.4,0,59.1,0,1.3-.2,1.3,1.2,1.3,8.4,0,16.7,0,25.1,0,1.4,0,1.2,0,1.2-1.3,0-27.3,0-54.6,0-81.9,0-1.4.2-1.2-1.3-1.2-17,0-34,0-51,0-.3,0-.5,0-.8,0-.5,0-.7-.2-.7-.7,0-1.8,0-3.6,0-5.4.2-3.6,2-6.2,5.4-7.6,1.6-.7,3.4-.9,5.1-.9,4.8,0,9.6,0,14.4,0,.3,0,.5,0,.8,0,.4,0,.6-.1.5-.5,0-.2,0-.4,0-.6,0-6.9,0-13.7,0-20.6,0-.1,0-.3,0-.4,0-.5-.1-.8-.7-.7-.2,0-.4,0-.6,0-4,0-8,0-11.9,0-3.2,0-6.4,0-9.5.1-4.2.2-8.2,1-12.1,2.4-4.6,1.7-8.6,4.3-11.9,7.9-4.8,5.4-7.1,11.7-7.2,18.9,0,2.4,0,4.8,0,7.2,0,.9,0,.9-.9.9-.2,0-.3,0-.5,0-4.4,0-8.8,0-13.2,0-1.2,0-1.1-.1-1.1,1.1,0,6.8,0,13.6,0,20.4,0,1.4-.2,1.2,1.3,1.2,4.5,0,9,0,13.4,0,1,0,1,0,1,.9,0,.2,0,.3,0,.5,0,9.8,0,19.6,0,29.3Z"/>
      </g>
    </g>
  </g>
</svg>