<?xml version="1.0" encoding="UTF-8"?>
<svg xmlns="http://www.w3.org/2000/svg" version="1.1" viewBox="0 0 240 213">
  <defs>
    <style>
      .cls-1 {
        fill: #fc9800;
      }
    </style>
  </defs>
  <!-- Generator: Adobe Illustrator 28.6.0, SVG Export Plug-In . SVG Version: 1.2.0 Build 709)  -->
  <g>
    <g id="Layer_1">
      <g id="BGa8Ji.tif">
        <g>
          <path class="cls-1" d="M229.2,33.7v145.8c-.7.2-.4.9-.5,1.3-4,19.7-19.3,32.2-39.4,32.2-10.3,0-20.7,0-31,0-36,0-72,0-108.1,0-22,0-39.4-16.8-39.4-38.4,0-45.4,0-90.8,0-136.2,0-18.4,13-33.9,31-37.7C42.7.6,43.8.8,44.5,0h150.6c0,.4.3.4.6.4,15.4,2,28.2,13.3,32.2,28.3.4,1.7.4,3.4,1.3,5ZM99.4,54.1c-3.6,0-7.2,0-10.9,0-1.4,0-2,.4-2,1.9,0,3.4-.9,6.5-2,9.7-9.4,27.1-18.9,54.3-28.3,81.4-1,2.9-.9,3,2.1,3,4.8,0,9.6,0,14.4,0,1.8,0,2.7-.6,3.2-2.3,1.9-6.1,3.9-12.2,5.8-18.3.5-1.5,1-2.1,2.7-2.1,10,0,19.9,0,29.9,0,1.5,0,2.2.5,2.7,1.9,2.1,6.2,4.2,12.4,6.3,18.6.4,1.3.9,2.2,2.6,2.2,5.8,0,11.7,0,17.5,0,1.7,0,2-.7,1.5-2.2-1.1-2.9-2.1-5.8-3.1-8.7-9.7-27.4-19.5-54.8-29.1-82.3-.8-2.2-1.8-3-4.1-2.8-3.1.2-6.2,0-9.3,0ZM175.7,114.1c0-11.3,0-22.6,0-33.9,0-1.9-.6-2.6-2.5-2.6-5.2,0-10.3,0-15.5,0-1.8,0-2.4.6-2.4,2.5,0,22.7,0,45.3,0,68,0,1.8.7,2.5,2.5,2.5,5,0,10-.1,15.1,0,2.2,0,2.9-.5,2.9-2.8-.1-11.2,0-22.4,0-33.7ZM166,47.3c-6.7,0-11.6,4.6-11.6,11,0,7.1,4.4,11.7,11.2,11.8,6.6,0,11.3-4.6,11.4-11.1,0-7.1-4.2-11.6-11-11.6Z"/>
          <path class="cls-1" d="M99.2,70.8c3.6,13,7.7,25.4,11.7,38.1-7.4,0-14.7,0-21.9,0-2.1,0-.7-1.4-.6-1.9,2.9-9.7,6-19.4,8.9-29.1.7-2.2,1.1-4.4,1.8-7.1Z"/>
        </g>
      </g>
    </g>
  </g>
</svg>