<?xml version="1.0" encoding="UTF-8"?>
<svg xmlns="http://www.w3.org/2000/svg" version="1.1" viewBox="0 0 240 213">
  <defs>
    <style>
      .cls-1 {
        fill: #b00603;
      }

      .cls-2 {
        fill: #0860cc;
      }

      .cls-3 {
        fill: #0b7005;
      }

      .cls-4 {
        fill: #edf6f8;
      }

      .cls-5 {
        fill: #13269c;
      }
    </style>
  </defs>
  <!-- Generator: Adobe Illustrator 28.6.0, SVG Export Plug-In . SVG Version: 1.2.0 Build 709)  -->
  <g>
    <g id="Layer_1">
      <g id="_x36_psYEP">
        <g>
          <path class="cls-4" d="M119.9,13.1c28.4,0,56.8,0,85.2,0,4.6,0,8.9,1.2,13.1,3,4.7,2,8.7,4.9,12.1,8.6,3.1,3.3,5.4,7,7,11.1,2,4.9,2.6,9.9,2.6,15.1,0,38.4,0,76.9,0,115.3,0,2.1-.5,4.1-1,6.1-1.6,5.9-4.4,11.3-8.6,15.8-5.5,5.9-12.1,9.4-19.9,11-1.2.3-2.5.5-3.8.5-56.2.5-112.3,0-168.5.2-4.2,0-8.3-.3-12.4-1.6-4.9-1.6-9.3-3.9-13.3-7.2-5.4-4.5-9-10.2-11.1-16.8C.6,171.4,0,168.5,0,165.5c0-39.9,0-79.9,0-119.8,0-2,.5-4,1.1-5.9,1.4-4.8,3.6-9.3,6.7-13.3,2.9-3.7,6.5-6.6,10.6-8.9,3.7-2.2,7.8-3.4,12-4.2,1.3-.2,2.7-.3,4-.3,28.5,0,57,0,85.5,0ZM121.1,67c21.1,0,42.2,0,63.3,0,.5,0,1.3.3,1.6-.3.2-.5-.3-1-.6-1.4-3.2-4.6-6.7-8.9-10.8-12.7-3.6-3.4-7.4-6.5-11.5-9.2-6.9-4.4-14.2-7.7-22.1-9.8-5.1-1.4-10.4-2.3-15.6-2.6-4.8-.3-9.6,0-14.4.6-4.8.6-9.4,1.6-14,3.1-4.5,1.5-8.8,3.4-13,5.7-5.9,3.2-11.2,7.1-16,11.6-4.2,3.9-7.9,8.3-11.1,13.1-.3.5-1.1,1-.7,1.7.3.6,1.1.3,1.7.3,21.1,0,42.1,0,63.2,0ZM56.7,150.5c0,.3.2.6.3.9,1.1,2.3,2.9,4.1,4.4,6,1.9,2.4,4.1,4.7,6.3,6.8,4,3.7,8.3,7.1,13,9.9,2.6,1.5,5.2,3.1,7.9,4.2,5.2,2.2,10.6,4.1,16.2,5.3,4,.8,8.1,1.3,12.2,1.7,5.4.5,10.8-.2,16.2-.9,4-.6,8-1.7,11.9-2.9,2.4-.8,4.8-1.9,7.2-2.8,3.1-1.3,6-2.8,8.8-4.5,3.2-2,6.3-4.1,9.2-6.6,2.6-2.2,5.2-4.4,7.5-7,2.5-2.8,4.9-5.7,7-8.8.2-.3.4-.8.6-1.1-.4,0-.9-.3-1.3-.3-3.3,0-6.5,0-9.8,0-27.8,0-55.7-.2-83.5.2-10.7.1-21.5,0-32.2,0-.6,0-1.2,0-1.7.2ZM121,125.2h0c-12,0-24,0-36.1,0-12.6,0-25.2,0-37.8,0-1.3,0-1.6.3-1.3,1.4,1.3,5.1,3.1,9.9,5.2,14.7.5,1.1,1.2,1.5,2.4,1.5,23.6,0,47.2,0,70.8,0,21.4,0,42.8,0,64.2,0,1.1,0,1.8-.2,2.2-1.3,1.1-2.8,2.4-5.5,3.4-8.3.8-2.3,1.6-4.6,2-7,.1-.8-.1-1-.8-1-.3,0-.5,0-.8,0-24.5,0-49,0-73.5,0ZM120.9,91.9h0c24.4,0,48.8,0,73.1,0,.5,0,1.1,0,1.6,0,.7,0,.9-.3.7-1-1.2-5.3-3-10.4-5.3-15.3-.4-.8-.8-1-1.7-1-11,0-22,0-32.9,0-24.3,0-48.6,0-72.9,0-7.1,0-14.2,0-21.3,0-3.3,0-6.5,0-9.8,0-1,0-1.6.3-1.9,1.3-.5,1.3-1.1,2.6-1.6,3.8-1.4,3.4-2.4,6.9-3.4,10.5-.4,1.7-.5,1.7,1.2,1.7,24.7,0,49.4,0,74.1,0ZM40.2,108.7h0c0,4,0,7.9,0,11.9,0,1,.3,1.5,1.4,1.4,1.7,0,3.4,0,5.1,0,1.2,0,1.5-.4,1.5-1.5,0-3.5,0-6.9,0-10.4,0-.4-.2-1.1.3-1.3.5-.2.6.5.9.8,2.6,3.3,5.2,6.4,7.6,9.9,1.3,2,2.8,2.7,5.1,2.6,3.5-.2,3.5,0,3.5-3.6,0-7.1,0-14.2,0-21.4,0-1.2-.3-1.6-1.5-1.5-1.7,0-3.4,0-5.2,0-.8,0-1,.3-1,1.1,0,3.7.2,7.4-.1,11.1,0,.3.3.7-.2.9-.4,0-.6-.3-.8-.6-1.1-1.5-2.2-2.9-3.3-4.4-1.9-2.5-3.8-5-5.8-7.4-.4-.4-.8-.8-1.4-.7-1.5.2-3,0-4.5,0-1,0-1.3.3-1.3,1.4,0,3.9,0,7.9,0,11.8ZM109.3,122.9c7.6.1,14.1-6.4,14.1-13.9,0-7.9-6.2-14.3-14-14.3-7.7,0-14,6-14.1,14,0,7.5,6,14.2,14,14.2ZM214,122c-.2-.8-.6-1.2-.9-1.7-1.7-2.2-3.4-4.5-5.1-6.7-.6-.7-.5-1.2.3-1.7,1.7-1,3.1-2.2,3.8-4.1,2-5.3-1.5-11.3-7.6-12.1-4.8-.6-9.7-.1-14.5-.2-.7,0-.9.4-.9,1,0,8.1,0,16.2,0,24.4,0,.8.3,1.2,1.1,1.2,1.9,0,3.9,0,5.8,0,.8,0,1-.3,1-1,0-2,0-4.1,0-6.1,0-1.4.9-1.9,2.2-1.3.5.3.9.8,1.2,1.2,1.5,2.1,3,4.2,4.5,6.3.3.4.6.9,1.3.9,2.6,0,5.2,0,7.9,0ZM68,108.8h0c0,3.9,0,7.9,0,11.8,0,1,.3,1.4,1.4,1.4,4,0,8,0,12,0,3.3,0,6-1.4,8.3-3.7,3.1-3.2,4.3-7.1,3.6-11.6-.4-2.7-1.3-5.2-3.2-7.2-2.7-2.8-6.2-4-10-4-3.5,0-7.1.1-10.6.1-1,0-1.4.3-1.4,1.4,0,4,0,7.9,0,11.9ZM184.2,122c.9,0,1.8,0,2.8,0,1.4,0,1.5-.1.9-1.4-1.9-4.1-3.8-8.2-5.7-12.4-1.8-4.1-3.7-8.1-5.5-12.2-.2-.5-.5-.6-1-.6-1.8,0-3.7,0-5.5,0-.6,0-1,.2-1.3.8-.6,1.4-1.3,2.7-1.9,4.1-1.9,4.3-3.9,8.5-5.8,12.8-1.2,2.6-2.3,5.2-3.5,7.8-.4.8-.2,1.2.8,1.2,1.6,0,3.2-.1,4.8,0,1.5.1,2.4-.2,2.7-1.8.4-1.8,1.3-2.7,3.5-2.5,2.7.3,5.4.1,8.1-.1.5,0,1,0,1.2.6.3.9.7,1.8,1,2.7.2.8.6,1.2,1.5,1.1,1,0,1.9,0,2.9,0ZM135,122.9c2.4-.4,5-.4,7.3-1.5,4.2-2.1,5.8-6.3,3.9-10.6-1.1-2.4-3.2-3.7-5.6-4.5-2-.7-4.2-.7-6.3-1.2-1.6-.4-2.4-1.2-2.3-2.1.1-1.5,1.4-1.6,2.5-1.8,2.3-.5,4.3.2,6.3,1.3.8.5,1.3.4,1.8-.5.5-.8,1-1.4,1.6-2.1,1.3-1.6,1.2-1.8-.4-2.9-.2-.1-.4-.2-.6-.3-1.8-.8-3.6-1.2-5.5-1.5-2.9-.3-5.7-.1-8.3,1-2.7,1.2-4.5,3.2-4.8,6.3-.3,3.6,1,6.2,4.3,7.8,1.6.8,3.3.9,5,1.3,1.4.3,2.9,0,4.3.7.7.3,1.3.8,1.4,1.6.1,1-.5,1.5-1.2,1.9-.9.4-1.9.6-2.9.5-2.5-.2-4.8-.8-6.8-2.4-.5-.4-.8-.3-1.3.1-1.2,1.1-2.1,2.4-3.2,3.7-.4.5-.1.9.3,1.3,2.9,2.9,6.6,3.7,10.7,4ZM38,108.8s0,0,0,0c0-3.9,0-7.9,0-11.8,0-1.5-.1-1.5-1.6-1.5-1.5,0-3.1,0-4.6,0-1.5,0-1.7.1-1.7,1.6,0,7.9,0,15.8,0,23.7,0,1,.4,1.3,1.3,1.2,1.8,0,3.6,0,5.4,0,.9,0,1.2-.3,1.2-1.2,0-4,0-8,0-12ZM156.1,108.9c0-4,0-8.1,0-12.1,0-1-.4-1.4-1.4-1.4-1.7,0-3.5,0-5.2,0-.9,0-1.3.3-1.3,1.3,0,8.1,0,16.2,0,24.2,0,.8.3,1.1,1.1,1.1,1.8,0,3.7,0,5.5,0,1,0,1.3-.3,1.3-1.3,0-4,0-7.9,0-11.9Z"/>
          <path class="cls-1" d="M121.1,67c-21.1,0-42.1,0-63.2,0-.6,0-1.4.3-1.7-.3-.4-.6.4-1.2.7-1.7,3.2-4.7,6.9-9.2,11.1-13.1,4.9-4.5,10.2-8.4,16-11.6,4.2-2.3,8.5-4.2,13-5.7,4.5-1.5,9.2-2.5,14-3.1,4.8-.6,9.6-.9,14.4-.6,5.3.3,10.5,1.2,15.6,2.6,7.9,2.1,15.2,5.4,22.1,9.8,4.2,2.7,7.9,5.8,11.5,9.2,4.1,3.8,7.6,8.1,10.8,12.7.3.4.9.9.6,1.4-.3.6-1,.3-1.6.3-21.1,0-42.2,0-63.3,0Z"/>
          <path class="cls-5" d="M56.7,150.5c.5-.2,1.1-.2,1.7-.2,10.7,0,21.5.1,32.2,0,27.8-.3,55.7,0,83.5-.2,3.3,0,6.5,0,9.8,0,.4,0,.9.2,1.3.3-.2.4-.3.8-.6,1.1-2.1,3.1-4.5,6-7,8.8-2.2,2.6-4.9,4.8-7.5,7-2.9,2.5-6,4.5-9.2,6.6-2.8,1.8-5.7,3.3-8.8,4.5-2.4,1-4.7,2.1-7.2,2.8-3.9,1.2-7.8,2.4-11.9,2.9-5.4.8-10.8,1.4-16.2.9-4.1-.3-8.1-.8-12.2-1.7-5.6-1.2-11-3.1-16.2-5.3-2.7-1.2-5.3-2.7-7.9-4.2-4.7-2.8-9-6.2-13-9.9-2.3-2.1-4.4-4.4-6.3-6.8-1.6-1.9-3.4-3.7-4.4-6-.1-.3-.3-.5-.3-.9Z"/>
          <path class="cls-3" d="M121,125.2c24.5,0,49,0,73.5,0,.3,0,.5,0,.8,0,.7,0,.9.2.8,1-.4,2.4-1.3,4.7-2,7-.9,2.8-2.2,5.6-3.4,8.3-.5,1.1-1.1,1.3-2.2,1.3-21.4,0-42.8,0-64.2,0-23.6,0-47.2,0-70.8,0-1.2,0-1.8-.3-2.4-1.5-2.1-4.8-3.9-9.6-5.2-14.7-.3-1.1,0-1.4,1.3-1.4,12.6,0,25.2,0,37.8,0,12,0,24,0,36.1,0h0Z"/>
          <path class="cls-3" d="M120.9,91.9c-24.7,0-49.4,0-74.1,0-1.7,0-1.6,0-1.2-1.7.9-3.6,1.9-7.1,3.4-10.5.5-1.3,1.1-2.5,1.6-3.8.3-.9,1-1.3,1.9-1.3,3.3,0,6.5,0,9.8,0,7.1,0,14.2,0,21.3,0,24.3-.1,48.6,0,72.9,0,11,0,22,0,32.9,0,.8,0,1.3.2,1.7,1,2.3,4.9,4.1,10,5.3,15.3.2.7,0,1-.7,1-.5,0-1.1,0-1.6,0-24.4,0-48.8,0-73.1,0h0Z"/>
          <path class="cls-2" d="M40.2,108.7c0-3.9,0-7.9,0-11.8,0-1,.3-1.4,1.3-1.4,1.5,0,3,.1,4.5,0,.6,0,1,.2,1.4.7,2.1,2.4,3.9,4.9,5.8,7.4,1.1,1.5,2.2,2.9,3.3,4.4.2.3.4.7.8.6.5-.1.2-.6.2-.9.4-3.7.1-7.4.1-11.1,0-.8.3-1.1,1-1.1,1.7,0,3.4,0,5.2,0,1.2,0,1.5.4,1.5,1.5,0,7.1,0,14.2,0,21.4,0,3.6,0,3.4-3.5,3.6-2.3.1-3.8-.6-5.1-2.6-2.3-3.4-5-6.6-7.6-9.9-.2-.3-.4-1-.9-.8-.5.2-.3.8-.3,1.3,0,3.5,0,6.9,0,10.4,0,1.1-.3,1.6-1.5,1.5-1.7-.1-3.4,0-5.1,0-1.1,0-1.4-.4-1.4-1.4,0-4,0-7.9,0-11.9h0Z"/>
          <path class="cls-1" d="M109.3,122.9c-8,0-14.1-6.6-14-14.2,0-8.1,6.4-14,14.1-14,7.8,0,14,6.4,14,14.3,0,7.5-6.5,14-14.1,13.9ZM109,115.1c3.5.2,6.5-2.5,6.7-5.9.2-3.6-2.4-6.5-5.9-6.7-4.2-.3-6.7,2.8-6.8,5.9-.1,3.9,1.9,6.2,6,6.8Z"/>
          <path class="cls-2" d="M214,122c-2.7,0-5.3,0-7.9,0-.6,0-1-.4-1.3-.9-1.5-2.1-3-4.2-4.5-6.3-.3-.5-.7-1-1.2-1.2-1.3-.7-2.2-.2-2.2,1.3,0,2,0,4.1,0,6.1,0,.7-.2,1-1,1-1.9,0-3.8,0-5.8,0-.9,0-1.1-.4-1.1-1.2,0-8.1,0-16.2,0-24.4,0-.6.2-1.1.9-1,4.8.1,9.7-.4,14.5.2,6.1.8,9.6,6.8,7.6,12.1-.7,1.9-2.2,3.1-3.8,4.1-.9.5-.9,1-.3,1.7,1.7,2.2,3.4,4.5,5.1,6.7.3.5.7.9.9,1.7ZM200.1,107.4c1.1,0,1.9,0,2.8,0,1.5,0,2.1-.7,2.2-1.9.2-2.1-.3-3.2-1.8-3.7-1.2-.4-2.5-.2-3.8-.2-2.5,0-2.5,0-2.5,2.5,0,1-.4,2.3.2,3,.7.8,2,.1,2.9.3Z"/>
          <path class="cls-2" d="M68,108.8c0-4,0-7.9,0-11.9,0-1.1.3-1.4,1.4-1.4,3.5,0,7.1-.2,10.6-.1,3.8,0,7.3,1.2,10,4,1.9,2,2.8,4.5,3.2,7.2.7,4.4-.5,8.3-3.6,11.6-2.2,2.3-5,3.7-8.3,3.7-4,0-8,0-12,0-1.1,0-1.4-.4-1.4-1.4,0-3.9,0-7.9,0-11.8h0ZM75.8,108.6c0,2,0,3.9,0,5.9,0,.6.2,1,.9,1,1.4,0,2.8,0,4.2-.3,1.6-.3,2.9-1,3.7-2.5,1.3-2.4,1.2-4.8.4-7.2-.6-1.9-2-2.9-3.8-3.3-1.4-.3-2.9-.4-4.4-.3-.8,0-1.1.3-1.1,1.1,0,1.9,0,3.8,0,5.7Z"/>
          <path class="cls-2" d="M184.2,122c-1,0-1.9,0-2.9,0-.8,0-1.2-.3-1.5-1.1-.3-.9-.7-1.8-1-2.7-.2-.6-.7-.7-1.2-.6-2.7.3-5.5.5-8.1.1-2.2-.3-3.1.6-3.5,2.5-.3,1.6-1.2,1.9-2.7,1.8-1.6-.1-3.2,0-4.8,0-1,0-1.1-.4-.8-1.2,1.2-2.6,2.3-5.2,3.5-7.8,1.9-4.3,3.9-8.5,5.8-12.8.6-1.4,1.3-2.7,1.9-4.1.3-.6.7-.8,1.3-.8,1.8,0,3.7,0,5.5,0,.5,0,.8.1,1,.6,1.8,4.1,3.7,8.1,5.5,12.2,1.9,4.1,3.7,8.3,5.7,12.4.6,1.3.6,1.4-.9,1.4-.9,0-1.8,0-2.8,0ZM172.7,111.1c.8,0,1.6,0,2.4,0,.5,0,.8,0,.5-.7-.8-1.9-1.6-3.9-2.4-5.8,0-.2-.2-.6-.5-.6-.3,0-.4.3-.5.6-.8,1.9-1.5,3.8-2.3,5.8-.2.5,0,.7.5.7.8,0,1.5,0,2.3,0Z"/>
          <path class="cls-2" d="M135,122.9c-4.1-.3-7.8-1.1-10.7-4-.4-.4-.7-.7-.3-1.3,1.1-1.2,2-2.5,3.2-3.7.4-.4.7-.5,1.3-.1,2,1.6,4.3,2.2,6.8,2.4,1,0,2,0,2.9-.5.8-.3,1.4-.9,1.2-1.9-.1-.9-.7-1.3-1.4-1.6-1.4-.6-2.9-.3-4.3-.7-1.7-.4-3.4-.5-5-1.3-3.3-1.6-4.6-4.3-4.3-7.8.3-3.1,2.1-5.1,4.8-6.3,2.6-1.2,5.4-1.4,8.3-1,1.9.2,3.8.6,5.5,1.5.2,0,.4.2.6.3,1.7,1.1,1.7,1.3.4,2.9-.6.7-1.1,1.4-1.6,2.1-.5.8-1,.9-1.8.5-2-1.1-4-1.7-6.3-1.3-1,.2-2.3.3-2.5,1.8,0,1,.7,1.7,2.3,2.1,2.1.5,4.3.5,6.3,1.2,2.4.8,4.5,2.1,5.6,4.5,1.9,4.3.3,8.5-3.9,10.6-2.4,1.2-5,1.2-7.3,1.5Z"/>
          <path class="cls-2" d="M38,108.8c0,4,0,8,0,12,0,.9-.2,1.2-1.2,1.2-1.8,0-3.6,0-5.4,0-.9,0-1.3-.2-1.3-1.2,0-7.9,0-15.8,0-23.7,0-1.5.2-1.6,1.7-1.6,1.5,0,3.1,0,4.6,0,1.5,0,1.6,0,1.6,1.5,0,3.9,0,7.9,0,11.8,0,0,0,0,0,0Z"/>
          <path class="cls-2" d="M156.1,108.9c0,4,0,7.9,0,11.9,0,1-.3,1.3-1.3,1.3-1.8,0-3.7,0-5.5,0-.8,0-1.1-.3-1.1-1.1,0-8.1,0-16.2,0-24.2,0-.9.4-1.3,1.3-1.3,1.7,0,3.5,0,5.2,0,1,0,1.4.4,1.4,1.4,0,4,0,8.1,0,12.1Z"/>
          <path class="cls-4" d="M109,115.1c-4.1-.5-6.1-2.8-6-6.8,0-3.1,2.6-6.1,6.8-5.9,3.4.2,6,3.1,5.9,6.7-.1,3.4-3.2,6.1-6.7,5.9Z"/>
          <path class="cls-4" d="M200.1,107.4c-.8-.1-2.2.5-2.9-.3-.6-.7-.2-2-.2-3,0-2.5,0-2.5,2.5-2.5,1.3,0,2.5-.1,3.8.2,1.4.4,2,1.5,1.8,3.7-.1,1.2-.8,1.8-2.2,1.9-.8,0-1.7,0-2.8,0Z"/>
          <path class="cls-4" d="M75.8,108.6c0-1.9,0-3.8,0-5.7,0-.8.3-1.1,1.1-1.1,1.5,0,2.9,0,4.4.3,1.8.4,3.2,1.4,3.8,3.3.8,2.5.9,4.9-.4,7.2-.8,1.5-2.1,2.2-3.7,2.5-1.4.3-2.8.3-4.2.3-.7,0-.9-.4-.9-1,0-2,0-3.9,0-5.9Z"/>
          <path class="cls-4" d="M172.7,111.1c-.8,0-1.5,0-2.3,0-.5,0-.7-.2-.5-.7.8-1.9,1.5-3.8,2.3-5.8,0-.2.2-.6.5-.6.3,0,.4.3.5.6.8,1.9,1.6,3.9,2.4,5.8.2.6,0,.7-.5.7-.8,0-1.6,0-2.4,0Z"/>
        </g>
      </g>
    </g>
  </g>
</svg>