<?xml version="1.0" encoding="UTF-8"?>
<svg xmlns="http://www.w3.org/2000/svg" version="1.1" viewBox="0 0 240 213">
  <defs>
    <style>
      .cls-1 {
        fill: #fff;
      }
    </style>
  </defs>
  <!-- Generator: Adobe Illustrator 28.6.0, SVG Export Plug-In . SVG Version: 1.2.0 Build 709)  -->
  <g>
    <g id="Layer_1">
      <g>
        <path class="cls-1" d="M240.1,135.3c-7.2,0-14.3,0-21.5,0-.6,0-.9-.3-1.1-.8-2.3-4.6-4.7-9.3-7-13.9-2.6-5.2-5.2-10.4-7.9-15.6-4.4-8.8-8.8-17.5-13.3-26.2-.7-1.4-.7-2.4,0-3.8,3.3-6.3,6.5-12.8,9.7-19.1.1-.2.1-.6.4-.6.3,0,.3.4.4.6,2.6,5.2,5.2,10.3,7.8,15.5,4,8,8.1,15.9,12.1,23.9,4,7.9,8,15.8,12,23.8,2.6,5.1,5.2,10.2,7.8,15.4.1.3.3.5.4.7h0Z"/>
        <path class="cls-1" d="M90,55c0,4.6,0,9.2,0,13.8,0,1.1,0,2.2,0,3.3,0,.2.1.5-.1.7-.2.1-.4-.2-.6-.3-3.1-2.2-6.1-4.5-9.2-6.7-4.6-3.4-9.2-6.7-13.8-10.1-.2-.2-.6-.3-.6-.7h24.3Z"/>
        <path class="cls-1" d="M73.4,135.1c2.3-.3,4.2-1.3,5.5-3.1,2.4-3.4,1.7-7.7-1.6-10.4-5.3-4.4-10.5-8.8-15.8-13.2-4.9-4.1-9.8-8.2-14.7-12.3-2.2-1.9-4.6-3.6-6.3-5.9-3.1-4-4.6-8.6-4.5-13.6,0-10,7.5-19.2,18.1-21,.7-.1,1.5-.3,2.4-.1-2,.4-3.6,1.3-4.7,2.7-2.7,3.4-2.1,8,1.2,10.8,5.9,4.9,11.7,9.8,17.5,14.6,4.9,4.1,9.7,8.2,14.7,12.2,2.9,2.4,5.5,5.1,7.2,8.6,3.7,7.7,2.3,17.4-3.5,23.7-3.9,4.2-8.6,6.6-14.3,7.1-.3,0-.7,0-1.1,0Z"/>
        <path class="cls-1" d="M123.8,55.3c-2.1.6-3.8,1.7-5,3.6-2,3.1-1.3,7.3,1.6,9.7,6.1,5,12.1,10.1,18.1,15.2,5.2,4.4,10.5,8.7,15.7,13.1,4.9,4.1,7.5,9.3,7.8,15.7.6,10.9-7.4,20.8-18.5,22.4-.8.1-1.6.3-2.6.1,2.8-.4,4.7-1.6,6-3.8,1.8-3.1,1.1-7.2-1.7-9.5-7.1-5.9-14.1-11.8-21.1-17.7-4.3-3.6-8.7-7.2-12.9-10.8-4.5-3.9-7-8.8-7.5-14.7-.5-6.7,1.7-12.5,6.5-17.2,3.5-3.5,7.8-5.4,12.8-6,.3,0,.6,0,.9,0Z"/>
        <path class="cls-1" d="M4.9,104.6c0-9.9,0-19.7,0-29.6q0-1.2,1.1-1.2c5.9,0,11.7,0,17.6,0,1,0,1,0,1,1,0,19.8,0,39.6,0,59.4,0,1,0,1-1,1-5.9,0-11.8,0-17.8,0-1,0-1,0-1-1,0-9.9,0-19.8,0-29.7Z"/>
        <path class="cls-1" d="M48.6,110.4c6.9,0,12.4,5.5,12.4,12.4,0,6.8-5.6,12.4-12.5,12.4-6.9,0-12.4-5.6-12.4-12.6,0-6.8,5.6-12.3,12.5-12.3Z"/>
        <path class="cls-1" d="M179,110.4c7,0,12.4,5.5,12.4,12.5,0,6.8-5.6,12.4-12.4,12.4-6.9,0-12.5-5.6-12.5-12.5,0-7.2,6-12.5,12.5-12.4Z"/>
        <path class="cls-1" d="M101.9,122.9c-.2-6.6,5.5-12.5,12.4-12.4,6.9,0,12.3,5.5,12.4,12.4,0,6.3-5,12.4-12.4,12.4-7.5,0-12.6-6.3-12.4-12.4Z"/>
        <path class="cls-1" d="M145.5,55.2c3.8,0,7.5,0,11.3,0,.9,0,.9,0,.9.9,0,5.4,0,10.8,0,16.1,0,.2.1.5-.1.7-.3.1-.5-.2-.7-.3-4.2-3.1-8.4-6.2-12.6-9.2-3.5-2.5-6.9-5-10.4-7.6-.2-.1-.5-.2-.4-.5,0-.2.4-.1.7-.1,3.8,0,7.6,0,11.4,0Z"/>
        <path class="cls-1" d="M.4,55.3c.2-.2.5-.1.8-.1,7.5,0,14.9,0,22.4,0,1,0,1,0,1,1,0,5.4,0,10.7,0,16.1,0,.2.1.5-.1.7-.2,0-.4-.2-.5-.3-7.7-5.6-15.3-11.2-23-16.8-.2-.1-.5-.2-.5-.6Z"/>
        <path class="cls-1" d="M222.1,155.8c.5-1.3,1.1-2.5,1.6-3.8.5-1.3,1.1-2.6,1.6-3.9.1-.3.2-.6.7-.7.8,0,1,0,1,.9,0,2.9,0,5.8,0,8.8,0,.4.1.8-.5.9-.5,0-.9,0-.9-.7,0-1.9,0-3.8,0-5.7,0-.3,0-.5,0-.8-.3,0-.3.3-.3.4-.8,1.9-1.6,3.9-2.4,5.8,0,.2-.1.3-.2.5-.1.3-.3.5-.7.5-.4,0-.6-.2-.7-.5-.8-1.9-1.6-3.8-2.4-5.7-.1-.3-.2-.6-.5-.8,0,.2,0,.4,0,.7,0,1.9,0,3.7,0,5.6,0,.5-.1.8-.8.8-.6,0-.7-.3-.7-.8,0-2.9,0-5.9,0-8.8,0-.3-.1-.8.4-.8.5,0,1-.2,1.3.5.9,2.3,1.9,4.6,2.9,6.9.1.3.2.6.5.9Z"/>
        <path class="cls-1" d="M45,155.3c0-1.3,0-2.4,0-3.5,0-1.2,0-2.4,0-3.7,0-.5.2-.8.7-.8.6,0,.7.3.7.8,0,3,0,6,0,9,0,.3.1.7-.3.8-.5,0-1,.2-1.3-.4-.7-1.2-1.4-2.3-2.1-3.5-.8-1.3-1.6-2.6-2.5-4-.2.3-.2.6-.2.8,0,2.1,0,4.2,0,6.3,0,.6-.2.8-.8.8-.6,0-.7-.3-.7-.8,0-1.4,0-2.8,0-4.2,0-1.6,0-3.2,0-4.7,0-.4-.1-.8.4-.9.5-.1,1,0,1.3.5,1.3,2.2,2.7,4.4,4.1,6.6.1.2.3.5.7.8Z"/>
        <path class="cls-1" d="M120.5,152.7c0-1.5,0-3,0-4.5,0-.6.2-.8.8-.8,1,0,2.1,0,3.1.1,2.6.3,4.4,2.1,4.5,4.7,0,1.5-.2,3-1.2,4.2-.9,1-2.1,1.5-3.4,1.6-1,0-2.1,0-3.1,0-.5,0-.7-.2-.7-.7,0-1.5,0-3.1,0-4.6ZM121.8,152.7c0,1.1,0,2.2,0,3.4,0,.3,0,.5.3.7,1.2.5,3.9-.3,4.6-1.4.9-1.4.9-2.9.4-4.4-.4-1.3-1.6-2.2-3-2.2-.5,0-1.1,0-1.7,0-.5,0-.7.2-.7.7,0,1.1,0,2.2,0,3.4Z"/>
        <path class="cls-1" d="M90.5,155.7c0,0-.1,0-.2,0q-1.8,0-2.5,1.7c-.2.5-1,.8-1.4.5-.3-.2-.1-.5,0-.7.9-2.6,1.8-5.3,2.7-7.9.1-.3.3-.7.3-1,.1-.7.5-.9,1.2-.9.5,0,.8.2.9.7,1,3,2,6,3,9,0,.3.4.7-.1.8-.4,0-1,.2-1.2-.4-.1-.4-.3-.8-.4-1.2-.1-.5-.4-.7-.9-.6-.5,0-1,0-1.4,0ZM90.6,149.7c0,0-.1,0-.2,0-.5,1.5-1,2.9-1.5,4.4-.1.3,0,.4.3.4.8,0,1.6,0,2.4,0,.3,0,.4-.2.3-.5-.5-1.4-1-2.9-1.4-4.3Z"/>
        <path class="cls-1" d="M19.6,153.6c0,1.2,0,2.4,0,3.6,0,.6-.2.9-.8.8-.4,0-.6-.2-.6-.6,0-3.1,0-6.3,0-9.4,0-.5.2-.6.7-.6.5,0,.8.1.8.7,0,1.1,0,2.1,0,3.2,0,.2,0,.5.2.8,1.1-1.3,2.1-2.5,3.1-3.7.5-.6,1-1,1.8-.8.2,0,.4,0,.4.2,0,.2,0,.3-.2.4-1.2,1.4-2.4,2.8-3.6,4.2-.4.5-.3.8,0,1.2,1.2,1.3,2.3,2.7,3.5,4.1.1.1.3.2.2.4,0,.2-.3.1-.4.1-.7,0-1.3-.1-1.8-.8-1-1.3-2-2.4-3.1-3.6,0,0-.1,0-.2,0Z"/>
        <path class="cls-1" d="M72.7,152.7c0-1.5,0-3,0-4.4,0-.5,0-.9.7-.9.6,0,.7.3.7.8,0,1,0,2.1,0,3.1,0,.6.2.8.8.8,1.1,0,2.3,0,3.4,0,.7,0,.9-.3.9-.9,0-1,0-2.1,0-3.1,0-.5.2-.7.7-.7.5,0,.6.3.6.7,0,3.1,0,6.1,0,9.2,0,.4-.1.7-.6.7-.6,0-.7-.2-.7-.7,0-1.1,0-2.2,0-3.3,0-.5-.2-.7-.7-.7-1.2,0-2.4,0-3.6,0-.5,0-.7.2-.7.7,0,1.1,0,2.2,0,3.2,0,.5,0,.9-.7.9-.6,0-.7-.3-.7-.8,0-1.5,0-3,0-4.5Z"/>
        <path class="cls-1" d="M8.6,147.3c1.4,0,2.5.5,3.1,1.7.2.3.5.8,0,1-.4.2-1,.3-1.3-.3-.6-1-1.4-1.3-2.4-1-.7.2-1.1.6-1.2,1.3-.1.7.2,1.2.7,1.5.5.3,1,.4,1.5.6.5.1,1,.3,1.4.5,1,.5,1.6,1.2,1.6,2.3,0,1.2-.4,2.1-1.4,2.7-1.9,1.1-4.4.4-5.2-1.4-.1-.3-.4-.7,0-1,.4-.3,1.1,0,1.3.4.5,1,1.3,1.4,2.4,1.2.7-.1,1.2-.7,1.3-1.3.1-.8-.1-1.4-.9-1.7-.8-.3-1.6-.6-2.4-.8-2.3-.8-2.3-3.4-1.3-4.5.7-.8,1.6-1.1,2.7-1.1Z"/>
        <path class="cls-1" d="M179.9,147.3c1.6,0,2.6.6,3.1,1.8.1.3.4.7,0,.9-.4.1-1,.3-1.3-.3-.5-1-1.4-1.3-2.4-1.1-.7.2-1.1.6-1.2,1.4,0,.7.2,1.3.9,1.6.8.3,1.6.6,2.4.9.9.3,1.6.8,1.8,1.8.6,2.3-1.4,4.3-3.9,3.8-1.3-.2-2.3-.8-2.7-2.1,0-.3-.3-.7.2-.8.4-.1.9-.3,1.2.4.5,1.1,1.1,1.4,2.3,1.3.8-.1,1.3-.6,1.5-1.4.1-.8-.2-1.4-1-1.7-.6-.3-1.3-.4-1.9-.6-1.9-.6-2.7-1.7-2.4-3.3.3-1.5,1.4-2.4,3.3-2.4Z"/>
        <path class="cls-1" d="M233.4,152.7c0-1.5,0-3,0-4.4,0-.6.2-.9.8-.9,1.3,0,2.6,0,3.9,0,.5,0,.7.1.7.7,0,.5-.3.6-.7.6-.9,0-1.7,0-2.6,0-.5,0-.7.2-.7.7,0,.7,0,1.3,0,2,0,.5.2.7.7.7.7,0,1.4,0,2.1,0,.4,0,.8,0,.8.6,0,.6-.4.6-.8.6-.7,0-1.3,0-2,0-.6,0-.8.2-.8.8,0,.7,0,1.3,0,2,0,.5.2.8.7.8.9,0,1.7,0,2.6,0,.4,0,.7,0,.7.6,0,.5-.3.6-.7.6-1.4,0-2.7,0-4.1,0-.5,0-.7-.3-.7-.7,0-1.5,0-3.1,0-4.6Z"/>
        <path class="cls-1" d="M134.7,152.7c0-1.5,0-3,0-4.5,0-.6.2-.8.8-.8,1.3,0,2.5,0,3.8,0,.5,0,.8,0,.8.7,0,.5-.3.6-.7.6-.9,0-1.7,0-2.6,0-.5,0-.7.2-.7.7,0,.7,0,1.3,0,2,0,.5.2.7.7.7.7,0,1.5,0,2.2,0,.4,0,.6.1.6.6,0,.5-.2.6-.7.6-.8,0-1.5,0-2.3,0-.5,0-.7.2-.6.6,0,.8,0,1.5,0,2.3,0,.5.2.6.6.6.9,0,1.8,0,2.7,0,.4,0,.7.2.7.6,0,.5-.3.6-.7.6-1.3,0-2.7,0-4,0-.6,0-.7-.3-.7-.7,0-1.5,0-3.1,0-4.6Z"/>
        <path class="cls-1" d="M165.3,152.7c0-1.5,0-3,0-4.4,0-.6.2-.9.8-.9,1.3,0,2.5,0,3.8,0,.5,0,.8.1.8.7,0,.5-.3.6-.8.6-.8,0-1.7,0-2.5,0-.5,0-.8.2-.8.7,0,.7,0,1.3,0,2,0,.5.2.7.7.7.7,0,1.3,0,2,0,.4,0,.9-.1.9.6,0,.7-.5.6-.9.6-.7,0-1.3,0-2,0-.5,0-.7.2-.7.7,0,.7,0,1.4,0,2.1,0,.6.2.8.8.8.8,0,1.7,0,2.5,0,.4,0,.7,0,.7.6,0,.5-.3.6-.7.6-1.3,0-2.6,0-3.9,0-.6,0-.8-.2-.8-.8,0-1.5,0-3.1,0-4.6Z"/>
        <path class="cls-1" d="M146.2,152.6c0-1.5,0-3,0-4.5,0-.6.2-.8.8-.8,1.4,0,2.8,0,4.2,0,.5,0,.7.1.7.7,0,.5-.3.6-.7.6-1,0-1.9,0-2.9,0-.5,0-.7.2-.7.7,0,.7,0,1.4,0,2.1,0,.5.2.7.6.6.7,0,1.4,0,2.2,0,.4,0,.7.1.7.6,0,.5-.3.6-.6.6-.6,0-1.2,0-1.8,0q-1,0-1,1c0,.9,0,1.7,0,2.6,0,.5.3,1.2-.7,1.2-1,0-.6-.7-.6-1.2,0-1.4,0-2.8,0-4.2Z"/>
        <path class="cls-1" d="M64.3,153.4c0,1.3,0,2.6,0,3.9,0,.5-.1.7-.7.7-.6,0-.8-.2-.8-.8,0-2.6,0-5.1,0-7.7,0-.9,0-.9-.9-.9-.3,0-.6,0-.9,0-.4,0-.7,0-.7-.6,0-.5.2-.7.7-.7,1.8,0,3.5,0,5.3,0,.4,0,.8,0,.8.6,0,.6-.3.7-.8.7-.4,0-.8,0-1.2,0-.5,0-.7.2-.7.7,0,1.3,0,2.7,0,4h0Z"/>
        <path class="cls-1" d="M199.5,153.3c0-1.3,0-2.6,0-3.9,0-.6-.2-.8-.8-.8-.4,0-.8,0-1.1,0-.4,0-.7-.1-.7-.6,0-.5.2-.7.7-.7,1.8,0,3.5,0,5.3,0,.4,0,.7.1.7.6,0,.5-.2.7-.7.7,0,0,0,0,0,0q-1.8,0-1.8,1.9c0,2.2,0,4.4,0,6.6,0,.5,0,.9-.7.9-.7,0-.8-.4-.8-.9,0-1.3,0-2.5,0-3.8Z"/>
        <path class="cls-1" d="M102.6,153.3c0-1.2,0-2.5,0-3.7,0-.9,0-.9-1-1-.4,0-.8,0-1.1,0-.4,0-.6-.2-.6-.6,0-.4.1-.7.6-.7,1.9,0,3.8,0,5.7,0,.5,0,.6.3.6.7,0,.4-.2.6-.6.6-.4,0-.8,0-1.1,0-1,0-1,0-1,1,0,2.5,0,5.1,0,7.6,0,.4,0,.7-.5.8-.5,0-.9,0-.9-.7,0-1.3,0-2.6,0-3.9Z"/>
        <path class="cls-1" d="M210.7,152.7c0,1.5,0,3.1,0,4.6,0,.6-.2.8-.8.8-.6,0-.7-.3-.7-.8,0-3,0-6.1,0-9.1,0-.5.2-.8.7-.8.6,0,.7.3.7.8,0,1.5,0,3,0,4.5Z"/>
        <path class="cls-1" d="M32.2,152.7c0,1.5,0,3,0,4.5,0,.5-.1.8-.7.8-.6,0-.7-.3-.7-.8,0-3,0-6.1,0-9.1,0-.5.1-.8.7-.8.6,0,.7.3.7.8,0,1.5,0,3.1,0,4.6Z"/>
        <path class="cls-1" d="M157.6,152.7c0-1.5,0-3.1,0-4.6,0-.5,0-.8.6-.8.6,0,.7.3.7.8,0,3,0,6,0,9,0,.5,0,.8-.7.8-.6,0-.7-.3-.7-.8,0-1.5,0-3,0-4.5Z"/>
      </g>
    </g>
  </g>
</svg>