<?xml version="1.0" encoding="UTF-8"?>
<svg xmlns="http://www.w3.org/2000/svg" version="1.1" viewBox="0 0 240 213">
  <defs>
    <style>
      .cls-1 {
        fill: #d2dc03;
      }

      .cls-2 {
        fill: #16b3ac;
      }
    </style>
  </defs>
  <!-- Generator: Adobe Illustrator 28.6.0, SVG Export Plug-In . SVG Version: 1.2.0 Build 709)  -->
  <g>
    <g id="Layer_1">
      <g id="nqw7VI.tif">
        <g>
          <path class="cls-2" d="M124.9,212.4c0-.3-.4-.2-.6-.2-3.9-.4-7.6-1.3-11.1-3-10.4-5-16.7-13.3-19.1-24.6-.2-1-.3-2-.3-3,0-22.9,0-45.8,0-68.7,0-.3,0-.6,0-1,.4,0,.5.4.7.6,4.2,4.2,8.4,8.4,12.6,12.5,8.4,8.4,16.7,16.7,25.1,25,9.3,9.3,18.7,18.7,28,28,.5.5.6.9.6,1.5-.5,15.8-11.8,29-27.3,32.1-1.2.2-2.3.4-3.5.5-.2,0-.4,0-.5.2h-4.9Z"/>
          <path class="cls-2" d="M21.2,104.2c.5,0,.3-.4.3-.6.3-2.6.8-5.1,1.6-7.5,3.8-11.6,13.6-20.2,25.5-22.6,2.2-.4,4.5-.7,6.7-.7,10.4,0,20.8,0,31.2,0,.2,0,.4,0,.6,0,.3,0,.5.1.5.5,0,.2,0,.5,0,.7,0,21.7,0,43.4,0,65.1,0,.2,0,.4,0,.6,0,.4-.2.5-.5.5-.2,0-.5,0-.7,0-10.3,0-20.5,0-30.8,0-13.1-.1-23-5.9-29.7-17.1-2.3-3.8-3.6-7.9-4.1-12.2,0-.6-.1-1.2-.2-1.7,0-.2,0-.5-.3-.5v-4.3Z"/>
          <path class="cls-2" d="M94,100.3c-.2-.4-.1-.8-.1-1.1,0-22.3,0-44.5,0-66.8,0-3.3.6-6.4,1.7-9.4,3.6-9.7,10.2-16.5,19.8-20.3,2.9-1.1,5.9-1.8,8.9-2,9.2-.7,17.5,1.6,24.7,7.4,6.4,5.1,10.2,11.7,11.6,19.8.3,1.9.4,3.8.4,5.7,0,.7-.2,1.1-.7,1.6-4.4,4.3-8.8,8.6-13.2,13-8,7.9-16.1,15.8-24.1,23.7-9.5,9.3-19,18.6-28.5,27.9-.2.2-.3.3-.6.5Z"/>
          <path class="cls-1" d="M165.3,143.2c0-10.6,0-21.2,0-31.7,0-1.4-.1-1.2,1.3-1.2,6.3,0,12.5,0,18.8,0,.8,0,1.3.2,1.9.7,7.3,6.9,14.7,13.8,21.9,20.7,5.1,4.9,8.2,10.9,9.2,17.9,1.3,9.2-1,17.4-6.9,24.6-5,6.1-11.5,9.7-19.3,10.8-8.9,1.3-17-.8-24.1-6.4-.7-.6-1.4-1.2-2.1-1.8-.6-.5-.8-1-.8-1.8,0-6.3,0-12.7,0-19s0-8.6,0-12.8Z"/>
          <path class="cls-1" d="M165.3,69.9c0-10.6,0-21.2,0-31.8,0-.8.3-1.3.8-1.8,4.9-4.5,10.6-7.3,17.2-8.1,9.8-1.2,18.4,1.5,25.6,8.2,5.3,4.9,8.5,11,9.4,18.1,1.4,10.6-1.6,19.8-9.4,27.3-7.2,6.9-14.5,13.7-21.8,20.6-.5.4-.9.6-1.6.6-6.4,0-12.9,0-19.3,0-.2,0-.3,0-.5,0-.4,0-.5-.2-.5-.5,0-.3,0-.5,0-.8,0-10.6,0-21.2,0-31.7Z"/>
          <path class="cls-1" d="M100.8,110.4c.4-.2.7-.2,1-.2,18.8,0,37.5,0,56.3,0,1.4,0,1.2-.1,1.2,1.3,0,18.7,0,37.3,0,56,0,.3,0,.6-.1,1.1-19.5-19.4-38.9-38.8-58.4-58.3Z"/>
          <path class="cls-1" d="M159.1,44.5c.2.5.1.8.1,1.1,0,18.7,0,37.4,0,56.1,0,1.4.1,1.2-1.3,1.2-18.7,0-37.4,0-56.1,0-.3,0-.6,0-1.2,0,19.5-19.5,38.9-38.9,58.4-58.4Z"/>
        </g>
      </g>
    </g>
  </g>
</svg>