<?xml version="1.0" encoding="UTF-8"?>
<svg xmlns="http://www.w3.org/2000/svg" version="1.1" viewBox="0 0 240 213">
  <defs>
    <style>
      .cls-1 {
        fill: #fff;
      }
    </style>
  </defs>
  <!-- Generator: Adobe Illustrator 28.6.0, SVG Export Plug-In . SVG Version: 1.2.0 Build 709)  -->
  <g>
    <g id="Layer_1">
      <g id="gJVmjX.tif">
        <g>
          <path class="cls-1" d="M35.5,123.6c-1.7.5-3,.6-4.4,0-.8-3.2-.3-6.5-.4-9.8-.1-3.3,0-6.6,0-10.5-2.6,1.4-3.4,3.6-4.8,5.3-1.3,1.7-2.5,3.6-3.8,5.4-1.3,1.9-2.7,3.8-4.3,6.1-4.2-5.8-8.1-11.3-12.5-17.3-1.2,4-.5,7.2-.7,10.5-.1,3.3,0,6.7,0,9.8-1.4,1.2-2.6,1-3.9.6-.8-2.9-1.1-27-.3-35,3.1,4.2,5.9,8,8.6,11.8,2.8,3.8,5.6,7.7,8.7,12,6.4-7.9,11.6-16,17.8-24v35.2Z"/>
          <path class="cls-1" d="M157.4,88.6c10-.3,18.3,9,17.9,18.4-.4,9.8-8.5,17.7-18.5,17.6-10.7-.2-18.1-9.1-17.9-18.5.3-9.6,8.7-18.1,18.5-17.5ZM157.1,92.9c-7.3,0-13.5,6.3-13.5,13.6,0,7.2,6.3,13.7,13.5,13.8,7.3,0,13.9-6.6,13.8-13.9-.1-7.3-6.4-13.5-13.7-13.5Z"/>
          <path class="cls-1" d="M221.4,92.9c-.9,4-.6,7.4-.3,11.2h15c1.4,1.4,1.3,2.7,1,4.1-5.1.8-10.3-.2-15.7.6-.8,3.5-.6,7-.1,11,6.2.6,12.3,0,18.3.3.7,1.2.5,2.3,0,3.7-7.5.5-15.1.2-22.6.2-.9-2.9-1.1-29.6-.3-35h22.1c.8,1.1.6,2.3,0,3.9h-17.3Z"/>
          <path class="cls-1" d="M100.7,104.4c.9,1.3.7,2.4.2,3.7-5,1.1-10.2-.3-15.5.8-.8,3.5-.4,6.9-.2,10.6,6.3,1.2,12.5-.1,18.5.8.7,1.2.7,2.2,0,3.5-7.4.4-15,.2-22.5,0-.9-3.1-1-30.5-.2-35h22c.8,1.1.5,2.2.3,3.8-5.8,0-11.7.2-17.8.2-.8,3.7-.6,7.1,0,10.9,5.2.6,10.3,0,15.3.4Z"/>
          <path class="cls-1" d="M51.8,113.9c-2.3,3-2.8,6.6-4.7,9.6-1.3.7-2.6.6-4.5.1,5-11.8,10-23.4,15.4-35.9,5.3,12.2,10.2,23.8,15.2,35.3-1.4,1.3-2.6.9-4,.6-2.1-2.8-2.7-6.6-4.8-9.8-4.2-.2-8.4-.2-12.6,0ZM62.9,109.4c-1.6-3.8-2.8-7.3-4.9-11.1-1.8,3.9-3.5,7.2-4.5,11.3,3.1.7,6,.9,9.4-.2Z"/>
          <path class="cls-1" d="M193.8,115.2c3.9-9.3,7.5-17.8,11-26.1,1.6-.4,2.9-.4,4.5,0-5.1,11.9-10.1,23.7-15.5,36.1-5.3-12.3-10.4-24.1-15.5-36,1.5-.7,2.8-.5,4.4-.2,3.5,8.3,7.1,16.8,11,26.2Z"/>
          <path class="cls-1" d="M117.4,119.4c6.3.8,12,0,17.6.5.8,1.2.6,2.3.3,3.4-1,1-18.2,1.2-22.5.1v-34.1c.7-.8,1.5-.6,2.2-.6.6,0,1.3.1,2.3.2v30.4Z"/>
        </g>
      </g>
    </g>
  </g>
</svg>