<?xml version="1.0" encoding="UTF-8"?>
<svg xmlns="http://www.w3.org/2000/svg" version="1.1" viewBox="0 0 240 213">
  <defs>
    <style>
      .cls-1 {
        fill: #fff;
      }

      .cls-2 {
        fill: #ffb700;
      }
    </style>
  </defs>
  <!-- Generator: Adobe Illustrator 28.6.0, SVG Export Plug-In . SVG Version: 1.2.0 Build 709)  -->
  <g>
    <g id="Layer_1">
      <g id="Layer_1-2" data-name="Layer_1">
        <g id="_x31_LExjE.tif-2">
          <g>
            <path class="cls-2" d="M187.4,71.5c6.3,1.1,9.8,5.7,13.5,10.4,2.9,3.7,7.7,4.7,12,2.6,3.5-1.7,6.8-3.7,10.2-5.5,1.8-1,3.6-2,5.8-2.1,2.2-.2,4.1.4,5.6,2.1,1.6,2,3.2,3.9,4.9,5.9,1,1.2,1,2-.5,2.9-6.2,3.5-12.2,7.1-18.4,10.5-3.6,2-6.6,1.3-9.4-1.7-.9-1-1.8-2-2.5-3-6.2-9.1-15.2-9.2-23.9-4.6-5.9,3.1-11.6,6.7-17.4,9.9-5.7,3.1-7.6,2.7-11.6-2.2-.4-.4-.7-.9-1-1.3-7.2-8.9-14.1-10.5-24.3-5.3-5.9,3-11.5,6.4-17.2,9.7-6.2,3.6-10.6,2.8-15.1-2.7-3.7-4.5-3.7-4.6,1.5-7.5,7.8-4.4,15.6-8.8,23.3-13.3,3.1-1.8,6.4-2.7,10-2.6,3.6,0,6.6,1.4,8.9,4.1,1.4,1.7,2.7,3.3,4.1,5,3.6,4.4,8.6,5.4,13.6,2.6,4.4-2.4,8.7-4.9,13-7.4,4.4-2.7,9-5.1,14.1-6.2h1.1l-.3-.3Z"/>
            <path class="cls-1" d="M6.9,114.7c6.9-6.8,13.8-5.8,18.2.6,2.9-3.6,6.4-5.8,11.2-5.1,4.6.7,7.7,4,8.3,9.1.8,6.6.2,13.3.3,20,0,1.2-.6,1.5-1.8,1.6-5.6.4-5.6.5-5.6-5.1s0-8.6,0-13c-.2-4.3-2.2-6.7-5.4-6.7s-5.6,2.7-5.7,6.8c-.1,5.1-.1,10.1,0,15.2,0,2-.5,2.8-2.7,2.7-5.6-.2-4.7.7-4.8-4.8,0-4.5,0-9-.1-13.5-.1-4.2-2.2-6.5-5.3-6.4-3.1,0-5.7,2.8-5.8,6.5-.2,5.2,0,10.3,0,15.5,0,2-.4,2.8-2.7,2.7-5.4-.2-4.7.7-4.8-4.6C0,128.7,0,121.2-.1,113.7c0-1.5-.6-3.3,2-3,1.9.2,5-1.2,4.6,2.8,0,.3,0,.6.2,1.1h.2Z"/>
            <path class="cls-1" d="M133.3,136.3c-4.1,5-8.9,6.3-14.3,4.3-5.7-2.1-7.9-6.9-8.5-12.6-.2-1.8,0-3.6,0-5.3,1.4-10.5,12.3-16.9,22-9.3,0-4.2.1-8.2,0-12.2,0-2.1.6-2.7,2.7-2.7q5,0,5,4.9c0,11.6,0,23.2.2,34.9,0,1.9-.4,2.9-2.4,2.6h-1.7c-2.1.3-3-.5-2.7-2.6,0-.4-.1-.9-.3-1.9h-.1ZM132.5,125.6h0v-3.7c-.3-3-2.4-5.4-5.2-6-3.1-.7-6,.5-7.5,3.2-2.3,4-2.4,8.3-.4,12.4,1.4,3,4.2,4.2,7.5,3.7,2.9-.5,5.1-2.8,5.5-6,.1-1.2,0-2.4,0-3.7h.1Z"/>
            <path class="cls-1" d="M86.4,115c3-3.6,6.3-5.2,10.5-4.9,5.1.4,8.5,3.4,9.5,8.6,1.2,6.9.3,13.9.5,20.8,0,.9-.4,1.4-1.3,1.4s-2.3-.1-3.4,0c-2.2.3-3-.5-2.9-2.8.2-4.1,0-8.3,0-12.4s0-2.4-.2-3.7c-.4-3.9-2.6-6-5.9-5.9-3.2,0-6,2.8-6.1,6.3,0,5.2-.2,10.3,0,15.5,0,2.3-.6,3.1-3,3-5.5-.3-4.7.8-4.7-4.9s0-14.8,0-22.3c0-1.4-.6-3.3,2-3,1.9.3,5-1.4,4.8,2.6,0,.3,0,.7.3,1.6h0Z"/>
            <path class="cls-1" d="M66.9,137.7c-2.6,2.3-5.5,3.8-9,3.7-4.5,0-7.8-2.3-9.1-6.2-1.3-4.1.3-8.4,3.9-10.9,3.5-2.3,7.5-3,11.6-3.1,2.3,0,2.3-1.1,1.7-2.6-.8-2.1-2.5-3-4.6-3.2-2.6-.3-5.1.2-7.5,1.1-.7.3-1.8,1.4-2.2-.2-.3-1.4-2-2.9,0-4.2,4-2.8,13.6-2.8,17.7,0,3.3,2.2,4.4,5.6,4.5,9.2.2,6,.2,12,.3,18,0,.7,0,1.4-.8,1.4-1.6,0-3.2.1-4.8,0-1.7-.1-.9-1.8-1.7-3ZM66.7,128.7c-.5-.6.9-2.4-1.2-2.6-2.7-.2-5.3.2-7.6,1.8-2,1.4-2.5,3.5-1.5,5.8s3,2.7,5.2,2.3c3.4-.6,5.1-3,5.1-7.3Z"/>
            <path class="cls-1" d="M165.4,115.7c2.2-3.1,4.7-4.8,8.4-5,1.5,0,2.1.4,2,1.9v2.8c0,1.4-.6,1.7-1.9,1.7-4.9.3-7.3,2.8-7.5,7.7-.1,4.5-.1,9,0,13.5,0,2-.6,2.6-2.6,2.5-5.8-.2-4.9.8-5-4.9-.1-7.6,0-15.2-.3-22.8,0-1.9.6-2.7,2.4-2.4,1.6.3,4.4-1.4,4.3,2.2,0,.9,0,1.8.1,2.7h.1Z"/>
            <path class="cls-1" d="M145.7,125.9v-12.6c0-1.7.4-2.5,2.4-2.5,5.4,0,5.4-.2,5.4,5.1v22.5c0,1.9-.4,2.6-2.5,2.6q-5.3,0-5.3-5.1v-10Z"/>
            <path class="cls-1" d="M179.5,125.9v-12.9c0-1.7.6-2.3,2.3-2.3,6.4,0,5.2-.4,5.3,5.2v21.9c0,2.2-.5,3.1-2.9,3.1-4.7-.2-4.7,0-4.7-4.6v-10.4h0Z"/>
          </g>
        </g>
      </g>
    </g>
  </g>
</svg>