<?xml version="1.0" encoding="UTF-8"?>
<svg xmlns="http://www.w3.org/2000/svg" version="1.1" viewBox="0 0 240 213">
  <defs>
    <style>
      .cls-1 {
        fill: #ffd522;
      }
    </style>
  </defs>
  <!-- Generator: Adobe Illustrator 28.6.0, SVG Export Plug-In . SVG Version: 1.2.0 Build 709)  -->
  <g>
    <g id="Layer_1">
      <g id="YLP1JY">
        <g>
          <path class="cls-1" d="M143,200.2c1-.8,2-.8,3.1,0h-3.1Z"/>
          <path class="cls-1" d="M76.4,88.2c-.2-11.2,3.2-20.4,10.9-27.4,6.4-5.8,13.9-9.7,22.8-10.4,3.2-.3,3.7-.7,3.8-4,0-2.9,0-5.9,0-8.8,0-2.2.3-4.1,2.8-4.8,1.6-.4,1.5-1.5.8-2.6-1.4-2.1-2.8-4.2-4.1-6.4-1.1-1.9-.7-3.2.7-4.7,6.1-6.4,13.9-6.9,21.8-5.9,4.1.6,6.6,4.6,8.7,8,.7,1.2-.3,2.2-1,3.1-1.3,1.8-2.6,3.5-3.5,5.4-.7,1.5-1.1,2.7,1.2,3,2,.3,2.4,1.7,2.4,3.3,0,3.3.1,6.6,0,9.9-.1,2.6,1.1,3.7,3.5,4.1,14.8,2.5,24.4,11.5,28.8,25.3,4.6,14.3,1.8,27.6-8.6,39-7.6,8.2-17.1,11.5-27.8,12.3-3.8.3-7.3-.7-10.9-1.6-1.7-.4-3.2-.5-4.9,0-9.6,3.4-18.6,1-27.3-3.2-11.6-5.6-20.5-20.5-20-33.8ZM111.5,87.9c.1,12.2,3.6,23,13.4,31.1,2.7,2.2,2.8,2.3,5.2-.2,7.3-7.6,11.6-16.5,12.5-27.2,1.1-13.4-2.1-24.9-12.4-34-2.9-2.5-3.7-2.5-6.4,0-8.5,8.3-12.5,18.3-12.2,30.2ZM121.6,123.3c-.1-.4-.2-.8-.3-.9-.5-.4-1-.8-1.5-1.2-9.9-6.7-16-15.9-17.8-27.7-1.6-10.5.3-20.2,7-28.8,2.4-3,5.3-5.4,8.3-7.8.6-.5,1.4-.9,1.2-1.8-.2-.9-1.1-.9-1.9-1-1,0-2.1,0-2.8-.9-2-2.2-4.4-1.7-6.7-.9-7.9,2.7-13,8.7-16.4,15.7-5.6,11.6-6.2,23.7-1.3,35.9,4.6,11.7,12.4,19.3,25.4,20.7,2.6.3,4.7-.3,6.8-1.5ZM168.2,88.2c-.2-1.6-.6-3.3-.6-4.9-.5-11.9-5.9-21.2-15.5-27.9-2.2-1.5-4.9-3.2-7.7-2.1-1.7.6-3.4,1-5.1,1.1-.8,0-2-.3-2.4.7-.4,1,.6,1.7,1.3,2.1,7.2,5,11,12.1,13.4,20.3,2.9,10,1.7,19.6-3.1,28.8-3.2,6.3-8.3,10.8-14.1,14.7-.6.4-1.5.6-1.4,1.6,0,.9.9,1.2,1.7,1.3,2.7.7,5.4,1.3,8.2,1,6.8-.6,11.5-4.7,15.6-9.5,6.6-7.7,9.2-17.1,9.9-27.2Z"/>
          <path class="cls-1" d="M137.5,170.8c1.6-.7,1.7-1.8,2-2.7,1.5-3.9,3-7.8,4.5-11.8,1.4-3.7,6.3-5.7,9.9-4.1,1.5.7,1,1.9.7,2.9-1.4,3.7-2.7,7.4-4.3,11-3.2,7.2-6.2,14.5-9,21.8-.6,1.7-1.4,3.3-2.3,4.8-1.2,2-2.2,1.9-3.2-.1-1.5-3.1-2.8-6.3-4.2-9.4-.6-1.5-1.3-3-2.1-4.8-2.8,3.9-3.6,8-5.5,11.7-.3.6-.4,1.2-.6,1.8-.5,1.1-1,2.3-2.2,2.4-1.5.1-1.6-1.4-2-2.4-2.5-6.4-4.9-12.8-7.4-19.2-1.8-4.7-3.8-9.4-5.7-14.1-.5-1.2-1-2.3-1.5-3.5-.7-1.8-.3-3,2-3,.3,0,.5,0,.8,0,6.9-.4,6.9-.3,9.3,6.2,1.5,4.2,3.1,8.3,4.8,12.9,2.2-2.7,2.8-5.5,3.9-8.2,1.1-2.7,2.1-5.5,3.2-8.2.3-.7.6-1.5,1.5-1.5.9,0,1.1.9,1.4,1.6,2,5.2,3.9,10.4,6,15.8Z"/>
          <path class="cls-1" d="M44.4,172.6c.2,12.9-9.3,21.4-22.8,20.9-11.5-.4-19.6-9.7-19.4-22.8.2-11.9,9.1-19.7,22.6-19.4,12.2.2,19.8,8.6,19.6,21.4ZM34.4,171.9c.9-7.2-6.3-11.6-11.5-11.4-5.2.1-10.8,3.8-10.7,11.9.1,6.6,4.9,11.7,11.4,11.8,6.4,0,10.7-4.8,10.7-12.2Z"/>
          <path class="cls-1" d="M59.7,172.6c0-5.6,0-11.2,0-16.8,0-3.3.6-3.7,3.8-3.8,3.4,0,6.9.1,10.3,0,8.9-.6,16.5,6.4,18.5,14.7,1.6,7,.6,13.6-4.1,19.4-3.9,4.8-9.3,6.5-15.1,7.1-3.3.3-6.6.2-9.9.1-3.2,0-3.5-.4-3.6-3.5,0-5.7,0-11.5,0-17.2,0,0,0,0,0,0ZM68.9,172.3c0,2.8,0,5.6,0,8.4,0,2.2,1.1,3.1,3.2,3.4,4.6.7,7.2-2,9.2-5.4,2.3-3.8,2.8-7.8.6-12-2.1-3.9-5.7-5.2-9.8-5.5-2.3-.2-3.3.8-3.2,3.1,0,2.7,0,5.3,0,8Z"/>
          <path class="cls-1" d="M237.7,182.3c0,2.2,0,4.3,0,6.5,0,1.9-1.1,3.2-3,4-7.4,3-17,1.4-22.5-3.9-6.2-5.9-8.2-15.4-5.3-23.2,1.8-4.7,4.9-7.9,9.3-10.1,5.5-2.7,11.1-4.3,17.3-2.9,2.8.7,3.3,1.4,3.1,4.2,0,.9-.2,1.8-.3,2.7-.4,3-.9,3.3-4,2.8-1.3-.2-2.5-.4-3.8-.6-4-.8-7.4.4-10,3.4-3,3.5-3.8,7.7-2.3,12.1,1.4,4.3,4.4,6.7,8.8,7.5,2,.3,3.3,0,3-2.4-.2-1.4-.1-2.8,0-4.2.1-1.6-.8-3.8.9-4.6,2.3-1,4.9-1.4,7.4-.6,1.3.4,1.5,1.7,1.5,2.8,0,2.2,0,4.3,0,6.5,0,0,0,0,0,0Z"/>
          <path class="cls-1" d="M189.8,194.1c-2.2.3-4.4-.1-5.7-2.8-.6-1.3-1.8-1.7-3.2-1.7-2.2,0-4.3,0-6.5-.2-1.9-.2-3,.2-4,2-1.2,2.3-6.9,3.6-9.3,2.3-1-.5-1.1-1.3-.9-2.2.4-1.3.8-2.7,1.3-4,5-10.9,8.6-22.3,13.7-33.1.6-1.2.7-3.2,2.3-3.2,1.9,0,2.1,2,2.6,3.3,4.5,11.5,9.4,22.8,13.4,34.5,1.7,4.9,1.6,5.1-4,5.1ZM177.5,174c-1,1.7-1.5,3.1-1.5,4.6,0,1.3.7,2.2,2,2.2,1.6,0,1.7-1.2,1.5-2.4-.3-1.5-.8-2.9-2-4.3Z"/>
        </g>
      </g>
    </g>
  </g>
</svg>