<?xml version="1.0" encoding="UTF-8"?>
<svg xmlns="http://www.w3.org/2000/svg" xmlns:xlink="http://www.w3.org/1999/xlink" version="1.1" viewBox="0 0 240 213">
  <defs>
    <style>
      .cls-1 {
        fill: #076ea2;
      }

      .cls-2 {
        fill: #d51f31;
      }

      .cls-3 {
        fill: #afbe37;
      }
    </style>
  </defs>
  <!-- Generator: Adobe Illustrator 28.6.0, SVG Export Plug-In . SVG Version: 1.2.0 Build 709)  -->
  <g>
    <g id="Layer_1">
      <g id="doxW64">
        <g>
          <path class="cls-1" d="M32.9,196.9c-9.5,0-18.9,0-28.4,0-1,0-2.3.4-2.8-.8-.4-1,.5-1.8,1-2.6,8.9-13.6,17.8-27.3,26.7-40.9,10.1-15.6,19.9-31.5,30.5-46.7,5.9-8.4,14.4-13.4,25.3-13.3,18.6.2,37.2,0,55.8,0,.8,0,1.6,0,2.3.2,1.3.3,1.6,1.1.5,2-10.8,8.5-17,20.6-24.4,31.6-12.3,18.5-24.2,37.4-36.3,56.1-4.4,6.8-10.2,11.7-18.2,13.8-1.6.4-3.2.6-4.9.6-9.1,0-18.1,0-27.2,0Z"/>
          <path class="cls-2" d="M210.1,79.2c-10.6-.4-21.2.7-31.8-.9-10.7-1.6-18.7-7-24.4-16.2-6.3-9.9-12.7-19.8-19-29.7-2.7-4.2-5.4-8.4-8-12.7-1.4-2.3-1-3,1.8-3.1,18.9-.8,37.8-.5,56.7-.3,8.5,0,15.5,4,20.4,11,6.5,9.4,12.7,19.1,19,28.7,4.2,6.4,8.3,12.8,12.5,19.1,1.9,2.9,1.5,4-2.3,4.1-7.1.2-14.3,0-21.4,0-1.2,0-2.3,0-3.5,0Z"/>
          <path class="cls-3" d="M157.5,154.5c-9.2,0-18.3,0-27.5,0-1.1,0-2.5.4-3.2-.8-.7-1.2.2-2.2.8-3.1,7.3-11.4,14.6-22.7,21.9-34,1.6-2.4,3.2-4.8,4.6-7.4,6.2-11.2,16.1-16.3,28.5-16.5,16.8-.2,33.6,0,50.3,0,1.7,0,4-.3,4.9,1,1,1.5-1.1,2.8-1.9,4.2-7.3,11.4-14.9,22.7-22.5,34-3.5,5.3-6.6,10.8-11,15.5-4.8,4.9-10.8,7.1-17.4,7.3-9.2.3-18.3,0-27.5,0h0Z"/>
        </g>
      </g>
      <g id="doxW64-2" data-name="doxW64">
        <image id="doxW64-3" data-name="doxW64" width="750" height="500" transform="translate(-632.8 -149.1) scale(.5)" xlink:href="pertamina-1.png"/>
      </g>
    </g>
  </g>
</svg>