<?xml version="1.0" encoding="UTF-8"?>
<svg xmlns="http://www.w3.org/2000/svg" version="1.1" viewBox="0 0 240 213">
  <defs>
    <style>
      .cls-1 {
        fill: #30a6fd;
      }
    </style>
  </defs>
  <!-- Generator: Adobe Illustrator 28.6.0, SVG Export Plug-In . SVG Version: 1.2.0 Build 709)  -->
  <g>
    <g id="Layer_1">
      <g id="TtV1RC.tif">
        <g>
          <path class="cls-1" d="M228.5,34.2v144.9c-.8.5-.6,1.4-.7,2.1-3.6,18-19.1,30.9-37.5,31-46.9,0-93.8,0-140.7,0-21.1,0-38.1-17.1-38.1-38.1,0-45,0-90.1,0-135.1,0-17.1,11.3-31.8,27.7-36.7,1.9-.6,4-.6,5.8-1.5h149.6c0,.3.3.4.6.4,15.5,2,28.2,13.3,32.1,28.5.4,1.5.3,3.2,1.2,4.6ZM60.3,102.6c0,15,0,30.1,0,45.1,0,2,.6,2.7,2.7,2.7,4.8-.1,9.6-.1,14.4,0,2.1,0,2.7-.7,2.7-2.7,0-8.4,0-16.8,0-25.2,0-2,.5-2.7,2.6-2.5,5.5.6,11,.3,16.5-.5,7.5-1,14.4-3.4,20.1-8.6,7-6.4,9.5-14.6,9.6-23.8.2-12.9-7-24.1-18.9-29-6-2.4-12.2-3.4-18.6-3.5-9.5-.2-18.9.4-28.4.4-2.1,0-2.6.7-2.6,2.7,0,15,0,29.9,0,44.9ZM138.3,138.6c0,2.3,0,4.5,0,6.8,0,1.7.6,2.6,2.1,3.2,4.5,1.9,9.3,2.8,14.2,3.3,8.1.7,16.1.5,23.7-3.1,7.4-3.5,11.8-9.3,12.5-17.5.8-8.8-2.9-15.3-10.5-19.7-3.9-2.2-7.9-4-12.1-5.6-3.3-1.3-6.8-2.5-9.5-5-2.5-2.4-1.7-5.7,1.5-6.9,1.5-.6,3.1-.8,4.8-.8,6.7,0,13.2,1,19.3,3.9,2,1,2.7.5,2.8-1.7,0-4.3,0-8.6,0-12.9,0-1.5-.6-2.4-2.1-3-3.7-1.3-7.5-1.9-11.4-2.2-6.9-.5-13.7-.7-20.3,1.9-8.2,3.2-13.6,8.8-14.7,17.8-1.2,9.2,3.1,15.9,10.8,20.7,4.6,2.9,9.6,4.7,14.6,6.7,2,.8,4.1,1.7,5.7,3.2,2.6,2.5,2,5.8-1.3,7.1-1.4.6-3,.9-4.5.9-8.2.4-16-1.2-23.3-5.1-2-1.1-2.2-.9-2.3,1.3,0,2.3,0,4.5,0,6.8Z"/>
          <path class="cls-1" d="M80.1,87.5c0-4.4,0-8.9,0-13.3,0-.8-.3-1.8,1.1-1.8,5.5.2,11-.6,16.4.8,9.5,2.5,14,11.5,10.2,20.6-1.5,3.5-4.3,5.7-7.7,7.1-6.1,2.5-12.6,2.2-19,2-1.3,0-1-.9-1-1.6,0-4.6,0-9.2,0-13.8Z"/>
        </g>
      </g>
    </g>
  </g>
</svg>