<?xml version="1.0" encoding="UTF-8"?>
<svg xmlns="http://www.w3.org/2000/svg" version="1.1" viewBox="0 0 240 213">
  <defs>
    <style>
      .cls-1 {
        fill: #fff;
      }
    </style>
  </defs>
  <!-- Generator: Adobe Illustrator 28.6.0, SVG Export Plug-In . SVG Version: 1.2.0 Build 709)  -->
  <g>
    <g id="Layer_1">
      <g id="Nq5P34">
        <g>
          <path class="cls-1" d="M124.6,84.4c3.7-3.9,7.8-5.9,12.5-6.8,10.8-1.9,22.8,1.8,29,12.4,3.9,6.6,4.6,13.7,3.3,21-3.4,19.5-23.4,25.9-37.4,19.9-1.9-.8-3.6-1.9-5.2-3.3-.3-.3-.7-.9-1.2-.6-.5.2-.3.9-.3,1.3,0,7,0,14,0,21,0,2.7,0,2.8-2.7,2.8-2.9,0-5.7,0-8.6,0-1.4,0-1.9-.5-1.9-1.9,0-9.2,0-18.4,0-27.6,0-1,.3-1.8.7-2.6,5-10.1,5-20.1-.1-30.1-.5-1-.6-2.1-.6-3.2,0-2.4,0-4.7,0-7.1,0-1.2.4-1.8,1.7-1.8,3,0,6.1,0,9.1,0,1.4,0,1.8.6,1.8,1.9,0,1.4,0,2.8,0,4.7ZM140.8,88.5c-7.6,0-13.3,4.2-15.2,11.4-.7,2.5-.6,5-.4,7.6,1,11.4,12.4,16.9,22.1,12.8,5.8-2.4,8.6-7.2,9.2-13.3,1-10.5-5.4-18.7-15.6-18.6Z"/>
          <path class="cls-1" d="M202.4,76.7c-3.4-2.4-6.8-4.8-10.3-7.2-1.1-.8-1.6-1.7-1.6-3,0-5.5,0-5.5,5.3-5.5,2.3,0,4.5,0,6.8,0,1.2,0,1.7.4,1.8,1.7.1,4.7,0,9.4,0,14,0,1.9,0,3.7.4,5.7,2-2.8,4-5.6,6-8.4,2.8-3.9,5.6-7.8,8.3-11.8.7-1,1.5-1.4,2.6-1.1,1.2.3.8,1.4.8,2.1,0,4.4,0,8.8,0,13.1,0,1.3.4,1.8,1.8,1.8,3.5,0,7.1,0,10.6,0,1.7,0,2.3.6,2.2,2.2,0,2.1,0,4.3,0,6.4,0,1.6-.6,2.1-2.2,2.1-7.3,0-14.6,0-21.9,0-.5,0-1.1,0-1.6,0l-.2.4c2.4,1.6,4.7,3.3,7.1,5,5.2,3.7,4.1,1.8,4.2,8.2,0,3.9,0,7.8,0,11.7,0,5.4,2.6,7.9,8,8,2.6,0,5.2,0,7.8,0,1.2,0,1.8.5,1.7,1.7,0,2.6,0,5.1,0,7.7,0,1.1-.5,1.6-1.5,1.6-5,0-10,.4-14.9-.3-8.1-1.2-13.4-6.8-14.1-15.1-.7-8-.1-15.9-.3-23.9,0-.5,0-1,0-1.5,0-3.5-.1-3.6-3.6-3.4-1.2,0-1.4.6-1.4,1.6.4,12.3,0,24.7.2,37,0,4.8,0,4.8-4.7,4.8-2.3,0-4.5,0-6.8,0-2.3,0-2.4,0-2.4-2.4,0-15.2,0-30.4,0-45.6,0-1.8,0-3.5,0-5.3,0-1.4.6-2,2-1.9,3.3,0,6.5,0,9.8,0,0-.1,0-.3,0-.4Z"/>
          <path class="cls-1" d="M0,103.3c0-8.7,0-17.4,0-26.1,0-2.7.2-2.9,2.9-2.9,3,0,6,0,8.9,0,1.5,0,2.1.6,2.1,2.2,0,7.1,0,14.2,0,21.4,0,1.9.6,2.4,2.4,2.4,4.7-.1,9.5,0,14.2,0,2.6,0,5.1-.5,7.5-1.4,4.9-1.8,7.7-5.9,8-11.1.3-5.8-1.5-10.4-7-13.1-2.2-1.1-4.6-1.6-7.1-1.7-6.1,0-12.3,0-18.4,0-1.5,0-2.6-.5-3.7-1.5-2.8-2.9-5.6-5.7-8.5-8.6-.4-.4-1-.7-.7-1.3.3-.5.9-.3,1.3-.3,10.3,0,20.6-.2,30.8.1,7.9.3,15.2,2.6,20.9,8.6,3.2,3.4,5,7.6,5.8,12.2.1.9.2,1.8-.5,2.6-4.9,5.3-7.1,11.7-7.4,18.8,0,1.7-.7,2.7-2.1,3.5-5.6,3.6-11.8,5-18.4,5.1-4.8.1-9.6,0-14.4,0q-2.9,0-2.9,2.9c0,5.1,0,10.2,0,15.3,0,1.7-.6,2.3-2.2,2.2-3.1,0-6.2,0-9.3,0-2.2,0-2.4-.2-2.4-2.4,0-8.9,0-17.8,0-26.7Z"/>
          <path class="cls-1" d="M55,104.4c-.5-13.4,9.8-25.2,24.3-26.9,10.3-1.3,19.5,1,26.8,8.8,4.4,4.6,6.6,10.2,6.8,16.5.2,5.7-.3,11.3-3.4,16.4-4,6.7-9.8,11.1-17.4,12.9-8,2-15.9,1.4-23.2-2.6-9.5-5.3-14.1-13.5-14-25ZM68.2,104.9c0,9.1,4.8,15.1,13,16.5,8.9,1.5,16.3-3.6,18.1-12.4.5-2.2.4-4.5.2-6.7-.7-6-3.5-10.7-9.4-12.8-6.1-2.1-12-1.7-17.1,2.9-3.7,3.3-5,7.7-4.9,12.5Z"/>
        </g>
      </g>
    </g>
  </g>
</svg>