<?xml version="1.0" encoding="UTF-8"?>
<svg xmlns="http://www.w3.org/2000/svg" version="1.1" viewBox="0 0 240 213">
  <defs>
    <style>
      .cls-1 {
        fill: #3e3ed6;
      }
    </style>
  </defs>
  <!-- Generator: Adobe Illustrator 28.6.0, SVG Export Plug-In . SVG Version: 1.2.0 Build 709)  -->
  <g>
    <g id="Layer_1">
      <g id="Fhbe79.tif">
        <g>
          <path class="cls-1" d="M229.2,35.1v142.5c-.2,0-.2.3-.2.4-.2,1.8-.5,3.5-.9,5.2-3.4,14.8-16.1,26.7-31.1,29.1-1.3.2-2.6.2-3.9.6H46.7c-.2-.4-.5-.2-.7-.2-4.7-.5-9.3-1.6-13.5-3.9-14.1-7.5-21.4-19.3-21.5-35.2-.1-44.8,0-89.6,0-134.4,0-2.5.2-4.9.6-7.3C14.2,16.2,27.2,3.2,42.9.6c1.1-.2,2.2,0,3.2-.6h147.8c1.1.4,2.3.4,3.4.6,15.8,2.6,28.7,15.6,31.3,31.3.2,1.1,0,2.2.6,3.2ZM62.9,102.3c0,15.4,0,30.9,0,46.3,0,1.6.1,1.7,1.6,1.7,5.5,0,10.9,0,16.4,0,1.4,0,1.7-.3,1.7-1.7,0-4.1,0-8.1,0-12.2,0-5.2,0-10.4,0-15.6,0-.8.3-1.1,1-1,1.3,0,2.7.1,4,.1,7.1.2,14.2-.1,21.2-2.2,8.2-2.4,14.8-7.1,18.9-14.7,3.7-6.6,4.4-13.9,3.5-21.2-1.4-10.6-6.8-18.5-16.4-23.3-6.4-3.3-13.3-4.4-20.5-4.5-9.9-.2-19.8.3-29.7.5-1.8,0-1.8,0-1.8,1.9,0,15.3,0,30.6,0,45.9ZM163.6,87.4c0-.7,0-1.1,0-1.5-.1-2.3-.4-4.5-1.1-6.6-.4-1.2-1-1.7-2.2-1.7-5.2,0-10.4,0-15.6,0-.8,0-1.1.4-1.1,1.2.7,8.7.6,17.4.6,26.2,0,14.5,0,29.1,0,43.6,0,1.8.3,2,2,2,5.5,0,11,0,16.5,0,.2,0,.5,0,.7,0,.9,0,1.3-.4,1.3-1.2,0-.4,0-.8,0-1.1,0-14.1,0-28.3,0-42.4,0-2.7,1-4.3,3.2-5.4.3-.1.5-.3.8-.5,5.3-2.6,10.9-3.7,16.7-3.8,3.3,0,2.9,0,2.9-2.9,0-5.2,0-10.3,0-15.5,0-1.4-.3-1.7-1.7-1.7-.9,0-1.8,0-2.7.1-7.7.9-14,4.6-19.4,10-.3.3-.6.6-1.1,1.2Z"/>
          <path class="cls-1" d="M82.6,87.4c0-4.7,0-9.5,0-14.2,0-.9.3-1.1,1.1-1.1,4.1,0,8.3-.3,12.4,0,2.9.3,5.7.9,8.3,2.2,4.5,2.3,6.8,6.1,7.3,11.1.2,1.9,0,3.7-.3,5.6-1.1,5.4-4.7,8.5-9.6,10.2-3.7,1.3-7.4,1.8-11.3,1.7-2.2,0-4.4,0-6.5,0-1,0-1.4-.2-1.3-1.3,0-4.7,0-9.4,0-14.1Z"/>
        </g>
      </g>
    </g>
  </g>
</svg>