<?xml version="1.0" encoding="UTF-8"?>
<svg xmlns="http://www.w3.org/2000/svg" version="1.1" viewBox="0 0 240 213">
  <defs>
    <style>
      .cls-1 {
        fill: #00245b;
      }

      .cls-2 {
        fill: #0364ba;
      }

      .cls-3 {
        fill: #0358b0;
      }

      .cls-4 {
        fill: #0477cb;
      }

      .cls-5 {
        fill: #0258b0;
      }

      .cls-6 {
        fill: #123d73;
      }

      .cls-7 {
        fill: #144077;
      }

      .cls-8 {
        fill: #0350a9;
      }

      .cls-9 {
        fill: #11396e;
      }

      .cls-10 {
        fill: #0353ab;
      }

      .cls-11 {
        fill: #f5a60c;
      }

      .cls-12 {
        fill: #034ba4;
      }

      .cls-13 {
        fill: #0377cb;
      }

      .cls-14 {
        fill: #0d3f7a;
      }

      .cls-15 {
        fill: #f2900f;
      }

      .cls-16 {
        fill: #0351a9;
      }

      .cls-17 {
        fill: #0364bb;
      }

      .cls-18 {
        fill: #0467bd;
      }

      .cls-19 {
        fill: #fad108;
      }

      .cls-20 {
        fill: #0362b9;
      }

      .cls-21 {
        fill: #154076;
      }

      .cls-22 {
        fill: #eb5e14;
      }

      .cls-23 {
        fill: #0367bd;
      }

      .cls-24 {
        fill: #024ea8;
      }

      .cls-25 {
        fill: #f7b80a;
      }

      .cls-26 {
        fill: #15437c;
      }

      .cls-27 {
        fill: #ef7911;
      }

      .cls-28 {
        fill: #0d3b73;
      }

      .cls-29 {
        fill: #08366f;
      }

      .cls-30 {
        fill: #035cb3;
      }
    </style>
  </defs>
  <!-- Generator: Adobe Illustrator 28.6.0, SVG Export Plug-In . SVG Version: 1.2.0 Build 709)  -->
  <g>
    <g id="Layer_1">
      <g id="V2KLl1.tif">
        <g>
          <path class="cls-22" d="M23.2,121.2c-10.8-2-17.5-8.6-21.5-18.4-.6-1.5-.4-3.3-1.7-4.6v-11c1.3-9.1,6.4-15.6,14.2-20.2,3.1-1.8,6.5-2.6,10.1-1.9.9,3.3-1.9,5-3.4,7.1-7.9,10.8-9.7,22.3-4.8,34.7,1.3,3.3,3.4,6.1,5.5,9,1.1,1.5,2.9,3,1.6,5.3Z"/>
          <path class="cls-27" d="M23.2,121.2c0-1.7-1.2-2.9-2.1-4-12.6-14.8-11.7-33.9,1-48.7.9-1,2.1-1.9,1.9-3.5-.3-.2-.4-.4-.3-.6.1-.2.2-.3.3-.3,3.1,0,6.2,0,9.3,0,.9.4,1.9.7,2.8,1.1,1.2,3-1.5,3.6-3,4.8-11.2,8.3-15.2,20.1-10.9,33.1,1.8,5.5,5.3,9.8,10.1,13.3,1.5,1.1,4.2,1.9,2.9,4.8-4,1.3-8,1.4-12.1,0Z"/>
          <path class="cls-13" d="M95.7,121.5c1-4.6,1.5-9.2,3.4-13.6,4.4-10,12.2-15.2,23.4-15.1,1.5,1.9.6,3.9,0,5.6-1.1,3.1-1.2,6.1.3,9.1-6.8,5.3-8,12.3-6.1,20.1-3,3.2-4.6,7-5.5,11.2-.3,1.6-.8,3.3-2.5,4.2-3.4-1.5-5.3-4.7-8.1-7-1.5.1-1.3,1.5-1.7,2.3-2,4.7-5.7,7.1-10.6,8.3-.9.6-1.9.9-3,.8-1.9,0-2.3-1-1.2-2.3,4.9-5.3,5.3-12.2,7.4-18.5.8-2.4,1.3-4.8,4.4-5.2Z"/>
          <path class="cls-20" d="M175.2,147.1c-5.2,0-10.4.1-15.6.3-2.1,0-3-.6-2.9-2.8.2-5.6.2-11.3.2-16.9,3.2-9.5,5.7-19.3,8.5-28.9.6-2.2,0-3-2.3-3-3.2,0-6.5.6-9.6-.7-.5-.3-.6-.7-.4-1.2,5.3,0,10.6,0,15.9,0,3.4.6,6.7.2,10.1.2,4.5.1,5.6,1.6,4.2,6-.4,1.3-1.2,2.5-1.9,3.6,2,2,6.2-1.3,6.9,3.1-4,.2-8-.6-11.9.5-1.2,1.3-.5,2.9-.5,4.3,0,10.3,0,20.7,0,31,0,1.5.6,3-.6,4.4Z"/>
          <path class="cls-5" d="M211.6,117c3.1-6.2,4.8-13,7.1-19.5,1-2.7,2-4,5.1-3.7,5.4.5,10.9-.8,16.3.7-.5.6-1.1,1-1.9,1.2-10.1.7-10.3.7-13.1,10.2-3.6,12.5-7.5,24.9-10.5,37.6-.4,1.5-.7,3-2.2,3.9-2.3,0-4.7.5-7-.3-1.8-2.1-2.6-4.7-3.1-7.4,1.9-7.2,3.9-14.3,6.5-21.2.5-1.3,1.8-1.1,2.8-1.4Z"/>
          <path class="cls-18" d="M95.7,121.5c-4.4,4.8-4.4,11.3-6.5,16.9-1.1,3.1-2.2,5.9-5.3,7.8,1.6,1.5,2.9.3,4.3,0,.4.4.4.8-.1,1.1-6.8,2.4-13.6,1.8-20.4-.3.3-4.6,2.6-8.5,3.7-12.8,1.4,0,2.8,0,4.1,0,2-.2,4.1-.7,5-2.7.9-2-1-3-1.8-4.3-.5-.9-.5-1.8-.1-2.6,1.9-3.5.9-7.2,1.3-10.8,5.8,1.5,10.9,4.4,15.8,7.9Z"/>
          <path class="cls-16" d="M153.1,94.5c4,0,8,0,12,0,1.3,0,2.6-.1,2.1,1.9-2.6,10.1-5.1,20.3-8.9,30-.2.5-.9.8-1.4,1.2,0-5.8-.2-11.5-.1-17.3,0-2.3-.6-3.2-3-3.2-3.5,0-7,.7-10.5-.5-2.1.5-1.6,3.9-4.2,3.7-1.2-.9-2.4-1.8-3.6-2.7-1.3-5.1.4-9.9,4.1-11.5.3,0,.5,0,.6.3,3.8-4.1,8.5-2.3,13-2Z"/>
          <path class="cls-15" d="M35.3,121.2c0-2.2-1.8-2.7-3.2-3.6-17-11.6-16.9-36.8,0-48.3,1.5-1,3.9-1.5,4-4,3.8.2,6.4,2.7,9.6,4.3-.8,2.2-2.9,2.5-4.7,3.3-14,6-18.3,22.5-9,34.4,2.5,3.2,5.9,4.8,9.4,6.4,1.6.8,3.6,1,4.4,3-3.2,2.2-6.4,4.4-10.5,4.4Z"/>
          <path class="cls-19" d="M56.5,104.4c-.6.7-1.2,1.4-1.8,2.1-1.9-.6-3.9-.7-5.9-.7-7.5-.2-13.1-6.2-12.5-13.2.6-7.3,7.1-12.6,14.4-11.9,1.7.2,3.3.8,5,.9,4,7.1,2.9,14.4,1.3,21.8.2-.4.5-.4.5,0,0,.7-.3,1-1,1Z"/>
          <path class="cls-4" d="M188.3,106.8c-2.7-2.5-6.2-.3-9.4-1.6.5-2.2,2.9-3.5,3.5-5.9.8-3.3.4-4.8-3.5-4.8-3.3,0-6.7.8-9.9-.6,10.8,0,21.6,0,32.4,0,1.9,3.4,3.8,6.8,3.9,10.9-2.6.8-4,2.6-4.6,5.2-.7,2.8-1.4,5.7-2.5,8.4-.6,1.4-.9,3.4-3.3,3-2.1-4.8-4.3-9.7-6.4-14.5Z"/>
          <path class="cls-11" d="M45.8,116.8c-6.2-2.6-12.5-4.7-16.4-11.1-7.5-12.1-2.1-28.9,11.3-34,1.7-.7,3.4-1.4,5.1-2.1,2.2,1,4,2.6,5.3,4.7.8,3.7-2.3,2.8-4,3.1-8,1.2-13.5,6.9-14.2,14.6-.7,8.1,4.4,14.9,12.4,16.9,2.2.5,5.1,0,5.8,3.2-1.3,2.1-3.1,3.6-5.3,4.7Z"/>
          <path class="cls-25" d="M51.1,112.1c-1.6-1.4-3.5-1.6-5.5-1.9-8.8-1.5-14.6-9.2-14-18.5.6-8.2,7.6-15,16-15.5,1.5,0,3.2.4,3.5-1.9,2.6,1.8,3.1,4.9,4.7,7.3-1,1.4-2.4,1-3.7.6-4.8-1.4-8.9.4-11.9,3.9-3.2,3.7-3.5,9.9-.8,13.6,2.9,4,7,5.9,12,4.8,2.2-.5,3.2,0,3.5,2.1-.5,2.3-1.8,4.1-3.7,5.6Z"/>
          <path class="cls-3" d="M83.5,106.5c-1.5.2-3.1.4-4.6.7-4,.4-3.2,3-2.5,5.5-.2,4.2-.7,8.4-4.1,11.5-2.8,0-5.3-1-7.4-2.9-.8-4,1.5-7.3,2.3-10.9,1.3-5.6,3.5-11,4.1-16.8,5.3-1.6,10.6-1.3,15.9.1,1.3,3.3-.6,6-1.8,8.8-.6,1.3-1.5,2.5-1.9,4Z"/>
          <path class="cls-23" d="M194.7,121.3c2.9-1.9,2.7-5.2,3.7-7.9.8-2.1,1.5-4.3,1.9-6.5.6-2.8,2.3-3.1,4.6-2.3,3.1,3.7,4.7,8,4.7,12.8-2.2,7.4-3.3,15.3-7.4,22.1-3-5.9-5.5-12-7.5-18.3Z"/>
          <path class="cls-12" d="M71.3,93.6c1.5,1.2,1.2,2.7.7,4.2-2.4,7.8-4.1,15.9-7.1,23.5-7.3-3.8-9.5-8.1-8.4-16.9.2-.3.3-.7.5-1,3.3-5.3,7.8-9,14.3-9.8Z"/>
          <path class="cls-2" d="M108.6,143c.9-3.2,2-6.3,2.8-9.5.7-2.8,2.1-4.8,4.7-5.9,1.9,0,1.6,2.5,3.2,2.8,3.1,3.4,7.2,4,11.6,3.9-1.2,2.3-3.1,4.2-3.6,7-.6,3.2-.4,5.3,3.4,5.8.6,0,1.1.5,1.4,1-8.5,1.4-16.1-.8-23.3-5.1Z"/>
          <path class="cls-17" d="M139.5,96.3c-3.3,3.2-3.1,7.5-4.1,11.5-4-1.5-7.9-1.4-11.8.4-.5,0-1.1-.1-1.1-.8-2.5-1.4-3.2-3.2-2.1-6.1,1.1-2.6,1.4-5.6,2.1-8.4,6-.6,11.8.2,17,3.5Z"/>
          <path class="cls-10" d="M71.4,134.1c.9,4.9-1.4,8.8-3.7,12.8-4.4-.5-8.2-2.4-11.8-4.8-.9-.6-2.4-1.3-1.9-2.3,1.6-3.8,3.5-7.5,5.6-11,.8-1.4,2.1,0,3.2.5,2.9,1.6,5.8,3.1,8.7,4.7Z"/>
          <path class="cls-8" d="M131.9,148.1c-2.3-.9-6.1,1.4-6.6-3.1-.5-4,2.4-9.5,5.5-10.7,3.5,0,6.2-3.3,9.9-2.1,0,2.9,1.5,5.3,2.6,7.7,1.7,3.7.6,5.3-3.1,6-.9.2-2.1.2-2.8,1.2-1.7,1.1-3.6,1-5.4,1.1Z"/>
          <path class="cls-18" d="M83.5,106.5c-.2-.8-2-1.2-1-2.1,3.4-2.8,3.2-7.1,4.7-10.7,4.7.6,9.1,2,13,4.6-.1,4.9-2.8,8.6-5.7,12.2-3.6-1.6-7.1-3.3-11-4Z"/>
          <path class="cls-29" d="M238.5,94.6c.5,0,1-.1,1.5-.2-.6,5.8-3.6,10.8-5.6,16.2-4.1,11.1-8.5,22.1-12.8,33.1-.5,1.2-.4,2.8-2,3.4-.5.1-.9,0-1.2-.6-.7-1.9.3-3.6.9-5.3,5.6-14.3,11.2-28.6,16.6-42.9.6-1.5,1.2-2.8,2.5-3.8Z"/>
          <path class="cls-30" d="M72.3,124.2c1.3-4,2.5-8.1,3.8-12.1.4-.5.7-.5,1.1,0,.9.5,1.8,1,2.7,1.6,3.1,4.8.6,9.1-1.2,13.4-2.1-1-4.3-1.9-6.4-2.9Z"/>
          <path class="cls-21" d="M122.4,107.3c.4.3.8.6,1.1.8-7.7,6.1-9.1,13.1-4.4,22.3-1.7-.2-2-2-3.2-2.8-2.8-9.3-1.3-14.2,6.4-20.3Z"/>
          <path class="cls-1" d="M175.2,147.1c0-12.1,0-24.1.1-36.2,0-1.2-1.2-2.9,1.1-3.5,0,12,0,24,0,36,0,1.3,1.1,3.1-1.2,3.8Z"/>
          <path class="cls-14" d="M209.7,117.5c-1-4.5-2.7-8.7-4.7-12.8-1.2-3.6-2.4-7.2-3.6-10.7,2.2,0,2.1,2,2.6,3.2,2.6,6.6,5.1,13.2,7.7,19.8-.2,1.7-1.1.9-1.9.5Z"/>
          <path class="cls-26" d="M137.3,147.1c0-.1-.3-.3-.2-.4,1.6-2,6.1-.6,6.1-4,0-2.4-1.7-4.8-2.4-7.2-.3-1-2.4-2.2-.1-3.3.8,1.7,1.6,3.3,2.2,5q3.3,8.2-5.6,9.9Z"/>
          <path class="cls-6" d="M88.1,147.2c0-.4,0-.7.1-1.1,5.3-1.6,9.2-4.4,10.3-10.3.5-2.7,1.4-.9,1.9.2-1.6,6.4-6,9.9-12.3,11.2Z"/>
          <path class="cls-9" d="M94.5,110.6c1.9-4.1,3.8-8.1,5.7-12.2,1,.1,2,.4,1.4,1.6-1.8,3.7-3.6,7.3-5.5,10.8-.2.4-1.1.3-1.6-.2Z"/>
          <path class="cls-17" d="M153.1,94.5c-4.4.3-9-.8-13,2,.9-2.3,2.6-3.2,5.1-2.9,2.6.3,5.2.2,7.8.2,0,.2,0,.4,0,.7Z"/>
          <path class="cls-23" d="M218.9,146.9c.3,0,.5.2.7.3-4.8.7-9.5,1-14.3-.1,2.4,0,4.8-.1,7.1-.2,2.2-1.4,4.3-1.4,6.4,0Z"/>
          <path class="cls-7" d="M77.2,112c-.4,0-.7,0-1.1,0-.4-1.2-2.5-1.9-1.4-3.4.9-1.3,2.3-2.5,4.2-1.5-2.1,1.1-3,2.6-1.7,4.8Z"/>
          <path class="cls-28" d="M139,110.4c1.8-.8,1.4-4.1,4.2-3.7-1.6,1.1-.2,5.4-4.2,3.7Z"/>
          <path class="cls-24" d="M218.9,146.9c-2.1,0-4.3,0-6.4,0,3.4-16.4,9-32.2,13.3-48.4.8-3.1,2.1-4.3,5.3-3.9,2.4.3,4.9,0,7.4.1-6.2,16.2-12.4,32.5-18.6,48.7-.4,1.1-.6,2.3-1,3.5Z"/>
        </g>
      </g>
    </g>
  </g>
</svg>