<?xml version="1.0" encoding="UTF-8"?>
<svg xmlns="http://www.w3.org/2000/svg" version="1.1" viewBox="0 0 240 213">
  <defs>
    <style>
      .cls-1 {
        fill: #fffef9;
      }
    </style>
  </defs>
  <!-- Generator: Adobe Illustrator 28.6.0, SVG Export Plug-In . SVG Version: 1.2.0 Build 709)  -->
  <g>
    <g id="Layer_1">
      <g>
        <g>
          <path class="cls-1" d="M77.6,56.2l-32.4,66c-.5,1-1.3,1.8-2.3,2.5-1,.6-2.1.9-3.3.9s-2.3-.3-3.3-.9c-1-.6-1.8-1.4-2.3-2.5L1.7,56.2h13.9l24,49.3,24.1-49.3h13.8Z"/>
          <path class="cls-1" d="M147.1,97c0,4.2-.7,8-2.1,11.5-1.4,3.5-3.4,6.5-6,9.1-2.5,2.5-5.6,4.5-9,5.9-3.5,1.4-7.3,2.1-11.4,2.1h-16.8c-4.1,0-7.9-.7-11.4-2.1-3.5-1.4-6.5-3.4-9.1-5.9-2.5-2.5-4.5-5.6-6-9.1-1.4-3.5-2.2-7.3-2.2-11.5v-13.1c0-4.1.7-8,2.2-11.5,1.4-3.5,3.4-6.5,6-9.1,2.5-2.5,5.6-4.5,9.1-5.9,3.5-1.4,7.3-2.1,11.4-2.1h16.8c4.1,0,7.9.7,11.4,2.1s6.5,3.4,9,5.9c2.5,2.5,4.5,5.5,6,9.1,1.4,3.5,2.1,7.3,2.1,11.5v13.1ZM134.7,83.9c0-2.4-.4-4.7-1.2-6.7-.8-2-1.9-3.7-3.3-5.1-1.4-1.4-3.1-2.5-5.1-3.3-2-.8-4.2-1.2-6.6-1.2h-16.8c-2.4,0-4.6.4-6.6,1.2-2,.8-3.7,1.9-5.1,3.3-1.4,1.4-2.5,3.1-3.3,5.1-.8,2-1.2,4.2-1.2,6.7v13.1c0,2.4.4,4.7,1.2,6.7.8,2,1.9,3.7,3.3,5.1,1.4,1.4,3.1,2.5,5.1,3.3,2,.8,4.2,1.2,6.6,1.2h16.7c2.4,0,4.6-.4,6.6-1.2,2-.8,3.7-1.9,5.1-3.3,1.4-1.4,2.5-3.1,3.3-5.1.8-2,1.2-4.2,1.2-6.7v-13.1Z"/>
          <path class="cls-1" d="M238.3,56.2l-11.4,64.1c-.3,1.3-.8,2.4-1.7,3.3-.9.9-2,1.5-3.2,1.8-1.3.2-2.5,0-3.7-.4-1.2-.5-2.1-1.3-2.7-2.4l-22.7-37.3-22.8,37.3c-.5.9-1.3,1.6-2.2,2.1-.9.5-1.9.8-3,.8s-2.8-.5-4-1.4c-1.1-1-1.8-2.2-2.1-3.7l-11.5-64.1h12.6l8.2,45.2,19.6-31.2c.5-.9,1.3-1.6,2.2-2.1.9-.5,1.9-.8,3-.8s2.1.3,3,.8c.9.5,1.7,1.2,2.3,2.1l19.5,31.2,8.2-45.2h12.6Z"/>
        </g>
        <g>
          <path class="cls-1" d="M10.9,141v16.5h-3.6l-1.9-8.3v8.3H1.8v-16.5h3.8l1.7,7.9v-7.9h3.6Z"/>
          <path class="cls-1" d="M32.2,153.2v-12.1h3.6v11.8h0c0,.3,0,.4,0,.5,0,.1,0,.2,0,.4,0,.2,0,.3.1.4s.1.2.3.3c.1,0,.3.1.4.1s.3,0,.4,0,.2-.1.3-.2c0-.1.1-.2.2-.3,0,0,0-.2,0-.4s0-.3,0-.4c0,0,0-.2,0-.4h0v-11.9h3.6v12.1c0,1.5-.4,2.6-1.1,3.4-.7.8-1.9,1.2-3.4,1.2-1.6,0-2.7-.4-3.5-1.2-.7-.8-1.1-1.9-1.1-3.4Z"/>
          <path class="cls-1" d="M61.8,141h8.1v3.2h-2.2v13.3h-3.7v-13.3h-2.2v-3.2Z"/>
          <path class="cls-1" d="M94.4,150v7.5h-3.8v-16.5h5.7c.6,0,1.1,0,1.5.2.4.2.7.4,1,.6.2.3.4.6.6,1,.1.4.2.8.3,1.3s0,.9,0,1.5,0,.6,0,.8,0,.4-.1.7c0,.3-.2.6-.3.8s-.3.4-.5.6c-.2.2-.5.3-.9.4.3,0,.6.2.9.3.2.2.4.4.5.6,0,.2.2.5.2.7,0,.2,0,.4,0,.7,0,2.7,0,4.8,0,6.2h-3.6v-6.4c0-.3,0-.5,0-.6,0-.2-.2-.3-.3-.3-.1,0-.3-.1-.4-.1-.1,0-.3,0-.6,0ZM94.4,144.1v3.1h.9c.5,0,.7-.5.7-1.5s0-1.1-.3-1.3c-.2-.2-.6-.3-1.2-.3h-.2Z"/>
          <path class="cls-1" d="M120.6,157.5v-16.5h3.6v16.5h-3.6Z"/>
          <path class="cls-1" d="M144.9,141h8.1v3.2h-2.2v13.3h-3.7v-13.3h-2.2v-3.2Z"/>
          <path class="cls-1" d="M173.6,157.5v-16.5h3.6v16.5h-3.6Z"/>
          <path class="cls-1" d="M198.3,153.1v-7.9c0-1.4.4-2.4,1.1-3.2.8-.8,1.9-1.1,3.4-1.2,1.6,0,2.7.4,3.5,1.2.8.8,1.1,1.8,1.1,3.2v7.9c0,.7,0,1.3-.3,1.8-.2.5-.4,1-.8,1.5-.4.4-.8.8-1.4,1s-1.3.3-2.1.3c-.8,0-1.5,0-2.1-.3s-1.1-.6-1.4-1c-.4-.4-.6-.9-.8-1.5-.2-.5-.3-1.2-.3-1.8ZM202.9,154.4c.1,0,.3,0,.4,0,.1,0,.2-.1.2-.2,0-.1.1-.2.1-.3,0,0,0-.2,0-.4,0-.2,0-.3,0-.4,0,0,0-.2,0-.4h0v-6.7s0-.1,0-.2c0-.1,0-.2,0-.3,0,0,0-.2,0-.3,0-.1,0-.2,0-.3,0,0,0-.1,0-.2s0-.2,0-.2c0,0,0-.1-.1-.2s-.1-.1-.2-.1-.2,0-.3,0-.3,0-.4,0c-.1,0-.2.1-.3.2,0,.1-.1.2-.2.3,0,0,0,.2,0,.4,0,.2,0,.3,0,.4v.4h0v6.8c0,.2,0,.3,0,.4,0,0,0,.2,0,.4,0,.2,0,.3,0,.4,0,.1,0,.2.2.3,0,.1.2.2.3.3.1,0,.2,0,.4,0Z"/>
          <path class="cls-1" d="M237.8,141v16.5h-3.6l-1.9-8.3v8.3h-3.6v-16.5h3.8l1.7,7.9v-7.9h3.6Z"/>
        </g>
      </g>
    </g>
  </g>
</svg>