<?xml version="1.0" encoding="UTF-8"?>
<svg xmlns="http://www.w3.org/2000/svg" version="1.1" viewBox="0 0 48 48">
  <defs>
    <style>
      .cls-1 {
        fill: #fff;
      }
    </style>
  </defs>
  <!-- Generator: Adobe Illustrator 28.6.0, SVG Export Plug-In . SVG Version: 1.2.0 Build 709)  -->
  <g>
    <g id="Layer_1">
      <g>
        <path class="cls-1" d="M1.3,22.9c0-5.6,3.8-9.9,9.5-9.9s9.5,4.3,9.5,9.9-3.9,9.9-9.5,9.9S1.3,28.5,1.3,22.9ZM16.9,22.9c0-4-2-6.8-6.1-6.8s-6.1,2.8-6.1,6.8,2.1,6.8,6.1,6.8,6.1-2.8,6.1-6.8Z"/>
        <path class="cls-1" d="M22.2,32.6v-4.1h3.7v4.1h-3.7Z"/>
        <path class="cls-1" d="M27.7,22.9c0-5.6,3.8-9.9,9.5-9.9s9.5,4.3,9.5,9.9-3.9,9.9-9.5,9.9-9.5-4.3-9.5-9.9ZM43.3,22.9c0-4-2-6.8-6.1-6.8s-6.1,2.8-6.1,6.8,2.1,6.8,6.1,6.8,6.1-2.8,6.1-6.8Z"/>
      </g>
    </g>
  </g>
</svg>